<svg xmlns="http://www.w3.org/2000/svg" viewBox="32.77 8.31 959.11 1015.69"><metadata xmlns:fl="https://football-logos.cc/barbados/barbados-national-team">dl1_d172157144962db0db9e92f723ca0242f3acd0566008eac2942b96655745d1d9</metadata><!-- Source: https://football-logos.cc --><path fill="#0f4392" fill-rule="evenodd" d="M831.37 804.38q-6.31-3.6-11.82-8.58 9.67-7.9 18.33-16.92c5.86-6.12 12.53-12.53 17.52-18.47 7.48-8.91 14.74-16.96 21.14-26.12 7.5-10.73 16.73-22.24 23.85-34.02q5.99-9.89 8.87-15.22 9.88-18.23 10.73-19.31.99-1.25 3.22-5.73c3.36-6.73 5.94-13.39 11.21-25.31q.7-1.59 5.23-12.38c3.89-9.29 5.57-16.15 9.71-28.68q2.49-7.53 4.49-16.23 4.97-21.58 9.79-47.39 2.08-11.15 2.72-22.06 2.25-37.74 2.17-50.1-.11-18.09-2.94-46.1-.93-9.18-1.84-13.85c-2.39-12.16-3.83-22.92-6.65-34.32q-4.29-17.34-7.71-29.04-4.31-14.7-9.75-28.46-9.06-22.95-14.36-33.67-8.87-17.96-22.41-40.41c-3.14-5.22-6.73-9.24-9.65-14.46q-.28-.5-1.47-2.02c-2.67-3.42-5.15-7.44-8.73-12.6q-2.7-3.88-7.44-9.52-.8-.96-9.27-11.21-12.97-15.7-30.14-32.87-9.58-9.57-15.19-14.07-6.3-5.05-16.22-13.29c-4.12-3.42-7.97-5.14-11.89-8.83q-4.64-4.35-10.94-8.43-2.26-1.47-10.85-7.49-9.59-6.73-10.84-7.42c-9.59-5.27-18.55-11.35-28.04-16.15-15.14-7.66-27.46-13.94-42.01-19.28q-6.69-2.45-10.83-4.51c-7.42-3.68-15.71-5.85-23.49-8.43-9.72-3.23-19.27-5.14-29.24-8.18-7.65-2.34-14.75-3.34-22.37-5.22q-1.27-.31-14.8-2.66-6.92-1.21-14.86-2.03c-8.28-.85-21.87-2.89-32.86-3.61-14.12-.93-28.63-.75-41.59-.56q-14.92.21-30.5 1.72-25.38 2.48-54.01 7.17c-4.19.69-7.53 2.23-11.28 2.69q-2.7.33-8.36 2.29c-5.35 1.87-11.74 2.98-17.51 4.89-5.85 1.94-13.08 3.23-19.02 5.79-4.14 1.78-13.1 4.3-19.37 7.46q-3.82 1.93-7.7 3.19a10.681 10.362 20.667 0 0-1.82.79q-3.83 2.1-4.67 2.38-7.16 2.45-12.22 5.22-6.79 3.72-10.33 5.13-8.74 3.49-23.31 11.31c-3.32 1.77-5.58 4.02-9.13 5.89-10.56 5.53-20.34 13.5-30.32 19.79q-10.59 6.66-19.46 14.27-5.68 4.87-21.59 19.49-4.21 3.87-9.08 8.74-2.03 2.03-9.01 8.83-7.88 7.68-19.29 20.9-6.18 7.17-9.74 11.82-8.38 10.96-9.29 12.18-6.93 9.31-18.89 28.01c-4.32 6.76-8.12 14.15-12.4 20.97-1.34 2.14-2.08 4-3.17 6.66-1.58 3.87-5.28 8.97-6.52 12.14q-2 5.08-7.44 16.32-2.95 6.08-8.36 19.19c-1.6 3.88-2.36 7.58-3.75 10.83q-1.74 4.08-2.94 8.08c-1.34 4.44-2.75 7.83-3.77 12.26q-.42 1.8-2.9 10.4c-3.41 11.76-6.19 25.68-9.35 40.79q-2.1 10.02-3.3 20.33-.68 5.91-2.88 35.3c-.58 7.64-.35 14.07-.61 21.72q-.29 8.13.34 16.27c.7 9.06 1.08 16.34 1.94 24.81q2.04 19.93 2.04 19.96 1.5 12.97 5.6 26.67 2.13 7.12 2.66 11.11.17 1.25 2.07 11.28c1.15 6.09 3.05 11.29 4.36 17.38q1.16 5.45 2.42 8.97 2.02 5.63 3.56 8.58 2.9 5.58 3.27 6.97 2.22 8.28 5.17 14.19 1.24 2.49 2.16 5.04c1.52 4.26 2.98 8.16 5.54 12.55q2.83 4.83 4.39 8.88c1.83 4.74 5 9.04 7.03 13.77q2.46 5.71 5.35 10.13c2.65 4.05 4.69 8.48 7.92 13.3q6.84 10.2 15.86 24.26c3.97 6.19 9.41 12.35 13.81 19q2.05 3.09 4.95 6.46 8.89 10.33 12.29 14.27c3.9 4.53 7.41 7.49 10.99 11.6q2.63 3.01 7.82 8.04 4.95 4.8 9.36 9.13 4.57 4.49 9.38 8.61l-11.68 8.17q-31.77-29.19-56.51-62.2-4.36-5.82-11.69-16.17c-22.48-31.77-40.54-66.72-54.38-103.27Q65.52 602.42 60.24 582q-2.42-9.32-5.56-23.25-3.15-13.95-4.5-23.48-5.02-35.49-5.53-59.78-.73-34.88 3.26-69.45c1.97-17.12 4.55-28.12 8.9-48.17q1.96-9.01 6.32-23.28 6.1-19.92 10.82-32.64 2.1-5.65 14.27-33.49 1.3-2.96 11.81-22.45 6.91-12.8 12.79-21.91 14.12-21.87 25.52-36.78c22.75-29.76 49.28-55.8 79.12-79.61q4.4-3.51 20.85-15.38 4.54-3.27 15.8-10.58c10.38-6.72 19-11.29 28.94-16.88q5.58-3.13 12.84-6.67 20.35-9.9 27.33-12.74 30.84-12.53 55.73-19.27 87.76-23.76 177.07-15.95 39.07 3.41 81.44 14.6 48.93 12.91 94.23 35.99 9.28 4.73 25.29 14.08 12.81 7.49 24.47 15.45c31.2 21.29 60.32 46.1 85.65 74.39q9.85 11.01 23.52 28.23 5.01 6.31 14.63 20.36c27.5 40.14 47.88 84.69 60.57 131.55q9.89 36.51 13.61 70.88 3.31 30.64 2.39 60.73c-.27 8.61-.87 25.05-2.48 37.52q-3.86 29.93-6.85 43.49-6.25 28.32-13.97 52.33-3.64 11.33-10.5 28.2-15.43 37.95-38.04 72.7c-8.55 13.13-18.86 27.8-28.74 40.07q-22.89 28.41-49.87 53.57" data-source="https://football-logos.cc"></path><path fill="#092a6f" fill-rule="evenodd" d="M819.55 795.8q-6.75-4.06-13.2-8.09-38.95-24.32-81.88-40.68-4.07-1.55-20.28-6.7 2.46-3.29 5.17-4.99c10.38-6.54 18.32-11.78 27.03-19.43q11.25-9.87 14.47-13.05 9.25-9.13 10.16-10.02c12.7-12.33 23.92-26.67 33.27-41.24 2.95-4.59 6.33-7.76 8.89-12.42 3.37-6.15 6.68-11.05 9.97-17.87q2.78-5.78 6.44-12.67c3.23-6.1 4.79-10.77 7.98-17.8 3.28-7.23 6.46-16.76 9.09-24.64 3.18-9.51 4.91-18.76 7.41-28.33q2-7.66 3.59-17.23 7.38-44.38 1.67-89.05-2.06-16.07-6.48-32.7-.03-.13-.14-.19a.081.074 12.46 0 0-.12.07c1.11 7.4.77 13.74 2.07 20.62q1.19 6.31 1.74 21.06.24 6.4-.78 9.38-.19-11.53-.67-17.52-3.23-40.02-15.15-75.42Q804.15 280.7 744.34 223q-3.58-3.45-7.45-6.55c-6.93-5.56-12.58-10.67-19.57-15.81q-23.26-17.11-48.32-30.02c-10.96-5.65-21.94-9.91-34.34-15.44-9.58-4.27-19.94-7.49-28.76-11.34a1.123 1.103 33.185 0 0-1.25.25l-34.88 36.62a.41.404-47.356 0 0 .02.59q18.08 16.47 31.76 37.4 1.97 3.03 7.09 11.74a1.074 1.053 72.896 0 0 .96.52q41.06-1.64 79.98 12.79c3.85 1.42 9.93 3.41 14.71 5.77a.032.032 63.807 0 1-.02.06Q659 241 611.21 243.31a.913.902 9.808 0 0-.79.55l-25.84 59.56a1.308 1.306-46.098 0 0 .02 1.09q2.85 6.14 7.65 15.26 19.04 36.24 32.18 60.95 4.36 8.21 5.34 9.49c4.56 5.98 12.35 10.03 19.32 11.67q13.54 3.2 28.41 4.91 30.57 3.54 33.5 3.77 1.75.14 4.25.15a1.154 1.151 22.226 0 0 .86-.36q3.69-3.85 7.77-8.97 7.16-8.99 10.98-14.23 10.19-13.98 16.01-28.49 2.54-6.34 6.01-15.58c1.96-5.22 2.93-9.31 4.37-13.82a.206.205 56.143 0 1 .4.08q-.55 7.48-.98 12.37-3.44 39.25-27.78 70.16-.47.6-1.14.86a.393.393 54.506 0 0-.11.66c.5.44.92.51 1.32 1.22q4.76 8.42 9.93 18.05 14.17 26.38 31.4 59.61a3.942 3.936 87.55 0 0 1.98 1.82q2.89 1.19 3.73 1.43 10.62 2.97 20.19 5.8c11.1 3.27 20.37 7.52 30.97 11.72a.213.213-32.737 0 1-.09.41q-24.14-.98-51.81-5.25-1.32-.2-4.71-.25a1.67 1.644 26.103 0 0-1.05.35c-15.37 12-25.88 26.45-36.9 44.31q-4.88 7.93-8.08 15.47a5.19 5.172-43.743 0 0-.09 3.79q3.98 10.93 9.11 22.43 4.71 10.58 22.18 51.01a.14.14-75.173 0 1-.24.14q-8.13-11.15-18.68-26.96c-6.03-9.05-8.76-14.89-14.96-26.56-6.66-12.55-17.82-14.37-31.1-14.29q-15.8.09-33.74 3.17-9.78 1.68-14.21 3.09c-4.66 1.48-7.88 2.22-10.06 5.34q-4.06 5.81-14.38 22.72l-2.45 1.19a.54.538 83.619 0 1-.76-.61q.29-1.19-.78-1.75c4.06-11.02 10.58-23.41 7.57-35.2-3.71-14.53-12.7-28.03-22.95-40.41-6.13-7.4-13-14.6-21.18-19.44q-3.24-1.91-5.62-1.96-49.3-1.01-124.91-1.15-4.24-.01-7.3 1.64-8.29 4.47-15.22 11.46c-12.82 12.95-23.27 27.55-29.68 45.07q-3.65 9.97-1.11 19.97 2.36 9.26 6.97 20.28-1.38 2.56-2.41 2.11-1.3-.56-2.6-1.13-5.88-12.06-13.6-22.88-1.75-2.45-3.94-3.28-5.24-2-13.19-3.77-18.84-4.2-38.93-4.52c-13.15-.22-25.18 1.12-32.2 13.69-6.34 11.35-10.52 19.6-16.61 29.24q-7.98 12.62-17.32 25.34a.1.099 75.212 0 1-.17-.1q17.79-41.41 26.9-62.9c1.58-3.72 3.63-9.23 4.41-12.2a2.207 2.146-48.476 0 0-.06-1.29q-.75-2.14-2.22-5.11c-10.06-20.43-23.97-40.12-41.3-55.65a3.288 3.255-25.63 0 0-2.37-.82c-14.92.91-29.53 4.28-44.57 4.8q-7.35.25-11.98.76a.079.078-60.32 0 1-.04-.15c12.28-5.42 22.97-9.55 35.57-13.06q14.37-4.01 16.9-4.87 2.49-.85 4.29-2.24a2.14 2.14-5.514 0 0 .61-.74q6.51-13.32 15.68-31.91c5.02-10.16 10.83-20.58 16.61-31.99q3.4-6.72 7.16-12.56c.72-1.13 2.05-2.04 2.52-2.65a.562.559-53.028 0 0-.11-.8q-1.77-1.3-5.82-7.02c-12.47-17.6-20.18-37.67-22.43-59.15q-1.03-9.83-1.75-15.77a.224.216 81.308 0 1 .17-.24h.01a.207.199-13.636 0 1 .24.14q4.1 13.25 10.27 28.03 8.43 20.16 22.42 37.3 5.35 6.56 12.94 14.67a1.223 1.204-23.245 0 0 1 .39q20.98-1.52 44.68-4.66c12.76-1.7 22.72-3.13 32.6-8.98q6.04-3.58 7.93-7.1c7.1-13.24 13.57-26.18 20.1-38.3q6.83-12.69 7.6-14.36c3.89-8.55 11.22-19.92 15.24-29.18q1.61-3.73-.14-7.85c-7.71-18.21-15.68-35.58-24.93-56.47a.473.463 78.754 0 0-.41-.28c-22.78-1.14-45.65-.57-68.25 2.36-5.09.66-16.07 1.78-24.2 3.69a.138.135-62.769 0 1-.08-.26q22.86-9.9 47.36-14.77c16.16-3.2 31.03-3.68 46.84-3.5a1.117 1.109 13.56 0 0 .99-.6c7.13-13.73 15.6-24.82 26-37.38q5.62-6.78 11.45-11.81a.543.537 42.004 0 0-.05-.85c-1.45-1.02-3.05-2.21-4.34-3.54q-12.15-12.57-29.62-30.49a1.612 1.599-31.208 0 0-1.66-.4q-35.32 11.8-69.31 29.84-33.21 17.63-62.54 43.38c-23.91 20.98-43.41 45.43-60.22 72.08q-3.6 5.7-7.76 13.6-6.37 12.07-7.26 13.89-23.02 46.85-29.46 99.24-.79 6.44-1.66 12.99-.12-8.23.04-16.34.02-1.23-.61-2.06a.246.246-58.972 0 0-.44.11q-2.96 18.68-3.4 23.16-1.12 11.35-1.25 35.37-.09 17.96 1.97 35.31 1.13 9.56 3.75 26.03c1.29 8.13 4.31 16.19 6.17 24.66.78 3.56 2.81 8.79 3.79 11.13 3.33 7.97 4.84 16.42 8.61 24.19 4.4 9.06 6.98 13.68 10.16 21.52 3.5 8.63 9.33 17.1 13.71 24.11q4.01 6.43 6.53 9.85c3.92 5.31 8.09 12.03 11.96 17.09q18.48 24.2 42.5 44.8c2.43 2.09 6.2 4.43 8.22 6.19q9.54 8.32 20.35 15.89.21.15 5.81 3.55 3.22 1.95 5.76 4.67-9.51 2.8-17.55 5.78-29.54 10.91-57.42 25.56-16.92 8.89-39.43 23.76-4.81-4.12-9.38-8.61-4.41-4.33-9.36-9.13-5.19-5.03-7.82-8.04c-3.58-4.11-7.09-7.07-10.99-11.6q-3.4-3.94-12.29-14.27-2.9-3.37-4.95-6.46c-4.4-6.65-9.84-12.81-13.81-19q-9.02-14.06-15.86-24.26c-3.23-4.82-5.27-9.25-7.92-13.3q-2.89-4.42-5.35-10.13c-2.03-4.73-5.2-9.03-7.03-13.77q-1.56-4.05-4.39-8.88c-2.56-4.39-4.02-8.29-5.54-12.55q-.92-2.55-2.16-5.04-2.95-5.91-5.17-14.19-.37-1.39-3.27-6.97-1.54-2.95-3.56-8.58-1.26-3.52-2.42-8.97c-1.31-6.09-3.21-11.29-4.36-17.38q-1.9-10.03-2.07-11.28-.53-3.99-2.66-11.11-4.1-13.7-5.6-26.67 0-.03-2.04-19.96c-.86-8.47-1.24-15.75-1.94-24.81q-.63-8.14-.34-16.27c.26-7.65.03-14.08.61-21.72q2.2-29.39 2.88-35.3 1.2-10.31 3.3-20.33c3.16-15.11 5.94-29.03 9.35-40.79q2.48-8.6 2.9-10.4c1.02-4.43 2.43-7.82 3.77-12.26q1.2-4 2.94-8.08c1.39-3.25 2.15-6.95 3.75-10.83q5.41-13.11 8.36-19.19 5.44-11.24 7.44-16.32c1.24-3.17 4.94-8.27 6.52-12.14 1.09-2.66 1.83-4.52 3.17-6.66 4.28-6.82 8.08-14.21 12.4-20.97q11.96-18.7 18.89-28.01.91-1.22 9.29-12.18 3.56-4.65 9.74-11.82 11.41-13.22 19.29-20.9 6.98-6.8 9.01-8.83 4.87-4.87 9.08-8.74 15.91-14.62 21.59-19.49 8.87-7.61 19.46-14.27c9.98-6.29 19.76-14.26 30.32-19.79 3.55-1.87 5.81-4.12 9.13-5.89q14.57-7.82 23.31-11.31 3.54-1.41 10.33-5.13 5.06-2.77 12.22-5.22.84-.28 4.67-2.38a10.681 10.362 20.667 0 1 1.82-.79q3.88-1.26 7.7-3.19c6.27-3.16 15.23-5.68 19.37-7.46 5.94-2.56 13.17-3.85 19.02-5.79 5.77-1.91 12.16-3.02 17.51-4.89q5.66-1.96 8.36-2.29c3.75-.46 7.09-2 11.28-2.69q28.63-4.69 54.01-7.17 15.58-1.51 30.5-1.72c12.96-.19 27.47-.37 41.59.56 10.99.72 24.58 2.76 32.86 3.61q7.94.82 14.86 2.03 13.53 2.35 14.8 2.66c7.62 1.88 14.72 2.88 22.37 5.22 9.97 3.04 19.52 4.95 29.24 8.18 7.78 2.58 16.07 4.75 23.49 8.43q4.14 2.06 10.83 4.51c14.55 5.34 26.87 11.62 42.01 19.28 9.49 4.8 18.45 10.88 28.04 16.15q1.25.69 10.84 7.42 8.59 6.02 10.85 7.49 6.3 4.08 10.94 8.43c3.92 3.69 7.77 5.41 11.89 8.83q9.92 8.24 16.22 13.29 5.61 4.5 15.19 14.07 17.17 17.17 30.14 32.87 8.47 10.25 9.27 11.21 4.74 5.64 7.44 9.52c3.58 5.16 6.06 9.18 8.73 12.6q1.19 1.52 1.47 2.02c2.92 5.22 6.51 9.24 9.65 14.46q13.54 22.45 22.41 40.41 5.3 10.72 14.36 33.67 5.44 13.76 9.75 28.46 3.42 11.7 7.71 29.04c2.82 11.4 4.26 22.16 6.65 34.32q.91 4.67 1.84 13.85 2.83 28.01 2.94 46.1.08 12.36-2.17 50.1-.64 10.91-2.72 22.06-4.82 25.81-9.79 47.39-2 8.7-4.49 16.23c-4.14 12.53-5.82 19.39-9.71 28.68q-4.53 10.79-5.23 12.38c-5.27 11.92-7.85 18.58-11.21 25.31q-2.23 4.48-3.22 5.73-.85 1.08-10.73 19.31-2.88 5.33-8.87 15.22c-7.12 11.78-16.35 23.29-23.85 34.02-6.4 9.16-13.66 17.21-21.14 26.12-4.99 5.94-11.66 12.35-17.52 18.47q-8.66 9.02-18.33 16.92M502.12 70.95q2.8-1.7 3.15-1.93 8.93-5.94 7.03-17.02c-1.72-10.03-12.89-13.88-21.93-13.74q-10.58.16-20.26 2.49a.92.92-8.346 0 0-.7.94l3.67 68.39a.573.573.552 0 0 .54.55q11.44.63 22.35-1.19c6.78-1.14 16.5-4.64 19.2-10.93q6.67-15.55-6.44-24.7-2.92-2.04-6.5-2.39a.254.254 31.916 0 1-.11-.47m29.785 36.738a.458.446-73.025 0 0 .472-.259l9.333-20.291a.723.72-75.138 0 1 .714-.417l23.159 2.134a1.28 1.28-3.672 0 1 1.133.996l4.783 22.048a.48.467 85.688 0 0 .417.369l9.699.818a.14.14 86.909 0 0 .151-.169L565.789 40.81a1.014 1.007 86.714 0 0-.882-.792l-10.387-1.165a.445.433-72.794 0 0-.455.248l-31.48 67.037a.251.242 17.259 0 0 .192.35zm-85.138 6.967a.39.39 69.959 0 0 .308-.458l-11.92-60.464a.39.39 26.194 0 1 .308-.458l19.975-3.94a.39.39-85.287 0 0 .307-.457l-1.5-7.625a.39.39 66.039 0 0-.458-.308l-50.865 10.03a.39.39-1.79 0 0-.307.457l1.44 7.345a.39.39 62.458 0 0 .458.308l20.384-4.01a.39.39 24.77 0 1 .458.308l11.96 60.734a.39.39 71.425 0 0 .458.308zm181.198 11.586 2.012-7.194a.522.512-74.421 0 0-.353-.638l-27.803-7.557a.826.82 15.26 0 1-.585-1.016l16.51-59.009a.352.343 15.577 0 0-.248-.428l-9.03-2.467a.3.3 22.679 0 0-.371.212l-18.766 66.926a.716.706-74.571 0 0 .489.875l37.698 10.547a.369.359 14.985 0 0 .447-.251m-238.221 5.526c19.465-7.491 24.183-27.741 17.223-45.825s-24.037-29.946-43.502-22.455c-19.464 7.491-24.182 27.742-17.222 45.826s24.037 29.946 43.501 22.454m246.113-2.731a.37.37 35.556 0 0 .207.481l36.452 14.476a.37.37-65.312 0 0 .481-.207l2.756-6.932a.37.37 71.742 0 0-.207-.481l-27.142-10.776a.37.37 55.074 0 1-.207-.481l22.686-57.092a.37.37 80 0 0-.207-.481l-8.622-3.426a.37.37-65.242 0 0-.481.207zM289.625 97.075c-18.144 10.487-19.652 31.325-9.908 48.182 9.743 16.857 28.552 25.953 46.696 15.466s19.651-31.325 9.908-48.183c-9.744-16.857-28.552-25.952-46.696-15.465m-18.205 59.282a.34.34-67.049 0 0 .063-.477l-4.486-5.85a.34.34 53.471 0 0-.477-.063l-20.245 15.53a.34.34-2.033 0 1-.473-.058l-14.103-17.714a.34.34 2.648 0 1 .064-.485l22.794-16.88a.34.34 84.02 0 0 .064-.485l-4.903-6.154a.34.34 45.935 0 0-.473-.058l-30.39 23.316a.34.34-45.345 0 0-.059.482l44.31 55.672a.34.34 49.301 0 0 .468.062l7.383-5.456a.34.34 36.82 0 0 .064-.485l-19.845-24.933a.34.34 79.867 0 1 .059-.482zm148.24-11.447a.274.267-36.284 0 0-.08.48q20.88 14.07 41.64 31.79a1.316 1.313-24.517 0 0 .86.32l95.08.65a4.147 4.119 24.34 0 0 2.76-1.03q20.66-18.11 43.31-33.63a.329.328-55.603 0 0-.11-.59c-5.66-1.36-11.36-3.3-16.99-4.67-54.6-13.31-113.25-10.07-166.47 6.68m363.53-14.606a.4.4-4.346 0 0-.458-.026l-63.168 39.231a.4.4 64.699 0 0-.036.654l7.152 5.643a.4.4-44.447 0 0 .458.026l19.224-11.924a.4.4 86.275 0 1 .458.026l18.911 14.925a.4.4-14.245 0 1 .127.454l-8.186 21.894a.4.4 77.047 0 0 .127.454l7.43 5.869a.4.4-34.068 0 0 .623-.174l26.086-69.793a.4.4-18.739 0 0-.127-.454zm-6.59 73.986-7.27 3.23a.663.659 68.032 0 0-.35.83c3.17 9.02 7.94 17.07 16.03 22.4 7.76 5.11 19.39 4.65 25.87-2.16q5.1-5.37 5.15-11.6.06-6.52-.79-8.99c-2.75-7.94-5.26-12.93-4.49-18.49.61-4.41 4.21-7.51 8.76-7.83q6.64-.48 11.47 5.65 4.64 5.89 5.31 10.17a.948.947-16.366 0 0 1.32.72l5.85-2.6a1.832 1.823-28.079 0 0 .81-2.64q-.92-1.47-2.59-4.65-4.2-8.02-11.95-12.76c-5.4-3.31-13.25-4.16-19.12-1.19-8.52 4.3-11.21 13.49-8.73 22.49q1.2 4.37 3.21 10.24 1.61 4.74 1.46 7.03c-.46 6.58-5.27 11.38-12.02 10.76-9.5-.88-15.75-12.07-17.4-20.34a.384.384 71.956 0 0-.53-.27m-205.54 100 28.34-65.33a1.398 1.386 40.124 0 0-.12-1.34q-3.62-5.33-8.73-14.12-2.01-3.46-4.39-6.66c-4.67-6.26-7.01-9.93-12.34-15.89q-10-11.21-11.61-12.9a3.665 3.629 67.584 0 0-2.68-1.13q-13.49.18-22.03-.09-37.89-1.2-75.76-.98-1.82.01-3.35 2.02-2.3 3.02-4.14 5.72a4.462 4.231-5.605 0 1-.65.75q-4.34 3.93-10.92 13.33-10.58 15.1-19.37 29.92a2.733 2.728 48.491 0 0-.15 2.5L450.69 302a2.24 2.24-79.391 0 0 2.1 1.32c36.16-1.01 73.36 1.28 109.73 1.36 2.28.01 5.12.5 7.47.36a1.258 1.24 9.551 0 0 1.07-.75m239.66-63.11-7.64 3a.335.33-15.841 0 0-.21.37c1.96 11.19 8.86 23.37 19.73 27.64 12.27 4.81 25.35-2.53 26.66-15.49.58-5.68-2.13-15.08-3.04-19.41-1.33-6.38 1.57-11.79 7.84-13.27 4.85-1.15 9.95 2.32 12.58 6.31q3.98 6.04 5.11 12.43a.272.263-15.598 0 0 .37.2l7.37-2.89a.37.363-17.894 0 0 .22-.42c-2.42-10.57-9.5-22.11-20.71-24.58-15.33-3.38-25.28 9.27-21.9 23.69 1.74 7.42 5.08 16.32-.4 21.9-5.63 5.73-14.6 3.54-18.94-2.5q-5.73-7.97-6.81-16.85a.166.16-14.51 0 0-.23-.13m-650.56-26.05q-7.77 5.77-12.19 13.82c-4.5 8.18-5.22 19.33 2.57 26.04q11.24 9.66 24.22 1.45c4.29-2.71 9.59-8.06 15.05-9.89 9.5-3.19 18.21 5.95 14.41 15.12q-4.1 9.9-14.4 16.36a.244.239 53.269 0 0-.05.37l5.85 6.12a.291.29-42.062 0 0 .4.02q6.45-5.33 7.68-6.57c5.61-5.71 10.69-14.74 10.31-22.92-.62-13.4-13.32-22.21-26.1-18.5q-2.65.77-8.04 4.42c-2.51 1.71-8.31 7.23-13.25 8.69-4.31 1.28-9.73-.68-12-4.65-5.1-8.94 4.39-18.59 11.19-23.8a.251.249-40.59 0 0 .03-.37l-5.43-5.68a.203.189 49.785 0 0-.25-.03m704.968 54.032q-5.073 1.751-9.62 4.537c-13.618 8.343-20.062 23.777-14.676 39.371 5.385 15.595 19.98 23.763 35.844 21.925q5.297-.614 10.369-2.366 5.073-1.752 9.62-4.537c13.618-8.343 20.062-23.777 14.676-39.372-5.385-15.594-19.98-23.763-35.844-21.924q-5.297.614-10.369 2.366m-682.756 55.505c9.291-19.041-1.214-37.366-18.905-45.998-17.691-8.633-38.6-5.637-47.891 13.404-9.292 19.042 1.213 37.367 18.904 46 17.691 8.632 38.6 5.636 47.892-13.406M616.31 426.27c3.11-5.53 4.89-13.49 3.99-19.29q-.7-4.53-4.09-11.66-11.96-25.15-21.35-43.03-1.64-3.11-9.38-16.83-10.93-19.37-33.16-20.59-22.21-1.22-32.56-1.31-18.64-.16-48.52.61c-16.1.42-27.29 9.12-34.77 22.8q-15.85 28.96-30.58 60.66c-2.5 5.37-4.42 11.77-3.07 17.32 1.32 5.42 2.74 9.45 5.48 14.8q24.43 47.67 25 48.7.12.22 6.01 10.06c7.68 12.81 18.43 14.43 32.45 14.78 17.62.43 37.18.71 58.32.03q12.1-.38 33.93-.31c11.64.04 16.91-8.73 21.84-17.65q8.82-15.94 9.4-17.1c1.92-3.86 3.18-7.26 5.36-11.06q2.37-4.12 4.94-9.83c2.2-4.85 5.44-10.12 7.12-14.25q.58-1.42 3.64-6.85m323.89-39.71c1.7-15.57-3.64-33.3-17.79-41.38-15.95-9.11-39.81-4.11-50.29 11.14q-9.06 13.18-5.29 28.62 2.87 11.72 8.01 19.5a.538.536 53.52 0 0 .79.12q2.77-2.25 6.17-3.49a.4.398-27.331 0 0 .19-.59c-6.94-10.55-11.39-27.12-1.92-37.89 11.08-12.6 33.1-17.4 44.96-3.04q7.89 9.53 6.52 26.9a.322.321-87.541 0 0 .32.35l8.01.05a.323.322-87.031 0 0 .32-.29m-786.38 27.97c5.06-12.66 8.55-27.72 5.54-40.93-4.83-21.24-34.78-31.64-52.68-22.45-17.54 9.01-19.04 30.71-21.49 48.02a.543.536 10.424 0 0 .42.6l68.07 14.84a.129.123-73.155 0 0 .14-.08m789.648-12.45a.27.27 0 0 0-.305-.229l-70.789 10.201a.27.27 0 0 0-.229.306l1.367 9.482a.27.27 0 0 0 .305.229l70.789-10.201a.27.27 0 0 0 .229-.306zm-306.578 9.77q-10.98 22.22-23.35 45.46-.54 1.01-1.07 2.05-.76 1.5-4.71 9.89c-5.15 10.94-10.83 22.01-16.64 31.92a2.054 2.05-52.958 0 0 .35 2.52c20.42 19.64 37.21 42.47 48.02 68.53a.713.707-16.48 0 0 .78.42c4.28-.78 7.92-1.91 12.06-2.58q31.38-5.1 61.11-3.59a2.114 2.109-74.008 0 0 1.96-1.09c10.66-19.59 22.55-37.58 37.88-54.61q4.49-4.99 9.64-9.58a1.359 1.352 51.457 0 0 .2-1.81q-1.33-1.84-2.48-4c-9.06-17.08-18.92-36.5-28.75-55.03q-4.1-7.74-8.97-17.95a1.33 1.313 89.197 0 0-.66-.65q-1.69-.75-4.88-1.13-33.74-4.05-46.68-5.33-6.43-.64-13.62-1.63c-6.35-.88-12.84-.96-18.64-2.51a1.341 1.334-69.154 0 0-1.55.7m-252.09.28c-2.73-.06-5.33.64-7.91.99q-3.35.46-12.14 1.23c-19.87 1.74-34.12 3.41-48.57 4.88q-4.17.43-14.78 2.08a1.585 1.572 8.527 0 0-1.16.85l-39.12 77.62a1.464 1.461 35.177 0 0 .3 1.72q13.05 12.45 23.12 26.46 13.42 18.7 23.5 37.44a1.283 1.273 74.559 0 0 1.17.67q24.51-.95 49.42 2.1 8.18 1 16.7 3.03a6.16 6.041-37.427 0 0 1.3.16q3.26.05 5.75 1.08a1.152 1.146 26.163 0 0 1.42-.48c2.26-3.77 3.71-8.37 6.08-12.83q7.34-13.84 17.6-28.08c7.62-10.56 15.99-19.15 24.63-28.09a1.055 1.051 51.798 0 0 .15-1.28c-4.5-7.64-8.67-15.12-12.38-22.71-4.95-10.13-13.47-25.41-21.07-41.38-2.63-5.53-5.49-10.67-8.43-16.78q-1.3-2.71-4.06-7.75a1.77 1.763 76.353 0 0-1.52-.93M79.212 453.914a.3.3 14.717 0 0 .189.296l70.052 27.826a.3.3 57.569 0 0 .411-.261l.514-9.019a.3.3-60.666 0 0-.189-.296l-21.458-8.53a.3.3 49.403 0 1-.188-.296l1.445-24.852a.3.3-62.349 0 1 .216-.271l22.66-6.509a.3.3 67.175 0 0 .218-.286l.065-9.545a.3.3-89.047 0 0-.382-.29l-72.71 20.85a.3.3-13.861 0 0-.217.272zm799.83 26.483a.39.39-17.473 0 0-.247.384l.506 9.409a.39.39-27.019 0 0 .532.342l69.575-27.349a.39.39 6.282 0 0 .247-.384l-.57-10.683a.39.39-8.427 0 0-.28-.354l-71.98-21.164a.39.39-.182 0 0-.5.378l.082 8.715a.39.39-45.687 0 0 .28.371l22.068 6.49a.39.39 84.558 0 1 .28.353l1.33 24.824a.39.39-68.686 0 1-.247.384zm59.993 29.045a.31.31 45.909 0 1-.343.273l-61.406-6.899a.31.31-89.774 0 0-.343.281l-.797 9.312a.31.31 87.384 0 0 .274.335l61.11 6.862a.31.31-48.44 0 1 .274.335l-1.908 22.208a.31.31 5.648 0 0 .274.335l7.782.881a.31.31-4.225 0 0 .343-.273l6.05-53.814a.31.31 85.192 0 0-.273-.343l-8.314-.94a.31.31 12.172 0 0-.343.273zM114.38 504.96c-4.71-7.32-12.95-10.79-20.97-7.9-6.96 2.51-10.72 10.07-11.02 17.3-.38 9.23 1.68 16.43 3.93 26.78a.347.329-9.107 0 0 .38.26l70.01-10.2a.608.603 85.575 0 0 .51-.6c.06-15.86-3.25-44.4-26.31-41.69-8.38.98-14.63 7.71-15.97 15.94a.307.304 33.599 0 1-.56.11m825.03 53.445a.42.42 0 0 0-.302-.512l-68.002-17.586a.42.42 0 0 0-.512.301l-2.304 8.907a.42.42 0 0 0 .302.512l68.002 17.586a.42.42 0 0 0 .512-.301zM159.4 541.4q-7.18 5.1-17.24 11.13c-4.4 2.63-9.9 7.45-10.24 12.88a.348.347 27.855 0 1-.62.19c-6.78-8.5-19.06-9.56-27.21-2.77-9.05 7.54-7.94 18.27-4.26 28.34q2.16 5.91 5.97 16a.339.333 71.548 0 0 .41.21l67.92-20.8a.42.42 64.146 0 0 .28-.52l-2.57-8.39a.63.63-10.487 0 0-.79-.41l-28.64 8.77a.639.636-17.99 0 1-.79-.4c-2.78-8.17-5.88-15.4.51-21.24q2.5-2.28 3.44-2.84c7.26-4.26 12.59-7.32 16.97-10.36a1.16 1.152-25.821 0 0 .45-1.28l-2.49-8.13a.72.717 63.972 0 0-1.1-.38m694.875 45.943c-8.229 19.377 3.147 37.014 21.15 44.66s38.595 3.586 46.825-15.791c8.229-19.378-3.147-37.015-21.15-44.661-18.004-7.646-38.595-3.586-46.825 15.792m-653.833 52.701a.32.32.115 0 0-.341-.2l-24.103 3.244a.32.32-71.705 0 1-.335-.187l-10.201-22.925a.32.32-85.248 0 1 .071-.362l16.669-15.914a.32.32 50.12 0 0 .051-.401l-5.11-8.226a.32.32-72.037 0 0-.498-.058l-52.79 52.79a.32.32-37.335 0 0-.066.356l4.664 10.48a.32.32.874 0 0 .335.187l74.658-10.044a.32.32-20.341 0 0 .255-.434zM880.58 662.82l-65.46.59a.594.586 14.999 0 0-.51.29l-5.49 8.89a.647.644-57.948 0 0 .2.88l57.92 36.63a1.529 1.518 31.73 0 0 2.11-.49l3.5-5.67a1.648 1.64-58.347 0 0-.53-2.26l-47.14-29.07a.115.113-29.636 0 1 .06-.21l65.8-.59a.65.642-74.073 0 0 .55-.31l5.28-8.56a.82.82-55.562 0 0-.27-1.13L838 625.68a.48.48 55.163 0 0-.66.16l-4.36 7.08a.4.4-40.344 0 0 .13.55l47.49 29.28a.038.037-29.493 0 1-.02.07m-694.55 23.7q-7.6-4.59-15.29-2.19-5.66 1.77-9.15 7.53c-3.79 6.24-1.96 15.12 1.67 21.13q3.8 6.27 7.72 10.54 7.1 7.72 7.97 8.8a.679.675-38.104 0 0 .93.11l57.28-42.4a.833.829-34.418 0 0 .21-1.11q-5.8-9.12-12.32-16.73-6.53-7.61-12.97-10.1c-10.39-4-22.95.97-25.69 12.35q-1.31 5.45.29 11.59a.437.435 8.458 0 1-.65.48"></path><path fill="#feef28" fill-rule="evenodd" d="M502.12 70.95a.254.254 31.916 0 0 .11.47q3.58.35 6.5 2.39 13.11 9.15 6.44 24.7c-2.7 6.29-12.42 9.79-19.2 10.93q-10.91 1.82-22.35 1.19a.573.573.552 0 1-.54-.55l-3.67-68.39a.92.92-8.346 0 1 .7-.94q9.68-2.33 20.26-2.49c9.04-.14 20.21 3.71 21.93 13.74q1.9 11.08-7.03 17.02-.35.23-3.15 1.93m-22.817-23.258 1.194 20.104a1.43 1.43-76.589 0 0 1.513 1.343l7.497-.446a14.12 10.75-3.4 0 0 13.457-11.568l-.089-1.497a14.12 10.75-3.4 0 0-14.732-9.894l-7.497.445a1.43 1.43 23.984 0 0-1.343 1.513m1.891 29.373 1.326 25.305a.57.57 62.923 0 0 .599.539l9.487-.497a15.05 12.19-3 0 0 14.392-12.961l-.11-2.097a15.05 12.19-3 0 0-15.668-11.386l-9.487.498a.57.57-82.859 0 0-.539.599M531.905 107.688l-9.128-1.2a.251.242 17.259 0 1-.192-.35l31.48-67.037a.445.433-72.794 0 1 .455-.248l10.387 1.165a1.014 1.007 86.714 0 1 .882.792l15.977 72.107a.14.14 86.909 0 1-.151.169l-9.699-.818a.48.467 85.688 0 1-.417-.369l-4.783-22.048a1.28 1.28-3.672 0 0-1.133-.996l-23.159-2.134a.723.72-75.138 0 0-.714.417l-9.333 20.291a.458.446-73.025 0 1-.472.259m26.701-58.647q-.273-.029-1.114 2.508-.508 1.539-.987 2.588-11.087 24.366-11.147 24.515a.318.314 16.094 0 0 .248.44q6.805.906 9.681 1.212 2.878.307 9.722.855a.318.314-3.935 0 0 .334-.379q-.027-.158-5.733-26.312-.248-1.127-.421-2.738-.287-2.657-.583-2.689M446.767 114.655l-8.994 1.77a.39.39-66.338 0 1-.458-.308l-11.96-60.734a.39.39-23.446 0 0-.458-.308l-20.384 4.01a.39.39-64.569 0 1-.458-.308l-1.44-7.345a.39.39 19.408 0 1 .307-.457l50.865-10.03a.39.39-65.309 0 1 .458.308l1.5 7.625a.39.39-63.242 0 1-.307.457l-19.975 3.94a.39.39 5.38 0 0-.308.458l11.92 60.464a.39.39 36.678 0 1-.308.458"></path><path fill="#092a6f" fill-rule="evenodd" d="M479.303 47.692a1.43 1.43 38.063 0 1 1.343-1.513l7.497-.445a14.12 10.75-3.4 0 1 14.732 9.894l.089 1.497a14.12 10.75-3.4 0 1-13.457 11.568l-7.497.446a1.43 1.43 54.201 0 1-1.513-1.343z"></path><path fill="#feef28" fill-rule="evenodd" d="M627.965 126.241a.369.359 14.985 0 1-.447.251l-37.698-10.547a.716.706-74.571 0 1-.489-.875l18.766-66.926a.3.3 52.87 0 1 .371-.212l9.03 2.467a.352.343 15.577 0 1 .248.428l-16.51 59.009a.826.82 15.26 0 0 .585 1.016l27.803 7.557a.522.512-74.421 0 1 .353.638z"></path><path fill="#092a6f" fill-rule="evenodd" d="M558.606 49.041q.296.032.583 2.689.173 1.611.421 2.738 5.706 26.154 5.733 26.312a.318.314-3.935 0 1-.334.379q-6.844-.548-9.722-.855-2.876-.306-9.681-1.212a.318.314 16.094 0 1-.248-.44q.06-.149 11.147-24.515.479-1.049.987-2.588.841-2.537 1.114-2.508"></path><path fill="#feef28" fill-rule="evenodd" d="M389.744 131.767c-19.464 7.492-36.541-4.37-43.501-22.454s-2.242-38.335 17.222-45.826 36.542 4.37 43.502 22.455 2.242 38.334-17.223 45.825m-24.422-60.421a28.65 22.37-113.4 0 0-9.152 35.178 28.65 22.37-113.4 0 0 31.908 17.41 28.65 22.37-113.4 0 0 9.152-35.178 28.65 22.37-113.4 0 0-31.908-17.41M635.857 129.036l25.716-64.712a.37.37-37.26 0 1 .481-.207l8.622 3.426a.37.37-31.366 0 1 .207.481l-22.686 57.092a.37.37-10.516 0 0 .207.481l27.142 10.776a.37.37 74.802 0 1 .207.481l-2.756 6.932a.37.37-29.373 0 1-.481.207l-36.452-14.476a.37.37 56.349 0 1-.207-.481"></path><path fill="#092a6f" fill-rule="evenodd" d="M365.322 71.346a28.65 22.37-113.4 0 1 31.908 17.41 28.65 22.37-113.4 0 1-9.152 35.178 28.65 22.37-113.4 0 1-31.908-17.41 28.65 22.37-113.4 0 1 9.152-35.178M481.194 77.065a.57.57-58.78 0 1 .539-.599l9.487-.498a15.05 12.19-3 0 1 15.668 11.386l.11 2.097a15.05 12.19-3 0 1-14.392 12.961l-9.487.497a.57.57-62.318 0 1-.599-.539z"></path><path fill="#feef28" fill-rule="evenodd" d="M336.321 112.54c9.743 16.858 8.236 37.696-9.908 48.183s-36.953 1.391-46.696-15.466c-9.744-16.857-8.236-37.695 9.908-48.182s36.952-1.392 46.696 15.465m-43.559-8.241a28.93 22.46-121.9 0 0-3.78 36.43 28.93 22.46-121.9 0 0 34.356 12.692 28.93 22.46-121.9 0 0 3.78-36.43 28.93 22.46-121.9 0 0-34.356-12.692"></path><path fill="#092a6f" fill-rule="evenodd" d="M292.762 104.299a28.93 22.46-121.9 0 1 34.356 12.692 28.93 22.46-121.9 0 1-3.78 36.43 28.93 22.46-121.9 0 1-34.356-12.692 28.93 22.46-121.9 0 1 3.78-36.43"></path><path fill="#feef28" fill-rule="evenodd" d="m271.42 156.357-20.185 15.482a.34.34 38.423 0 0-.059.482l19.845 24.933a.34.34 72.804 0 1-.064.485l-7.383 5.456a.34.34 86.868 0 1-.468-.062l-44.31-55.672a.34.34-1.043 0 1 .059-.482l30.39-23.316a.34.34 88.751 0 1 .473.058l4.903 6.154a.34.34 84.036 0 1-.064.485l-22.794 16.88a.34.34-35.831 0 0-.064.485l14.103 17.714a.34.34-40.781 0 0 .473.058l20.245-15.53a.34.34 88.398 0 1 .477.063l4.486 5.85a.34.34-71.784 0 1-.063.477M419.66 144.91c53.22-16.75 111.87-19.99 166.47-6.68 5.63 1.37 11.33 3.31 16.99 4.67a.329.328-55.603 0 1 .11.59q-22.65 15.52-43.31 33.63a4.147 4.119 24.34 0 1-2.76 1.03l-95.08-.65a1.316 1.313-24.517 0 1-.86-.32q-20.76-17.72-41.64-31.79a.274.267-36.284 0 1 .08-.48M783.19 130.304l8.621 6.805a.4.4-30.406 0 1 .127.454l-26.086 69.793a.4.4-19.141 0 1-.623.174l-7.43-5.869a.4.4 83.251 0 1-.127-.454l8.186-21.894a.4.4-12.579 0 0-.127-.454l-18.911-14.925a.4.4 43.724 0 0-.458-.026l-19.224 11.924a.4.4-6.652 0 1-.458-.026l-7.152-5.643a.4.4 75.293 0 1 .036-.654l63.168-39.231a.4.4.582 0 1 .458.026m-2.65 11.686a.101.101-6.264 0 0-.15-.12l-26.72 17.21a.334.329 47.567 0 0-.02.54l15.11 11.93a.53.523-60.268 0 0 .82-.23z"></path><path fill="#092a6f" fill-rule="evenodd" d="m780.54 141.99-10.96 29.33a.53.523-60.268 0 1-.82.23l-15.11-11.93a.334.329 47.567 0 1 .02-.54l26.72-17.21a.101.101-6.264 0 1 .15.12"></path><path fill="#feef28" fill-rule="evenodd" d="M845.62 449.83q.77 66.21-23.76 127.07c-4.36 10.82-9.11 19.62-14.93 30.77-6.61 12.69-15.43 25.59-22.65 35.95q-2.39 3.44-4.26 5.61c-4.12 4.78-6.91 9.18-11.05 13.66q-.38.41-6.98 8.08c-5.32 6.18-10.74 11-16.59 16.95q-3.65 3.71-9.61 8.82-18.06 15.5-37.23 28.06-6.72 4.4-13.8 8.34a2.779 2.776-51.37 0 1-2.14.24q-15.21-4.43-30.41-7.35-31.35-6.29-64.08-8.98 3.71-9.61 5.63-13.82 3.84-8.4 9.57-21.4 3.05-6.88 15.48-29.06 14.65-26.15 33.97-50.3a.189.188 12.793 0 0-.19-.3q-15.22 3.13-30.24 9.79 10.32-16.91 14.38-22.72c2.18-3.12 5.4-3.86 10.06-5.34q4.43-1.41 14.21-3.09 17.94-3.08 33.74-3.17c13.28-.08 24.44 1.74 31.1 14.29 6.2 11.67 8.93 17.51 14.96 26.56q10.55 15.81 18.68 26.96a.14.14-75.173 0 0 .24-.14q-17.47-40.43-22.18-51.01-5.13-11.5-9.11-22.43a5.19 5.172-43.743 0 1 .09-3.79q3.2-7.54 8.08-15.47c11.02-17.86 21.53-32.31 36.9-44.31a1.67 1.644 26.103 0 1 1.05-.35q3.39.05 4.71.25 27.67 4.27 51.81 5.25a.213.213-32.737 0 0 .09-.41c-10.6-4.2-19.87-8.45-30.97-11.72q-9.57-2.83-20.19-5.8-.84-.24-3.73-1.43a3.942 3.936 87.55 0 1-1.98-1.82q-17.23-33.23-31.4-59.61-5.17-9.63-9.93-18.05c-.4-.71-.82-.78-1.32-1.22a.393.393 54.506 0 1 .11-.66q.67-.26 1.14-.86 24.34-30.91 27.78-70.16.43-4.89.98-12.37a.206.205 56.143 0 0-.4-.08c-1.44 4.51-2.41 8.6-4.37 13.82q-3.47 9.24-6.01 15.58-5.82 14.51-16.01 28.49-3.82 5.24-10.98 14.23-4.08 5.12-7.77 8.97a1.154 1.151 22.226 0 1-.86.36q-2.5-.01-4.25-.15-2.93-.23-33.5-3.77-14.87-1.71-28.41-4.91c-6.97-1.64-14.76-5.69-19.32-11.67q-.98-1.28-5.34-9.49-13.14-24.71-32.18-60.95-4.8-9.12-7.65-15.26a1.308 1.306-46.098 0 1-.02-1.09l25.84-59.56a.913.902 9.808 0 1 .79-.55q47.79-2.31 93.06 6.27a.032.032 63.807 0 0 .02-.06c-4.78-2.36-10.86-4.35-14.71-5.77q-38.92-14.43-79.98-12.79a1.074 1.053 72.896 0 1-.96-.52q-5.12-8.71-7.09-11.74-13.68-20.93-31.76-37.4a.41.404-47.356 0 1-.02-.59l34.88-36.62a1.123 1.103 33.185 0 1 1.25-.25c8.82 3.85 19.18 7.07 28.76 11.34 12.4 5.53 23.38 9.79 34.34 15.44q25.06 12.91 48.32 30.02c6.99 5.14 12.64 10.25 19.57 15.81q3.87 3.1 7.45 6.55 59.81 57.7 85.46 133.89 11.92 35.4 15.15 75.42.48 5.99.67 17.52M399.92 612.03q-14.05-6.4-29.24-9.73a.238.238-12.764 0 0-.24.38q14.03 17.64 25.98 36.93 14.55 23.48 25.36 47.51 2.38 5.31 7.31 16.29 2.02 4.49 5.39 14.03c-29.8 2.56-58.32 7.05-86.25 14.69l-4.44 1.1a2.652 2.649-37.629 0 1-1.94-.25c-56.48-31.26-102.12-78.58-131.59-135.9-26.18-50.91-36.85-108.9-32.35-166.07q.87-6.55 1.66-12.99 6.44-52.39 29.46-99.24.89-1.82 7.26-13.89 4.16-7.9 7.76-13.6c16.81-26.65 36.31-51.1 60.22-72.08q29.33-25.75 62.54-43.38 33.99-18.04 69.31-29.84a1.612 1.599-31.208 0 1 1.66.4q17.47 17.92 29.62 30.49c1.29 1.33 2.89 2.52 4.34 3.54a.543.537 42.004 0 1 .05.85q-5.83 5.03-11.45 11.81c-10.4 12.56-18.87 23.65-26 37.38a1.117 1.109 13.56 0 1-.99.6c-15.81-.18-30.68.3-46.84 3.5q-24.5 4.87-47.36 14.77a.138.135-62.769 0 0 .08.26c8.13-1.91 19.11-3.03 24.2-3.69 22.6-2.93 45.47-3.5 68.25-2.36a.473.463 78.754 0 1 .41.28c9.25 20.89 17.22 38.26 24.93 56.47q1.75 4.12.14 7.85c-4.02 9.26-11.35 20.63-15.24 29.18q-.77 1.67-7.6 14.36c-6.53 12.12-13 25.06-20.1 38.3q-1.89 3.52-7.93 7.1c-9.88 5.85-19.84 7.28-32.6 8.98q-23.7 3.14-44.68 4.66a1.223 1.204-23.245 0 1-1-.39q-7.59-8.11-12.94-14.67-13.99-17.14-22.42-37.3-6.17-14.78-10.27-28.03a.207.199-13.636 0 0-.24-.14h-.01a.224.216 81.308 0 0-.17.24q.72 5.94 1.75 15.77c2.25 21.48 9.96 41.55 22.43 59.15q4.05 5.72 5.82 7.02a.562.559-53.028 0 1 .11.8c-.47.61-1.8 1.52-2.52 2.65q-3.76 5.84-7.16 12.56c-5.78 11.41-11.59 21.83-16.61 31.99q-9.17 18.59-15.68 31.91a2.14 2.14-5.514 0 1-.61.74q-1.8 1.39-4.29 2.24-2.53.86-16.9 4.87c-12.6 3.51-23.29 7.64-35.57 13.06a.079.078-60.32 0 0 .04.15q4.63-.51 11.98-.76c15.04-.52 29.65-3.89 44.57-4.8a3.288 3.255-25.63 0 1 2.37.82c17.33 15.53 31.24 35.22 41.3 55.65q1.47 2.97 2.22 5.11a2.207 2.146-48.476 0 1 .06 1.29c-.78 2.97-2.83 8.48-4.41 12.2q-9.11 21.49-26.9 62.9a.1.099 75.212 0 0 .17.1q9.34-12.72 17.32-25.34c6.09-9.64 10.27-17.89 16.61-29.24 7.02-12.57 19.05-13.91 32.2-13.69q20.09.32 38.93 4.52 7.95 1.77 13.19 3.77 2.19.83 3.94 3.28 7.72 10.82 13.6 22.88M776.6 204.29a.384.384 71.956 0 1 .53.27c1.65 8.27 7.9 19.46 17.4 20.34 6.75.62 11.56-4.18 12.02-10.76q.15-2.29-1.46-7.03-2.01-5.87-3.21-10.24c-2.48-9 .21-18.19 8.73-22.49 5.87-2.97 13.72-2.12 19.12 1.19q7.75 4.74 11.95 12.76 1.67 3.18 2.59 4.65a1.832 1.823-28.079 0 1-.81 2.64l-5.85 2.6a.948.947-16.366 0 1-1.32-.72q-.67-4.28-5.31-10.17-4.83-6.13-11.47-5.65c-4.55.32-8.15 3.42-8.76 7.83-.77 5.56 1.74 10.55 4.49 18.49q.85 2.47.79 8.99-.05 6.23-5.15 11.6c-6.48 6.81-18.11 7.27-25.87 2.16-8.09-5.33-12.86-13.38-16.03-22.4a.663.659 68.032 0 1 .35-.83z"></path><path fill="#0f4da3" fill-rule="evenodd" d="M569.99 305.04c-2.35.14-5.19-.35-7.47-.36-36.37-.08-73.57-2.37-109.73-1.36a2.24 2.24-64.538 0 1-2.1-1.32l-27.53-61.91a2.733 2.728 48.491 0 1 .15-2.5q8.79-14.82 19.37-29.92 6.58-9.4 10.92-13.33a4.462 4.231-5.605 0 0 .65-.75q1.84-2.7 4.14-5.72 1.53-2.01 3.35-2.02 37.87-.22 75.76.98 8.54.27 22.03.09a3.665 3.629 67.584 0 1 2.68 1.13q1.61 1.69 11.61 12.9c5.33 5.96 7.67 9.63 12.34 15.89q2.38 3.2 4.39 6.66 5.11 8.79 8.73 14.12a1.398 1.386 40.124 0 1 .12 1.34l-28.34 65.33a1.258 1.24 9.551 0 1-1.07.75"></path><path fill="#feef28" fill-rule="evenodd" d="M810.72 241.18a.166.16-14.51 0 1 .23.13q1.08 8.88 6.81 16.85c4.34 6.04 13.31 8.23 18.94 2.5 5.48-5.58 2.14-14.48.4-21.9-3.38-14.42 6.57-27.07 21.9-23.69 11.21 2.47 18.29 14.01 20.71 24.58a.37.363-17.894 0 1-.22.42l-7.37 2.89a.272.263-15.598 0 1-.37-.2q-1.13-6.39-5.11-12.43c-2.63-3.99-7.73-7.46-12.58-6.31-6.27 1.48-9.17 6.89-7.84 13.27.91 4.33 3.62 13.73 3.04 19.41-1.31 12.96-14.39 20.3-26.66 15.49-10.87-4.27-17.77-16.45-19.73-27.64a.335.33-15.841 0 1 .21-.37zM160.16 215.13a.203.189 49.785 0 1 .25.03l5.43 5.68a.251.249-40.59 0 1-.03.37c-6.8 5.21-16.29 14.86-11.19 23.8 2.27 3.97 7.69 5.93 12 4.65 4.94-1.46 10.74-6.98 13.25-8.69q5.39-3.65 8.04-4.42c12.78-3.71 25.48 5.1 26.1 18.5.38 8.18-4.7 17.21-10.31 22.92q-1.23 1.24-7.68 6.57a.291.29-42.062 0 1-.4-.02l-5.85-6.12a.244.239 53.269 0 1 .05-.37q10.3-6.46 14.4-16.36c3.8-9.17-4.91-18.31-14.41-15.12-5.46 1.83-10.76 7.18-15.05 9.89q-12.98 8.21-24.22-1.45c-7.79-6.71-7.07-17.86-2.57-26.04q4.42-8.05 12.19-13.82M911.341 288.72c5.386 15.595-1.058 31.029-14.676 39.372q-4.547 2.785-9.62 4.537t-10.369 2.366c-15.864 1.838-30.459-6.33-35.844-21.925-5.386-15.594 1.058-31.028 14.676-39.371q4.547-2.786 9.62-4.537 5.072-1.752 10.369-2.366c15.864-1.839 30.459 6.33 35.844 21.924m-8.019 1.031a29.11 23.37-22.2 0 0-35.782-10.639 29.11 23.37-22.2 0 0-18.122 32.637 29.11 23.37-22.2 0 0 35.782 10.639 29.11 23.37-22.2 0 0 18.122-32.637"></path><path fill="#feef28" fill-rule="evenodd" d="M182.372 324.667c-9.292 19.042-30.201 22.038-47.892 13.406s-28.196-26.958-18.904-46c9.291-19.041 30.2-22.037 47.891-13.404s28.196 26.957 18.905 45.998m-60.124-28.079a29.13 22.85-156.1 0 0 17.375 32.693 29.13 22.85-156.1 0 0 35.889-9.089 29.13 22.85-156.1 0 0-17.375-32.693 29.13 22.85-156.1 0 0-35.889 9.089"></path><path fill="#092a6f" fill-rule="evenodd" d="M903.322 289.751a29.11 23.37-22.2 0 1-18.122 32.637 29.11 23.37-22.2 0 1-35.782-10.639 29.11 23.37-22.2 0 1 18.122-32.637 29.11 23.37-22.2 0 1 35.782 10.639M122.248 296.588a29.13 22.85-156.1 0 1 35.889-9.089 29.13 22.85-156.1 0 1 17.375 32.693 29.13 22.85-156.1 0 1-35.889 9.089 29.13 22.85-156.1 0 1-17.375-32.693"></path><path fill="#feef28" fill-rule="evenodd" d="M620.3 406.98c.9 5.8-.88 13.76-3.99 19.29q-3.06 5.43-3.64 6.85c-1.68 4.13-4.92 9.4-7.12 14.25q-2.57 5.71-4.94 9.83c-2.18 3.8-3.44 7.2-5.36 11.06q-.58 1.16-9.4 17.1c-4.93 8.92-10.2 17.69-21.84 17.65q-21.83-.07-33.93.31c-21.14.68-40.7.4-58.32-.03-14.02-.35-24.77-1.97-32.45-14.78q-5.89-9.84-6.01-10.06-.57-1.03-25-48.7c-2.74-5.35-4.16-9.38-5.48-14.8-1.35-5.55.57-11.95 3.07-17.32q14.73-31.7 30.58-60.66c7.48-13.68 18.67-22.38 34.77-22.8q29.88-.77 48.52-.61 10.35.09 32.56 1.31 22.23 1.22 33.16 20.59 7.74 13.72 9.38 16.83 9.39 17.88 21.35 43.03 3.39 7.13 4.09 11.66M940.2 386.56a.323.322-87.031 0 1-.32.29l-8.01-.05a.322.321-87.541 0 1-.32-.35q1.37-17.37-6.52-26.9c-11.86-14.36-33.88-9.56-44.96 3.04-9.47 10.77-5.02 27.34 1.92 37.89a.4.398-27.331 0 1-.19.59q-3.4 1.24-6.17 3.49a.538.536 53.52 0 1-.79-.12q-5.14-7.78-8.01-19.5-3.77-15.44 5.29-28.62c10.48-15.25 34.34-20.25 50.29-11.14 14.15 8.08 19.49 25.81 17.79 41.38M153.82 414.53a.129.123-73.155 0 1-.14.08l-68.07-14.84a.543.536 10.424 0 1-.42-.6c2.45-17.31 3.95-39.01 21.49-48.02 17.9-9.19 47.85 1.21 52.68 22.45 3.01 13.21-.48 28.27-5.54 40.93m-58.641-22.865 52.505 11.64a1.32 1.32 73.575 0 0 1.574-1.003l2.556-11.53a26.19 26.13 12.5 0 0-19.913-31.179l-3.944-.875a26.19 26.13 12.5 0 0-31.225 19.842l-2.556 11.53a1.32 1.32 13.143 0 0 1.003 1.575"></path><path fill="#092a6f" fill-rule="evenodd" d="M95.179 391.665a1.32 1.32 56.642 0 1-1.003-1.575l2.556-11.53a26.19 26.13 12.5 0 1 31.225-19.842l3.944.875a26.19 26.13 12.5 0 1 19.913 31.179l-2.556 11.53a1.32 1.32 73.828 0 1-1.574 1.003z"></path><path fill="#0f4392" fill-rule="evenodd" d="M704.19 740.33q-7.15-2.39-14.5-4.61-4.08-1.23-6.03-1.19-11.23.26-21.52-4.21-4.95-2.15-9.93-4.29 15.2 2.92 30.41 7.35a2.779 2.776-51.37 0 0 2.14-.24q7.08-3.94 13.8-8.34 19.17-12.56 37.23-28.06 5.96-5.11 9.61-8.82c5.85-5.95 11.27-10.77 16.59-16.95q6.6-7.67 6.98-8.08c4.14-4.48 6.93-8.88 11.05-13.66q1.87-2.17 4.26-5.61c7.22-10.36 16.04-23.26 22.65-35.95 5.82-11.15 10.57-19.95 14.93-30.77q24.53-60.86 23.76-127.07 1.02-2.98.78-9.38-.55-14.75-1.74-21.06c-1.3-6.88-.96-13.22-2.07-20.62a.081.074 12.46 0 1 .12-.07q.11.06.14.19 4.42 16.63 6.48 32.7 5.71 44.67-1.67 89.05-1.59 9.57-3.59 17.23c-2.5 9.57-4.23 18.82-7.41 28.33-2.63 7.88-5.81 17.41-9.09 24.64-3.19 7.03-4.75 11.7-7.98 17.8q-3.66 6.89-6.44 12.67c-3.29 6.82-6.6 11.72-9.97 17.87-2.56 4.66-5.94 7.83-8.89 12.42-9.35 14.57-20.57 28.91-33.27 41.24q-.91.89-10.16 10.02-3.22 3.18-14.47 13.05c-8.71 7.65-16.65 12.89-27.03 19.43q-2.71 1.7-5.17 4.99"></path><path fill="#feef28" fill-rule="evenodd" d="M944.835 411.562a.27.27 0 0 1-.229.306l-70.789 10.201a.27.27 0 0 1-.305-.229l-1.367-9.482a.27.27 0 0 1 .229-.306l70.789-10.201a.27.27 0 0 1 .305.229z"></path><path fill="#0f4392" fill-rule="evenodd" d="M177.91 431.01c-4.5 57.17 6.17 115.16 32.35 166.07 29.47 57.32 75.11 104.64 131.59 135.9a2.652 2.649-37.629 0 0 1.94.25l4.44-1.1q-3.61 1.72-6.16 2.38-10.98 2.83-20.53 5.73-2.54-2.72-5.76-4.67-5.6-3.4-5.81-3.55-10.81-7.57-20.35-15.89c-2.02-1.76-5.79-4.1-8.22-6.19q-24.02-20.6-42.5-44.8c-3.87-5.06-8.04-11.78-11.96-17.09q-2.52-3.42-6.53-9.85c-4.38-7.01-10.21-15.48-13.71-24.11-3.18-7.84-5.76-12.46-10.16-21.52-3.77-7.77-5.28-16.22-8.61-24.19-.98-2.34-3.01-7.57-3.79-11.13-1.86-8.47-4.88-16.53-6.17-24.66q-2.62-16.47-3.75-26.03-2.06-17.35-1.97-35.31.13-24.02 1.25-35.37.44-4.48 3.4-23.16a.246.246-58.972 0 1 .44-.11q.63.83.61 2.06-.16 8.11-.04 16.34"></path><path fill="#0f4da3" fill-rule="evenodd" d="M636.89 411.85a1.341 1.334-69.154 0 1 1.55-.7c5.8 1.55 12.29 1.63 18.64 2.51q7.19.99 13.62 1.63 12.94 1.28 46.68 5.33 3.19.38 4.88 1.13a1.33 1.313 89.197 0 1 .66.65q4.87 10.21 8.97 17.95c9.83 18.53 19.69 37.95 28.75 55.03q1.15 2.16 2.48 4a1.359 1.352 51.457 0 1-.2 1.81q-5.15 4.59-9.64 9.58c-15.33 17.03-27.22 35.02-37.88 54.61a2.114 2.109-74.008 0 1-1.96 1.09q-29.73-1.51-61.11 3.59c-4.14.67-7.78 1.8-12.06 2.58a.713.707-16.48 0 1-.78-.42c-10.81-26.06-27.6-48.89-48.02-68.53a2.054 2.05-52.958 0 1-.35-2.52c5.81-9.91 11.49-20.98 16.64-31.92q3.95-8.39 4.71-9.89.53-1.04 1.07-2.05 12.37-23.24 23.35-45.46M384.8 412.13a1.77 1.763 76.353 0 1 1.52.93q2.76 5.04 4.06 7.75c2.94 6.11 5.8 11.25 8.43 16.78 7.6 15.97 16.12 31.25 21.07 41.38 3.71 7.59 7.88 15.07 12.38 22.71a1.055 1.051 51.798 0 1-.15 1.28c-8.64 8.94-17.01 17.53-24.63 28.09q-10.26 14.24-17.6 28.08c-2.37 4.46-3.82 9.06-6.08 12.83a1.152 1.146 26.163 0 1-1.42.48q-2.49-1.03-5.75-1.08a6.16 6.041-37.427 0 1-1.3-.16q-8.52-2.03-16.7-3.03-24.91-3.05-49.42-2.1a1.283 1.273 74.559 0 1-1.17-.67q-10.08-18.74-23.5-37.44-10.07-14.01-23.12-26.46a1.464 1.461 35.177 0 1-.3-1.72l39.12-77.62a1.585 1.572 8.527 0 1 1.16-.85q10.61-1.65 14.78-2.08c14.45-1.47 28.7-3.14 48.57-4.88q8.79-.77 12.14-1.23c2.58-.35 5.18-1.05 7.91-.99"></path><path fill="#feef28" fill-rule="evenodd" d="m79.212 453.914.626-10.911a.3.3 28.628 0 1 .217-.272l72.71-20.85a.3.3-62.79 0 1 .382.29l-.065 9.545a.3.3-61.154 0 1-.218.286l-22.66 6.509a.3.3 47.506 0 0-.216.271l-1.445 24.852a.3.3 22.92 0 0 .188.296l21.458 8.53a.3.3-34.421 0 1 .189.296l-.514 9.019a.3.3 57.489 0 1-.411.261L79.401 454.21a.3.3 43.289 0 1-.189-.296m10.226-4.557q-.012.281 2.634.982 1.606.424 2.708.849 25.609 9.815 25.765 9.866a.326.321-77.402 0 0 .435-.28q.501-7.016.635-9.976.133-2.962.266-9.995a.326.321 82.569 0 0-.408-.318q-.16.038-26.549 7.507-1.136.324-2.773.601-2.699.46-2.713.764M879.042 480.397l21.076-8.284a.39.39 43.508 0 0 .247-.384l-1.33-24.824a.39.39-89.664 0 0-.28-.353l-22.068-6.49a.39.39-38.564 0 1-.28-.371l-.082-8.715a.39.39-52.292 0 1 .5-.378l71.98 21.164a.39.39 40.549 0 1 .28.354l.57 10.683a.39.39 22.019 0 1-.247.384l-69.575 27.349a.39.39 21.688 0 1-.532-.342l-.506-9.409a.39.39-40.23 0 1 .247-.384m60.199-22.639q-.012-.301-2.68-.771-1.618-.283-2.741-.609-26.068-7.529-26.226-7.566a.322.318-82.264 0 0-.405.312q.094 6.959.21 9.889.117 2.93.576 9.874a.322.318 77.707 0 0 .429.28q.154-.051 25.542-9.626 1.093-.415 2.684-.825 2.622-.68 2.611-.958"></path><path fill="#092a6f" fill-rule="evenodd" d="M89.438 449.357q.014-.304 2.713-.764 1.637-.277 2.773-.601 26.389-7.469 26.549-7.507a.326.321 82.569 0 1 .408.318q-.133 7.033-.266 9.995-.134 2.96-.635 9.976a.326.321-77.402 0 1-.435.28q-.156-.051-25.765-9.866-1.102-.425-2.708-.849-2.646-.701-2.634-.982M939.241 457.758q.011.278-2.611.958-1.591.41-2.684.825-25.388 9.575-25.542 9.626a.322.318 77.707 0 1-.429-.28q-.459-6.944-.576-9.874t-.21-9.889a.322.318-82.264 0 1 .405-.312q.158.037 26.226 7.566 1.123.326 2.741.609 2.668.47 2.68.771"></path><path fill="#feef28" fill-rule="evenodd" d="m939.035 509.442 2.38-21.174a.31.31 45.244 0 1 .343-.273l8.314.94a.31.31-50.17 0 1 .273.343l-6.05 53.814a.31.31 40.243 0 1-.343.273l-7.782-.881a.31.31 37.533 0 1-.274-.335l1.908-22.208a.31.31-84.884 0 0-.274-.335l-61.11-6.862a.31.31-53.583 0 1-.274-.335l.797-9.312a.31.31-59.957 0 1 .343-.281l61.406 6.899a.31.31-29.925 0 0 .343-.273M114.38 504.96a.307.304 33.599 0 0 .56-.11c1.34-8.23 7.59-14.96 15.97-15.94 23.06-2.71 26.37 25.83 26.31 41.69a.608.603 85.575 0 1-.51.6L86.7 541.4a.347.329-9.107 0 1-.38-.26c-2.25-10.35-4.31-17.55-3.93-26.78.3-7.23 4.06-14.79 11.02-17.3 8.02-2.89 16.26.58 20.97 7.9m8.492 21.446 25.358-3.654a.74.74-21.532 0 0 .627-.838l-1.43-9.928a14.91 12.63 81.8 0 0-14.628-12.956l-1.821.262a14.91 12.63 81.8 0 0-10.374 16.559l1.43 9.928a.74.74 72.629 0 0 .838.627m-30.216 3.849 20.519-2.229a1.44 1.44 40.299 0 0 1.276-1.587l-.848-7.804a14.33 10.97 83.8 0 0-12.453-13.061l-1.571.17a14.33 10.97 83.8 0 0-9.358 15.431l.848 7.804a1.44 1.44-82.576 0 0 1.587 1.276"></path><path fill="#092a6f" fill-rule="evenodd" d="M122.872 526.406a.74.74 72.912 0 1-.838-.627l-1.43-9.928a14.91 12.63 81.8 0 1 10.374-16.559l1.821-.262a14.91 12.63 81.8 0 1 14.628 12.956l1.43 9.928a.74.74 23.819 0 1-.627.838z" data-source="https://football-logos.cc"></path><path fill="#092a6f" fill-rule="evenodd" d="M92.656 530.255a1.44 1.44-56.771 0 1-1.587-1.276l-.848-7.804a14.33 10.97 83.8 0 1 9.358-15.431l1.571-.17a14.33 10.97 83.8 0 1 12.453 13.061l.848 7.804a1.44 1.44-52.2 0 1-1.276 1.587z"></path><path fill="#feef28" fill-rule="evenodd" d="m618.36 610.79-2.08 4.48a1.22 1.201-.948 0 1-.57.58q-5.74 2.83-13.16 8.2-15.95 11.54-29.58 25.63a.265.265 22.15 0 0 .19.45l19.92.14a.687.685 14.388 0 1 .6 1.01q-14.98 27.91-26.45 57.7-.93 2.41-2.72 5.96c-.13.26-.45.54-.72.36q-.75-.36-1.54-.38-18.7-.37-37.38-.32l.14-63.79a.49.48-89.391 0 1 .48-.48l27.11-.25a.282.278-16.287 0 0 .24-.43l-42.06-65.32a.128.124 44.105 0 0-.21 0l-41.4 65.47a.376.375-73.971 0 0 .32.58l26.16-.24a.66.66-51.102 0 1 .66.66l-.05 64q-19.28-.56-38.53.63-12.13-32.66-28.17-64.37a.511.51-13.76 0 1 .45-.74l19.63-.18a.274.273-21.521 0 0 .2-.46c-12.16-13-26.51-24.4-42.24-33.6a2.386 2.342-86.976 0 1-.98-1.11l-1.69-3.92q-4.61-11.02-6.97-20.28-2.54-10 1.11-19.97c6.41-17.52 16.86-32.12 29.68-45.07q6.93-6.99 15.22-11.46 3.06-1.65 7.3-1.64 75.61.14 124.91 1.15 2.38.05 5.62 1.96c8.18 4.84 15.05 12.04 21.18 19.44 10.25 12.38 19.24 25.88 22.95 40.41 3.01 11.79-3.51 24.18-7.57 35.2M937.106 567.312a.42.42 0 0 1-.512.301l-68.002-17.586a.42.42 0 0 1-.302-.512l2.304-8.907a.42.42 0 0 1 .512-.301l68.002 17.586a.42.42 0 0 1 .302.512zM159.4 541.4a.72.717 63.972 0 1 1.1.38l2.49 8.13a1.16 1.152-25.821 0 1-.45 1.28c-4.38 3.04-9.71 6.1-16.97 10.36q-.94.56-3.44 2.84c-6.39 5.84-3.29 13.07-.51 21.24a.639.636-17.99 0 0 .79.4l28.64-8.77a.63.63 14.845 0 1 .79.41l2.57 8.39a.42.42-75.458 0 1-.28.52l-67.92 20.8a.339.333 71.548 0 1-.41-.21q-3.81-10.09-5.97-16c-3.68-10.07-4.79-20.8 4.26-28.34 8.15-6.79 20.43-5.73 27.21 2.77a.348.347 27.855 0 0 .62-.19c.34-5.43 5.84-10.25 10.24-12.88q10.06-6.03 17.24-11.13m-49.735 54.503 24.724-7.512a.22.22-35.201 0 0 .147-.275l-3.134-10.314a14.16 12.29 73.1 0 0-15.876-9.976l-1.626.494a14.16 12.29 73.1 0 0-7.643 17.122l3.134 10.314a.22.22-8.451 0 0 .274.147"></path><path fill="#092a6f" fill-rule="evenodd" d="M109.665 595.903a.22.22-8.471 0 1-.274-.147l-3.134-10.314a14.16 12.29 73.1 0 1 7.643-17.122l1.626-.494a14.16 12.29 73.1 0 1 15.876 9.976l3.134 10.314a.22.22 22.809 0 1-.147.275z"></path><path fill="#feef28" fill-rule="evenodd" d="M854.275 587.343c8.23-19.378 28.821-23.438 46.825-15.792 18.003 7.646 29.379 25.283 21.15 44.661-8.23 19.377-28.822 23.437-46.825 15.791s-29.379-25.283-21.15-44.66m7.03 3.688a29.16 22.54-158.2 0 0 18.704 31.757 29.16 22.54-158.2 0 0 35.446-10.099 29.16 22.54-158.2 0 0-18.704-31.757 29.16 22.54-158.2 0 0-35.446 10.099"></path><path fill="#092a6f" fill-rule="evenodd" d="M861.305 591.031a29.16 22.54-158.2 0 1 35.446-10.099 29.16 22.54-158.2 0 1 18.704 31.757 29.16 22.54-158.2 0 1-35.446 10.099 29.16 22.54-158.2 0 1-18.704-31.757"></path><path fill-rule="evenodd" d="m524.87 714.6-.22 76.27a.73.73-.387 0 0 .74.73l17.46-.16a.72.718 4.718 0 0 .71-.6q5.19-30.11 15.27-59.84 2.59-7.65 5.13-15.26.09-.27-.17-.44c.27.18.59-.1.72-.36q1.79-3.55 2.72-5.96 11.47-29.79 26.45-57.7a.687.685 14.388 0 0-.6-1.01l-19.92-.14a.265.265 22.15 0 1-.19-.45q13.63-14.09 29.58-25.63 7.42-5.37 13.16-8.2a1.22 1.201-.948 0 0 .57-.58l2.08-4.48q1.07.56.78 1.75a.54.538 83.619 0 0 .76.61l2.45-1.19q15.02-6.66 30.24-9.79a.189.188 12.793 0 1 .19.3q-19.32 24.15-33.97 50.3-12.43 22.18-15.48 29.06-5.73 13-9.57 21.4-1.92 4.21-5.63 13.82-19.75 51.57-25.44 106.92-.43.06-.94.06-22.89-.02-31.17-.25c-1.42-.04-3.43-.33-5.09-.57a1.207 1.204 3.491 0 0-1.37 1.21l.21 14.52-.14 33.95a.64.64-.455 0 1-.63.64l-26.53.24a.82.82-.345 0 1-.83-.82l-.04-33.47.08-15.75a.51.51-45 0 0-.52-.52l-35.41.59q-4.29-32.18-12.45-64.16-5.64-22.1-13.38-42.2-3.37-9.54-5.39-14.03-4.93-10.98-7.31-16.29-10.81-24.03-25.36-47.51-11.95-19.29-25.98-36.93a.238.238-12.764 0 1 .24-.38q15.19 3.33 29.24 9.73 1.3.57 2.6 1.13 1.03.45 2.41-2.11l1.69 3.92a2.386 2.342-86.976 0 0 .98 1.11c15.73 9.2 30.08 20.6 42.24 33.6a.274.273-21.521 0 1-.2.46l-19.63.18a.511.51-13.76 0 0-.45.74q16.04 31.71 28.17 64.37 1.13 3.73 2.25 6.79c5.84 15.92 10.54 31.57 13.97 47.7 1.38 6.51 3.37 13.39 4.09 20.42a.708.704 86.81 0 0 .7.63l17-.16a.5.5 45 0 0 .5-.5l.02-75.51.05-64a.66.66-86.54 0 0-.66-.66l-26.16.24a.376.375-73.971 0 1-.32-.58l41.4-65.47a.128.124 44.105 0 1 .21 0l42.06 65.32a.282.278-16.287 0 1-.24.43l-27.11.25a.49.48-89.391 0 0-.48.48z"></path><path fill="#feef28" fill-rule="evenodd" d="m200.442 640.044 3.259 8.306a.32.32 21.313 0 1-.255.434l-74.658 10.044a.32.32 22.347 0 1-.335-.187l-4.664-10.48a.32.32-4.388 0 1 .066-.356l52.79-52.79a.32.32-75.396 0 1 .498.058l5.11 8.226a.32.32 82.104 0 1-.051.401l-16.669 15.914a.32.32-32.581 0 0-.071.362l10.201 22.925a.32.32 89.378 0 0 .335.187l24.103-3.244a.32.32 20.044 0 1 .341.2m-65.333 9.421q.123.249 2.755-.412 1.596-.403 2.756-.563 26.92-3.77 27.08-3.8a.323.318 73.656 0 0 .243-.452q-2.931-6.326-4.235-8.957-1.304-2.633-4.562-8.797a.323.318 53.627 0 0-.507-.08q-.121.109-19.427 19.245-.83.826-2.117 1.851-2.12 1.694-1.986 1.965M880.6 662.75l-47.49-29.28a.4.4-20.815 0 1-.13-.55l4.36-7.08a.48.48 73.209 0 1 .66-.16l58.6 36.13a.82.82-25.885 0 1 .27 1.13l-5.28 8.56a.65.642-74.073 0 1-.55.31l-65.8.59a.115.113-29.636 0 0-.06.21l47.14 29.07a1.648 1.64-58.347 0 1 .53 2.26l-3.5 5.67a1.529 1.518 31.73 0 1-2.11.49l-57.92-36.63a.647.644-57.948 0 1-.2-.88l5.49-8.89a.594.586 14.999 0 1 .51-.29l65.46-.59a.038.037-29.493 0 0 .02-.07"></path><path fill="#092a6f" fill-rule="evenodd" d="M163.708 635.281q1.304 2.631 4.235 8.957a.323.318 73.656 0 1-.243.452q-.16.03-27.08 3.8-1.16.16-2.756.563-2.632.661-2.755.412-.134-.271 1.986-1.965 1.287-1.025 2.117-1.851 19.306-19.136 19.427-19.245a.323.318 53.627 0 1 .507.08q3.258 6.164 4.562 8.797"></path><path fill="#feef28" fill-rule="evenodd" d="M186.68 686.04q-1.6-6.14-.29-11.59c2.74-11.38 15.3-16.35 25.69-12.35q6.44 2.49 12.97 10.1 6.52 7.61 12.32 16.73a.833.829-34.418 0 1-.21 1.11l-57.28 42.4a.679.675-38.104 0 1-.93-.11q-.87-1.08-7.97-8.8-3.92-4.27-7.72-10.54c-3.63-6.01-5.46-14.89-1.67-21.13q3.49-5.76 9.15-7.53 7.69-2.4 15.29 2.19a.437.435 8.458 0 0 .65-.48m17.66 15.788 20.74-15.346a.68.68-32.913 0 0 .142-.951l-5.61-7.581a16.25 13.02 53.5 0 0-20.132-5.318l-.9.666a16.25 13.02 53.5 0 0-.8 20.808l5.609 7.58a.68.68-79.221 0 0 .951.142m-25.287 19.063 18.578-14.358a.27.27-38.93 0 0 .048-.379l-5.736-7.422a14.95 11.04 52.3 0 0-17.877-5.077l-1.535 1.186a14.95 11.04 52.3 0 0 .407 18.58l5.736 7.422a.27.27-86.272 0 0 .379.048"></path><path fill="#092a6f" fill-rule="evenodd" d="M204.34 701.828a.68.68-90 0 1-.951-.142l-5.609-7.58a16.25 13.02 53.5 0 1 .8-20.808l.9-.666a16.25 13.02 53.5 0 1 20.132 5.318l5.61 7.581a.68.68-52.054 0 1-.142.951zM179.053 720.891a.27.27 9.147 0 1-.379-.048l-5.736-7.422a14.95 11.04 52.3 0 1-.407-18.58l1.535-1.186a14.95 11.04 52.3 0 1 17.877 5.077l5.736 7.422a.27.27-4.541 0 1-.048.379z"></path><path fill="#0f4da3" fill-rule="evenodd" d="M563.79 715.3q.26.17.17.44-2.54 7.61-5.13 15.26-10.08 29.73-15.27 59.84a.72.718 4.718 0 1-.71.6l-17.46.16a.73.73-.387 0 1-.74-.73l.22-76.27q18.68-.05 37.38.32.79.02 1.54.38M496.26 714.8l-.02 75.51a.5.5-45 0 1-.5.5l-17 .16a.708.704 86.81 0 1-.7-.63c-.72-7.03-2.71-13.91-4.09-20.42-3.43-16.13-8.13-31.78-13.97-47.7q-1.12-3.06-2.25-6.79 19.25-1.19 38.53-.63"></path><path fill="#0f4da3" fill-rule="evenodd" d="M588.13 717.05q32.73 2.69 64.08 8.98 4.98 2.14 9.93 4.29 10.29 4.47 21.52 4.21 1.95-.04 6.03 1.19 7.35 2.22 14.5 4.61 16.21 5.15 20.28 6.7 42.93 16.36 81.88 40.68 6.45 4.03 13.2 8.09 5.51 4.98 11.82 8.58 18.58 13.4 35.11 28.78a.713.712-43.974 0 1-.02 1.06l-13.25 11.47q-14.65 14.6-30.07 28.96-14.84 13.83-30.02 27.73-7.13 6.52-10.23 9.71a1.059 1.057-48.588 0 1-1.42.09q-7.51-6-25.02-18.71-6.77-4.91-8.21-6.1-.53-.43-1.53-.14.14-.49-.07-.63-10.26-6.7-20.77-12.34a1.429 1.42-43.519 0 0-1.32-.03c-12.92 6.2-26.08 12.49-39.73 17.67-21.99 8.35-44.3 15.34-67.14 20.3q-18.43 4-20.96 4.47c-41.2 7.6-82.85 9.7-124.38 5.97q-15.4-1.39-23.84-2.6-58.53-8.38-112.92-30.6c-12.34-5.05-18.41-8.23-32.79-15.05a2.488 2.481 42.672 0 0-2.29.09l-22.65 12.93q-17.09 11.56-32.96 24.16a1.5 1.5-42.925 0 1-1.94-.07l-71.46-65.76-12.84-11.27a.55.543 44.651 0 1-.01-.82q17.53-16.02 36.82-30.14l11.68-8.17q22.51-14.87 39.43-23.76 27.88-14.65 57.42-25.56 8.04-2.98 17.55-5.78 9.55-2.9 20.53-5.73 2.55-.66 6.16-2.38c27.93-7.64 56.45-12.13 86.25-14.69q7.74 20.1 13.38 42.2 8.16 31.98 12.45 64.16-6.78 1.77-13.93 2.64-13.37 1.63-14.07 1.76-16.46 3-25.5 4.92-.75.16-21.82 5.79c-12.33 3.29-25.17 7.92-35.46 12.34-7.7 3.32-14.34 5.19-22.33 9.13q-4.34 2.15-10.13 4.43a.486.486-26.344 0 0-.24.71q2.17 3.51 5.39 4.81 7.53 3.05 10.11 4.28 6.16 2.73 8.65 3.67c21.32 8.08 39.75 13.18 70.26 21.47q4.08 1.1 11.91 2.66 9.29 1.84 11.97 1.99 9.4.54 30.74 4.19 14.95 2.56 32.49 3.11c20.67.65 43.09-.07 64.78-3.01 5.88-.8 11.78-2.63 18.09-3.44 6.23-.8 17.3-2.17 25.98-4.4q9.19-2.37 20.6-4.87c8.87-1.95 15.18-4.24 26.68-7.7q8.56-2.57 19.31-6.57 9.68-3.6 19.13-7.07l15.34-6.01a1.75 1.728-80.896 0 0 .75-.55l.78-.99a1.359 1.355 34.88 0 0-.36-2c-2.69-1.65-5.75-2.43-9.18-3.9q-25.22-10.82-29.29-12.34-16.71-6.26-22.72-8.02-13.55-3.97-48.59-11.8-8.5-1.9-36.15-4.62a1.125 1.053 66.188 0 1-.61-.26q-.1-.08-.2-.18 5.69-55.35 25.44-106.92m-194.123 40.301 7.667 36.381a1.35 1.35-35.18 0 0 1.599 1.043l9.424-1.986a18 17.94 78.1 0 0 13.842-21.312l-.8-3.797a18 17.94 78.1 0 0-21.266-13.914l-9.423 1.986a1.35 1.35 67.758 0 0-1.043 1.599m2.123 34.569a.523.522-9.47 0 0-.66-.47l-13.09 3.5a.747.745-14.956 0 1-.92-.53l-3.3-12.34a.415.415 33.453 0 1 .29-.51l12.49-3.34a.247.247 66.303 0 0 .18-.3l-1-3.71a.291.289-14.504 0 0-.36-.21l-12.22 3.27a.51.507 74.29 0 1-.62-.35l-3.13-10.91a.459.456 74.474 0 1 .32-.57l13.48-3.61a.216.213-17.261 0 0 .15-.28l-1.38-3.51a.216.205 71.953 0 0-.24-.13l-17.98 4.36a.488.485 75.402 0 0-.35.6l9.94 37.18a.58.58-15.721 0 0 .71.41l18.39-4.92a.221.22 70.109 0 0 .14-.3q-.71-1.6-.84-3.33m258.752-25.589a.32.32 78.426 0 0-.276.334l.214 4.037a.32.32-38.358 0 0 .382.297l6.969-1.375a.32.32-45.953 0 1 .367.41l-9.802 31.171a.32.32-51.499 0 0 .209.401l4.74 1.488a.32.32 10.499 0 0 .401-.209l11.408-36.25a.32.32-53.127 0 0-.209-.401l-4.037-1.273a.3.3 27.375 0 0-.139-.011zm-320.59 8.069 11.505 34.386a1.96 1.96 2.788 0 0 2.481 1.237l8.563-2.866a18.79 18.21 71.5 0 0 11.307-23.597l-.825-2.465a18.79 18.21 71.5 0 0-23.231-12.041l-8.563 2.865a1.96 1.96-27.872 0 0-1.237 2.481m362.718 24.49q-1.7 2.17-5.19 4.68-7.27 5.21-15.65.72a.202.201 22.45 0 0-.29.12l-1.18 4.02a.267.26 19.209 0 0 .16.32c14.89 5.74 26.02-2.33 30.78-16.06q2.58-7.42-1.06-12.94c-3.71-5.63-12.21-7.07-17.79-3.44-8.16 5.28-9.75 17.77.38 22.32q4.43 1.98 9.61-.05a.201.199-81.762 0 1 .23.31m-389.37-7.38a.085.084 6.951 0 1 .13-.1l27.34 22.52a.773.763 55.796 0 0 .71.14l4.13-1.26a.558.557 70.092 0 0 .35-.75l-15.02-35.72a.381.377-21.942 0 0-.5-.21l-4.21 1.77a.04.032-29.368 0 0-.02.05l12.59 28.32a.026.026 7.235 0 1-.04.03l-27.29-22.48a.337.32 51.903 0 0-.34-.05l-4.35 1.83a.7.695-22.773 0 0-.38.92l14.62 34.79a1.415 1.412-23.46 0 0 1.88.74l2.27-1.01a1.146 1.146-28.514 0 0 .59-1.51zm411.626-2.073a.31.31 43.117 0 0-.286.244l-.824 3.822a.31.31-24.72 0 0 .319.375l7.201-.389a.31.31 51.89 0 1 .293.449l-14.57 28.926a.31.31 30.344 0 0 .137.416l4.307 2.18a.31.31-69.765 0 0 .417-.137l17.204-34.144a.31.31-16.124 0 0-.168-.43l-4.775-1.786a.3.3 56.706 0 0-.126-.02zM287.96 791.62a.405.398 65.925 0 0-.22.59q4.57 7.53 11.44 21.38c1.83 3.69 3.12 8.75-.18 11.98-3.6 3.52-9.39 2.07-11.9-1.68q-5.26-7.88-13.36-24.56a.388.386 60.827 0 0-.56-.16q-1.82 1.13-3.94 1.54a.37.37 69.908 0 0-.25.54q6.47 12.18 10.12 19.25c1.78 3.45 4.22 7.06 6.71 9.22 6.67 5.75 18.42 1.12 19.81-7.49q.72-4.4-.81-7.82-4.96-11.16-12.74-24.6a.387.386-35.105 0 0-.58-.1q-1.57 1.32-3.54 1.91m451.098 22.718c-4.517 7.28-8.184 18.662.869 24.279s17.623-2.722 22.14-10.001c4.517-7.28 8.184-18.662-.869-24.279s-17.623 2.722-22.14 10.001m-490.567-2.474a20.67 16.1-123.5 0 0-2.017 26.122 20.67 16.1-123.5 0 0 24.835 8.35 20.67 16.1-123.5 0 0 2.017-26.122 20.67 16.1-123.5 0 0-24.835-8.35m-17.466 11.805a.31.31-75.733 0 0-.434-.065l-14.738 10.918a.31.31 29.073 0 0-.061.438l23.582 30.748a.31.31 3.027 0 0 .431.06l3.597-2.667a.31.31-34.536 0 0 .059-.442l-10.601-13.338a.31.31-1.411 0 1 .058-.442l9.773-7.234a.31.31-15.849 0 0 .064-.434l-2.33-3.142a.31.31-63.37 0 0-.434-.065l-9.61 7.118a.31.31 2.541 0 1-.427-.057l-7.594-9.554a.31.31-5.047 0 1 .058-.442l10.763-7.974a.31.31-42.285 0 0 .064-.434z"></path><path fill="#fefefe" fill-rule="evenodd" d="M394.007 757.351a1.35 1.35-65.923 0 1 1.043-1.599l9.423-1.986a18 17.94 78.1 0 1 21.266 13.914l.8 3.797a18 17.94 78.1 0 1-13.842 21.312l-9.424 1.986a1.35 1.35 16.259 0 1-1.599-1.043zm5.685 2.805 6.125 28.816a.88.88 22.48 0 0 1.044.678l4.675-.994a13.51 13.04 78 0 0 9.946-15.926l-.873-4.108a13.51 13.04 78 0 0-15.564-10.504l-4.675.994a.88.88-25.311 0 0-.678 1.044M396.83 795.55l-18.39 4.92a.58.58 22.94 0 1-.71-.41l-9.94-37.18a.488.485 75.402 0 1 .35-.6l17.98-4.36a.216.205 71.953 0 1 .24.13l1.38 3.51a.216.213-17.261 0 1-.15.28l-13.48 3.61a.459.456 74.474 0 0-.32.57l3.13 10.91a.51.507 74.29 0 0 .62.35l12.22-3.27a.291.289-14.504 0 1 .36.21l1 3.71a.247.247-67.847 0 1-.18.3l-12.49 3.34a.415.415 77.318 0 0-.29.51l3.3 12.34a.747.745-14.956 0 0 .92.53l13.09-3.5a.523.522-9.47 0 1 .66.47q.13 1.73.84 3.33a.221.22 70.109 0 1-.14.3"></path><path fill="#0f4da3" fill-rule="evenodd" d="M399.692 760.156a.88.88 14.841 0 1 .678-1.044l4.675-.994a13.51 13.04 78 0 1 15.564 10.504l.873 4.108a13.51 13.04 78 0 1-9.946 15.926l-4.675.994a.88.88 29.75 0 1-1.044-.678z"></path><path fill="#fefefe" fill-rule="evenodd" d="m654.882 766.331 10.227-1.381a.3.3 13.698 0 1 .139.011l4.037 1.273a.32.32-36.318 0 1 .209.401l-11.408 36.25a.32.32 44.479 0 1-.401.209l-4.74-1.488a.32.32-33.524 0 1-.209-.401l9.802-31.171a.32.32-58.136 0 0-.367-.41l-6.969 1.375a.32.32-82.928 0 1-.382-.297l-.214-4.037a.32.32-59.672 0 1 .276-.334M334.292 774.4a1.96 1.96 16.201 0 1 1.237-2.481l8.563-2.865a18.79 18.21 71.5 0 1 23.231 12.041l.825 2.465a18.79 18.21 71.5 0 1-11.307 23.597l-8.563 2.866a1.96 1.96 19.308 0 1-2.481-1.237zm5.931 1.783 9.278 27.729a1.23 1.23-44.967 0 0 1.556.776l3.964-1.326a13.7 13.23 71.5 0 0 8.2-17.19l-1.365-4.078a13.7 13.23 71.5 0 0-16.893-8.794l-3.964 1.326a1.23 1.23 16.339 0 0-.776 1.557"></path><path fill="#0f4da3" fill-rule="evenodd" d="M340.223 776.183a1.23 1.23 24.577 0 1 .776-1.557l3.964-1.326a13.7 13.23 71.5 0 1 16.893 8.794l1.365 4.078a13.7 13.23 71.5 0 1-8.2 17.19l-3.964 1.326a1.23 1.23-44.967 0 1-1.556-.776z"></path><path fill="#fefefe" fill-rule="evenodd" d="M697.01 798.89a.201.199-81.762 0 0-.23-.31q-5.18 2.03-9.61.05c-10.13-4.55-8.54-17.04-.38-22.32 5.58-3.63 14.08-2.19 17.79 3.44q3.64 5.52 1.06 12.94c-4.76 13.73-15.89 21.8-30.78 16.06a.267.26 19.209 0 1-.16-.32l1.18-4.02a.202.201 22.45 0 1 .29-.12q8.38 4.49 15.65-.72 3.49-2.51 5.19-4.68m.664-19.318a8.62 7.77-62.1 0 0-10.901 3.982 8.62 7.77-62.1 0 0 2.833 11.254 8.62 7.77-62.1 0 0 10.901-3.982 8.62 7.77-62.1 0 0-2.833-11.254M307.64 791.51l12.46 28.02a1.146 1.146 16.488 0 1-.59 1.51l-2.27 1.01a1.415 1.412-23.46 0 1-1.88-.74l-14.62-34.79a.7.695-22.773 0 1 .38-.92l4.35-1.83a.337.32 51.903 0 1 .34.05l27.29 22.48a.026.026 7.235 0 0 .04-.03l-12.59-28.32a.04.032-29.368 0 1 .02-.05l4.21-1.77a.381.377-21.942 0 1 .5.21l15.02 35.72a.558.557 70.092 0 1-.35.75l-4.13 1.26a.773.763 55.796 0 1-.71-.14l-27.34-22.52a.085.084 6.951 0 0-.13.1"></path><path fill="#0f4da3" fill-rule="evenodd" d="M697.674 779.572a8.62 7.77-62.1 0 1 2.833 11.254 8.62 7.77-62.1 0 1-10.901 3.982 8.62 7.77-62.1 0 1-2.833-11.254 8.62 7.77-62.1 0 1 10.901-3.982"></path><path fill="#fefefe" fill-rule="evenodd" d="m719.266 789.437 9.129-.494a.3.3-85.144 0 1 .126.02l4.775 1.786a.31.31 5.548 0 1 .168.43l-17.204 34.144a.31.31-36.63 0 1-.417.137l-4.307-2.18a.31.31 61.854 0 1-.137-.416l14.57-28.926a.31.31 35.065 0 0-.293-.449l-7.201.389a.31.31-13.467 0 1-.319-.375l.824-3.822a.31.31-39.769 0 1 .286-.244M292.08 789.81q7.78 13.44 12.74 24.6 1.53 3.42.81 7.82c-1.39 8.61-13.14 13.24-19.81 7.49-2.49-2.16-4.93-5.77-6.71-9.22q-3.65-7.07-10.12-19.25a.37.37 69.908 0 1 .25-.54q2.12-.41 3.94-1.54a.388.386 60.827 0 1 .56.16q8.1 16.68 13.36 24.56c2.51 3.75 8.3 5.2 11.9 1.68 3.3-3.23 2.01-8.29.18-11.98q-6.87-13.85-11.44-21.38a.405.398 65.925 0 1 .22-.59q1.97-.59 3.54-1.91a.387.386-35.105 0 1 .58.1M761.198 804.337c9.053 5.617 5.386 16.999.869 24.279-4.517 7.279-13.087 15.618-22.14 10.001s-5.386-16.999-.869-24.279c4.517-7.279 13.087-15.619 22.14-10.001m-2.458 3.538a15.89 8.12-59.1 0 0-15.128 9.465 15.89 8.12-59.1 0 0-1.192 17.805 15.89 8.12-59.1 0 0 15.127-9.465 15.89 8.12-59.1 0 0 1.193-17.805"></path><path fill="#0f4da3" fill-rule="evenodd" d="M758.74 807.875a15.89 8.12-59.1 0 1-1.193 17.805 15.89 8.12-59.1 0 1-15.127 9.465 15.89 8.12-59.1 0 1 1.192-17.805 15.89 8.12-59.1 0 1 15.128-9.465"></path><path fill="#fefefe" fill-rule="evenodd" d="M248.491 811.864a20.67 16.1-123.5 0 1 24.835 8.35 20.67 16.1-123.5 0 1-2.017 26.122 20.67 16.1-123.5 0 1-24.835-8.35 20.67 16.1-123.5 0 1 2.017-26.122m2.383 3.834a16.17 10.83-124.4 0 0 .2 19.461 16.17 10.83-124.4 0 0 18.072 7.223 16.17 10.83-124.4 0 0-.2-19.461 16.17 10.83-124.4 0 0-18.072-7.223"></path><path fill="#0f4da3" fill-rule="evenodd" d="M250.874 815.698a16.17 10.83-124.4 0 1 18.072 7.223 16.17 10.83-124.4 0 1 .2 19.461 16.17 10.83-124.4 0 1-18.072-7.223 16.17 10.83-124.4 0 1-.2-19.461"></path><path fill="#092a6f" fill-rule="evenodd" d="M496.16 839.48q-29.28.58-58.06 5.29-12.24 2-16.96 2.86-9.17 1.67-16.78 3.67c-12.65 3.32-22.34 5.55-35.07 10.16q-18.78 6.8-36.96 13.15-2.58-1.23-10.11-4.28-3.22-1.3-5.39-4.81a.486.486-26.344 0 1 .24-.71q5.79-2.28 10.13-4.43c7.99-3.94 14.63-5.81 22.33-9.13 10.29-4.42 23.13-9.05 35.46-12.34q21.07-5.63 21.82-5.79 9.04-1.92 25.5-4.92.7-.13 14.07-1.76 7.15-.87 13.93-2.64l35.41-.59a.51.51-45 0 1 .52.52zM562.69 823.97q.1.1.2.18a1.125 1.053 66.188 0 0 .61.26q27.65 2.72 36.15 4.62 35.04 7.83 48.59 11.8 6.01 1.76 22.72 8.02 4.07 1.52 29.29 12.34c3.43 1.47 6.49 2.25 9.18 3.9a1.359 1.355 34.88 0 1 .36 2l-.78.99a1.75 1.728-80.896 0 1-.75.55l-15.34 6.01q-15.89-6.31-32.43-12.36-12.23-4.48-21.52-7.02-15.73-4.28-21.97-5.93c-4.97-1.31-13.76-2.19-20.71-3.57q-14.06-2.8-23.57-3.76-20.76-2.1-48.39-3.06l-.21-14.52a1.207 1.204 3.491 0 1 1.37-1.21c1.66.24 3.67.53 5.09.57q8.28.23 31.17.25.51 0 .94-.06"></path><path fill="#fefefe" fill-rule="evenodd" d="m231.025 823.669 2.22 2.992a.31.31-3.287 0 1-.064.434l-10.763 7.974a.31.31-37.204 0 0-.058.442l7.594 9.554a.31.31 1.152 0 0 .427.057l9.61-7.118a.31.31-6.581 0 1 .434.065l2.33 3.142a.31.31-18.685 0 1-.064.434l-9.773 7.234a.31.31-40.13 0 0-.058.442l10.601 13.338a.31.31-4.005 0 1-.059.442l-3.597 2.667a.31.31 5.775 0 1-.431-.06l-23.582-30.748a.31.31 75.874 0 1 .061-.438l14.738-10.918a.31.31-75.581 0 1 .434.065"></path><path fill="#0c3880" fill-rule="evenodd" d="M692.92 874.64q-9.45 3.47-19.13 7.07-10.75 4-19.31 6.57c-11.5 3.46-17.81 5.75-26.68 7.7q-11.41 2.5-20.6 4.87c-8.68 2.23-19.75 3.6-25.98 4.4-6.31.81-12.21 2.64-18.09 3.44-21.69 2.94-44.11 3.66-64.78 3.01q-17.54-.55-32.49-3.11-21.34-3.65-30.74-4.19-2.68-.15-11.97-1.99-7.83-1.56-11.91-2.66c-30.51-8.29-48.94-13.39-70.26-21.47q-2.49-.94-8.65-3.67 18.18-6.35 36.96-13.15c12.73-4.61 22.42-6.84 35.07-10.16q7.61-2 16.78-3.67 4.72-.86 16.96-2.86 28.78-4.71 58.06-5.29l.04 33.47a.82.82-.345 0 0 .83.82l26.53-.24a.64.64-.455 0 0 .63-.64l.14-33.95q27.63.96 48.39 3.06 9.51.96 23.57 3.76c6.95 1.38 15.74 2.26 20.71 3.57q6.24 1.65 21.97 5.93 9.29 2.54 21.52 7.02 16.54 6.05 32.43 12.36"></path><path fill="#092a6f" fill-rule="evenodd" d="m277.85 887.41 24.96 26.11a.326.321 62.866 0 1-.17.54c-.9.18-1.77.14-2.77.43q-9.01 2.68-14.62 4.28-15.21 4.34-34.24 12.8-20.52 9.11-27.51 12.71-30.33 15.66-59 34.5-16.46 10.82-21.41 14.3-18.61 13.09-36.72 27.54-1.37 1.09-3.37 3.38h-1.67q4.37-13.31 8.21-26.62 6.03-20.95 12.18-42.6 3.31-11.67 7.84-29.39a.465.459-83.233 0 0-.45-.58q-47.9.79-96.05-5.77a.336.335-54.989 0 1-.11-.63q22.08-11.55 38.93-20.6 5.35-2.87 10.33-5.53 12.47-6.66 22.14-12.16 15.35-8.71 22.09-12.25 22.05-11.55 45.05-22.13l71.46 65.76a1.5 1.5-42.925 0 0 1.94.07q15.87-12.6 32.96-24.16M853.21 845.69q2.93 1.76 4.58 2.53 24.91 11.52 50.29 25.46c28.01 15.38 56.72 31.14 83.72 45a.163.158-34.614 0 1-.06.3q-48.16 6.64-95.89 5.83a.474.472 88.344 0 0-.48.51q.2 2.76.93 5.33 13.26 46.73 27.04 93.35h-.99q-2.98-2.88-4.09-3.77-45.24-36.33-95.78-64.84c-4.84-2.73-10.3-5.29-15.25-8.1q-4.85-2.75-11.49-5.94-21.31-10.23-39.52-17.06-14.5-5.44-33.84-10.6a.34.336-60.307 0 1-.15-.56l24.48-25.9q1-.29 1.53.14 1.44 1.19 8.21 6.1 17.51 12.71 25.02 18.71a1.059 1.057-48.588 0 0 1.42-.09q3.1-3.19 10.23-9.71 15.18-13.9 30.02-27.73 15.42-14.36 30.07-28.96" data-source="https://football-logos.cc"></path><!-- source: https://football-logos.cc --></svg>