<svg xmlns="http://www.w3.org/2000/svg" viewBox="33.82 36.32 1463.33 2002.44"><path d="M657.742 36.328q-.707-.027-1.982.053-4.99.31-8.76.33-74.8.51-150.75.44L48.59 36.85a.69.69 0 0 0-.66.49q-.4 1.4-.53 3.84-3.22 59.5-4.04 77.32-1.41 31.04-4.72 127.52-2.24 65.41-4.25 201.23-.38 25.41-.53 78.5-.12 44.32.16 80.75.62 81.37.57 106.34c-.01 2.4.3 5.21.31 7.69.25 54.86 1.16 100.29 1.95 167.22q.79 67.03 2.87 125.75 1.34 37.79 2.88 62.87 5.64 91.479 26.56 183.66c3.75 16.53 10.16 39.7 14.41 54.66q11.35 39.91 27.43 81.82 11.71 30.53 17.49 43.77 9.99 22.89 27.75 59.36 2.801 5.75 9.72 18.65 7.751 14.43 10.03 18.48Q187.1 1556.46 204 1584c7.66 12.47 14.46 22.05 23.53 35.73q8.83 13.33 31.79 44.17a473 473 0 0 0 14.15 18.06c7.9 9.61 15.4 20.09 25.21 30.47q2.22 2.36 8.01 9.2 13.05 15.402 31.58 34.61 54.95 56.96 117.78 104.21 16.97 12.77 40.19 28.7 29.72 20.34 44.32 28.8c16.79 9.73 31.84 18.26 46.1 27.37q2.801 1.79 36.3 21.32 9.74 5.68 30.61 18.67c20.66 12.88 35.73 21.82 55.81 33.9 10.39 6.26 19.56 12.08 31.5 19.26a2.04 2.04 0 0 0 2.25-.11c5.53-4.05 11.93-7.59 17.43-11.2 20.88-13.73 39.13-25.15 58.44-37.71a20558 20558 0 0 1 129.43-83.53q13.38-8.57 33.65-22.36 3.01-1.89 6.1-3.9 38.62-25.16 76.51-54.59 35.53-27.61 71.18-61.36 52.33-49.56 98.01-103.58 5.19-6.13 13.17-16.35c9.18-11.77 18.53-23.14 27.7-35.53q28.91-39.13 52.17-76.45c5.62-9.03 10.3-17.63 14.99-25.37q6.861-11.31 24.55-45.56a411 411 0 0 0 3.55-7.09q33.87-69.1 56.55-139.68a828 828 0 0 0 7.1-23.37q6.52-22.61 14.1-55.67c10.5-45.82 17.79-91.71 21.68-137.98q1.82-21.56 2.25-28.83 5.92-100.6 6.29-106.56 3.97-63.92 5.05-88.19c4.171-79.843 7.147-159.727 9.89-239.63q2.45-69.05 3.48-168.87c.01-.853-.07-2.68-.23-5.48l.08-2.56q.49-17.359.63-34.71.51-61.06.069-112.5c-.79-89.88-3.64-181.42-9.83-271.93a.82.82 0 0 0-.819-.77l-503.92.09-102.49-.35c-7.618 11.857-.235 8.626-.24.22v.01c1.46 6.573.16.21.16.21-224.05-.85-.16-.21-221.22-.74q-.14-.135-.848-.162" data-source="https://football-logos.cc" style="fill:#fff;fill-opacity:1"/><g fill-rule="evenodd" data-source="https://football-logos.cc"><path fill="#f6c822" d="M495.96 64.6q-.8-13.96.29-27.45 75.95.07 150.75-.44 3.77-.02 8.76-.33 2.55-.16 2.83.11a.255.25-20.613 0 1-.2.43q-1.56-.11-11.3 1.81-3.55.69-11.23 1.55-47.22 5.26-97.68 15.09-6.7 1.31-19.59 4.43c-6.84 1.66-14.61 3.92-22.63 4.8"/><path fill="#0178b0" d="M496.25 37.15q-1.09 13.49-.29 27.45-.79.79-1.64.99-38.71 9.28-72.86 21.17-8.88 3.09-21.73 7.5-28.54 9.78-70.68 29.52-34.65 16.23-66.64 35.89-16.32 10.02-42.13 27.6-1.81 1.23-.65 3.09 14.58 23.46 24.73 40.27 64.17 106.25 126.84 209.54a.487.482-33.401 0 0 .7.14q57.65-41.74 124.33-67.06l-.64 2.5a1.928 1.685 55.188 0 0-.06.54q.2 13.66.24 38.21.34 236.63.17 434.75-.03 32.02-.32 64.99-15.03 12.5-30.29 26.83-9.66 9.07-23.49 12.52-14.38 3.58-21.82 4.44-27.79 3.22-28.49 3.31c-14.86 1.93-27.95 5.17-39.92 13.75q-6.69 4.79-7.66 11.67-1.97 13.88 3.17 27.82 1.7 4.61 6.78 6.45 1.95.71 9.27.26 6.04-.36 9.3-1.08 18.84-4.12 29.93-7.44c11.63-3.49 20.24-5.03 31.62-8.23 4.68-1.32 9.58-1.96 14.18-3.67q3.18-1.17 10.54-3.12 5.05-1.34 14.58-4.45 4.81-1.57 22.08-6.66.43 8.61.44 10.86.17 311.62.09 623.25 0 1.14-.22 2.9l-50.47.43a.966.965-20.813 0 0-.72 1.6c4.31 4.94 11.08 9.54 13.87 12.05q2.13 1.92 2.56 2.97a1.776 1.757-56.782 0 1 .14.69l.02 53.7a.765.764-5.49 0 1-.62.75c-11.28 2.29-21.64 7.09-24.36 19.41q-.09.39.1.54.48.4.91.04 10.34-8.65 22.97-8.7a1.15 1.15-.247 0 1 1.16 1.15v4.4a.962.961 1.146 0 1-1 .96q-7.7-.31-14.32 4.11c-2.79 1.86-4.47 3.02-4.29 6.58a.913.913-16.624 0 0 1.37.74c1.83-1.05 3.19-3.22 4.95-4.11q5.39-2.74 12.61-3.56a.504.499 87.034 0 1 .56.51q-.46 24.18.03 51.34.06 3.11-1.94 4.99-5.23 4.93-17.65 13.83-.87.61-1.34 1.47a.499.494 15.982 0 0 .41.73c7.07.4 14.25-.15 20.47-.2q3.25-.02 34.38.06.66 0 .21.89l.09 7.37-49.27-.23a1.495 1.485 77.241 0 0-1.34 2.14l.03.07a3.791 3.641 76.46 0 0 3.36 2.15l47.25-.38q.24 41.47-.01 82.78 0 .76.21 2.09.15.94.2 2.14-23.22-15.93-40.19-28.7-62.83-47.25-117.78-104.21-18.53-19.21-31.58-34.61-5.79-6.84-8.01-9.2c-9.81-10.38-17.31-20.86-25.21-30.47q-7.35-8.93-14.15-18.06-22.96-30.84-31.79-44.17c-9.07-13.68-15.87-23.26-23.53-35.73q-16.9-27.54-28.01-47.23-2.28-4.05-10.03-18.48-6.92-12.9-9.72-18.65-17.76-36.47-27.75-59.36-5.78-13.24-17.49-43.77-16.08-41.91-27.43-81.82c-4.25-14.96-10.66-38.13-14.41-54.66q-20.92-92.18-26.56-183.66-1.54-25.08-2.88-62.87-2.08-58.72-2.87-125.75c-.79-66.93-1.7-112.36-1.95-167.22-.01-2.48-.32-5.29-.31-7.69q.05-24.97-.57-106.34-.28-36.43-.16-80.75.15-53.09.53-78.5 2.01-135.82 4.25-201.23 3.31-96.48 4.72-127.52.82-17.82 4.04-77.32.13-2.44.53-3.84a.693.689-81.448 0 1 .66-.49z"/><path fill="#f6c822" d="m982.38 37.14.27 14.07q-8.79-1.35-17.7-2.69-33.99-5.09-50.24-7.17c-12.28-1.57-23.64-2.37-34.9-4.12a.193.191 7.913 0 1-.16-.21v-.01a.241.23 1.245 0 1 .24-.22z"/><path fill="#d3242b" d="m1496.25 456.96-.28-11.34a.377.377-41.924 0 0-.75-.04q-1.02 7.59-.19 15.85a.399.399 47.144 0 0 .79.03l.35-1.94q.24 4.2.23 5.48-1.03 99.82-3.48 168.87-.49 13.87-1.38 42.56-2.16 69.8-6.24 148.94-.9 17.4-2.27 48.13-1.08 24.27-5.05 88.19-.37 5.96-6.29 106.56-.43 7.27-2.25 28.83c-3.89 46.27-11.18 92.16-21.68 137.98q-7.58 33.06-14.1 55.67-3.57 12.37-7.1 23.37-22.68 70.58-56.55 139.68-1.89 3.86-3.55 7.09-17.69 34.25-24.55 45.56c-4.69 7.74-9.37 16.34-14.99 25.37q-23.26 37.32-52.17 76.45c-9.17 12.39-18.52 23.76-27.7 35.53q-7.98 10.22-13.17 16.35-45.68 54.02-98.01 103.58-35.65 33.75-71.18 61.36-37.89 29.43-76.51 54.59-3.09 2.01-6.1 3.9.09-18.55-.03-37.04-.1-14.86.1-37.04.18-20.18-.12-42.98-.06-4.85-1.02-9.05 2.05-3.97 4.26-6.93 4.2-5.63 11.34-13.69 4.02-4.55 7.4-7.33a1.169 1.167-49.203 0 1 1.35-.1q1.6.96 2.3 3.09a1.58 1.58 54.083 0 1-.23 1.44q-5.99 8.06-6.8 8.95-11.51 12.69-15.68 19.07-1.24 1.91-1.11 3.29a.47.467 78.033 0 0 .61.4q1.94-.64 3.94-3.02 10.06-11.94 19.33-23.43a.998.993-49.199 0 1 1.45-.11q.24.23.52.98 6.8 17.79 12.35 35.73a3.176 3.174-25.165 0 1-1.3 3.6q-7.47 4.84-13.56 10.89a.838.836 28.458 0 0 .42 1.41q.42.09.67.09 59.08-.18 60.48-.06.58.05.78-.25.34-.53-.16-.96-7.32-6.2-12.84-9.94c-2.65-1.79-4.5-4.02-5.68-6.65-4.22-9.44-7.8-21.11-11.77-31.34-5.56-14.37-8.19-19.97-10.89-30.16a1.11 1.11-18.622 0 1 .65-1.31q9.47-3.92 19.84-3.34a.859.858 78.722 0 0 .82-1.23c-2.35-4.87-4.09-8.29-5.5-13.01q-.86-2.9-2.66-8.55a1.253 1.248-27.174 0 0-1.94-.62l-8.99 6.66a.573.571 59.725 0 1-.87-.23q-2.12-4.92-3.68-9.15-5.72-15.61-11.77-31.51-.95-2.49-2.22-7.14a1.209 1.184-33.892 0 1 .22-1.06l10.47-13.24a1.367 1.367-47.905 0 0-.22-1.92l-.3-.24a1.354 1.35 36.711 0 0-1.94.28q-4.88 6.9-10.35 12.27c-1.43 1.4-1.71 2.43-1.09 4.3q7.57 22.81 16.97 47.81a4.087 4.075-28.675 0 1-1.39 4.72l-.56.42a2.008 2.004-28.309 0 1-3.08-.92l-20.11-54.95a2.757 2.75 56.034 0 1 .54-2.79l11.33-12.51a.789.786-69.214 0 0-.59-1.32l-29.33.46-.3-850.68q24.85-3.11 37.43-6.57 4.99-1.38 6.89-1.61a2.936 2.84 27.52 0 0 .91-.27c2.56-1.25 6.28-1.68 9.39-2.88q12.18-4.72 24.6-12.2 15.38-9.25 23.11-13.88 3.57-2.15 12.72-8.75 6.01-4.34 12.72-8.74 10.6-6.94 22.48-16.77c8.94-7.39 15.43-14.21 25.14-23.2 6.35-5.89 11.6-8.88 19.88-13.52q4.52-2.54 8.95-4.52c11.39-5.09 22.38-11.9 29.69-22.51 3.41-4.95 5.42-7.48 6.64-12.25q1.92-7.52 2.59-15.76.45-5.56-3.61-8.37a1.21 1.206 20.391 0 1-.52-1.13l.77-6.84a1.858 1.754 39.983 0 0-.09-.77q-1.45-4.38-5.88-6.29-11.76-5.08-22.71 1.71-4.07 2.52-10.14 6.57c-4.47 2.98-10.83 6.42-13.55-.15q-1.05-2.54-3.38-9.26-1.93-5.54-7.36-5.39c-8.05.23-10.54 5.22-12.36 12.21-1.85 7.13-3.35 15.25-6.42 22.25-2.49 5.72-6.04 9.55-10.6 15.29-3.39 4.27-5.12 8.52-7.77 13.36q-2.63 4.83-9.62 9.74a5.377 4.588.13 0 0-.73.62q-2.53 2.62-5.77 4.55-7.73 4.62-16.93 8.04-3.49 1.3-7.01 1.86a.76.76 45.021 0 0-.62.62l-.23 1.33q.11-.47-.03-.83-.17-.4-.62-.4c-4.89-.02-10.43-.55-15.95 0q-9.22.93-21.28 5.73-4.16 1.66-6.06 3.83l.16-.74a.492.49 74.155 0 0-.82-.46q-2.14 2.1-4.69 3.02-12.24 4.45-18.21 6.3a5.301 5.111-52.889 0 1-1.59.25q-4.73.01-10.02 1.86-3.33 1.17-3.56 3.26l-18.41 14.85q-.24-.67-.66-.61 2.32-1.18 3.13-3.26a.322.242 63.435 0 0 .02-.11V343.57q16.52 3.86 27.21 6.79 5.71 1.57 14.76 4.76-.61.26.43 1a.844.732 67.5 0 0 .28.14l17.47 5.5a.29.056 34.099 0 1 .07.03q7.6 3.43 16.09 5.64 1.77.46 1.35-.36 37.77 13.97 64.45 27.45 25.53 12.9 49.27 27.34a.799.796 31.966 0 0 1.09-.25q5.05-8.1 8.11-12.91 38.4-60.43 136.5-214.98 1.58-2.48 2.26-4.52a1.333 1.327 26.583 0 0-.51-1.52c-17.38-11.91-38.86-26.2-59.88-38.04-9.84-5.54-24.07-13.36-35.49-19.01q-45.84-22.65-93.43-39.48-6.63-2.34-16.54-5.53c-7.41-2.38-14.48-5.25-22.11-7.46-10.4-3-20.37-6.1-31.2-8.86q-16.28-4.17-34.35-8.79-15.23-3.89-45.34-9.3l-.27-14.07 503.92-.09a.823.822 88.138 0 1 .82.77c6.19 90.51 9.04 182.05 9.83 271.93q.44 51.44-.07 112.5-.14 17.35-.63 34.71m-415.9 1341.96-66.12.11a1.362 1.357 78.091 0 0-1.24 1.91l.09.21a3.279 3.268-11.606 0 0 3.03 1.99q28.03-.14 60.14-.18 5.27 0 10.91-.75a.633.631-25.347 0 0 .38-1.06q-9.62-10.26-17.39-17.58c-5.55-5.22-9.83-10.52-12.05-16.83q-9.54-27.04-14.93-38.9c-1.11-2.43-2.22-6.46-2.72-8.73a.823.82 83.772 0 1 .8-1h23.66a1.406 1.406 69.466 0 0 1.06-2.33q-3.81-4.37-5.91-8.61-3.42-6.9-7.75-17.21-.58-1.38-1.51-2a1.306 1.304-78.573 0 0-2 1.33q.38 2.08 1.17 3.54 3.74 6.95 6.95 14.53c1.14 2.69 2.11 4.01 3.3 5.99a.552.55 64.396 0 1-.28.8q-.99.38-3.1.46-7.73.3-20.05.32a.54.53 90 0 0-.53.54q0 1.53.59 3.17 8.56 23.89 19.26 51.25c1.28 3.28 2.93 6.2 5.02 8.53q5.22 5.84 16.37 16.26 1.05.98 3.11 3.72a.325.325-32.545 0 1-.26.52"/><path fill="#21211f" d="M775.16 164c-18.16 4.21-38.36 3.1-57.48 1.91a.705.703 1.118 0 0-.75.72q.85 38.41 1.01 54.12.07 5.85.77 7.58a2.89 2.859-83.347 0 0 .97 1.24q7.34 5.33 12.41 11.09a.815.812 69.062 0 1-.6 1.35l-56.04.74a.289.287 23.349 0 1-.2-.5l14.9-13.6a3.88 3.86-21.759 0 0 1.25-2.89l-.69-52.68a.424.417-5.865 0 0-.5-.4q-10.25 1.86-15.14 8.86a1.308 1.307-48.326 0 1-2.05.12l-.14-.17a1.857 1.848-45.133 0 1 0-2.45c3.24-3.64 7.22-6.66 11.9-7.63q2.77-.58 4.08-.9a3.081 3.078-11.069 0 0 2.31-3.43l-.07-.51a2.59 2.59-8.984 0 0-3-2.18q-11.79 1.99-18.45 10.38a1.124 1.124-32.955 0 1-1.97-.42q-.2-.78.07-2.11c2.17-10.33 12.32-17.75 22.24-19.75a.508.505 83.97 0 0 .41-.51l-.7-53.88a3.8 3.8-71.722 0 0-1.49-2.96q-8.04-6.16-14.73-13.08a.55.549-22.869 0 1 .38-.93l57.25-1.52a.564.561 11.596 0 1 .53.8q-.75 1.65-2.41 3.32-7.02 7.11-13.07 12.52a1.263 1.239 69.327 0 0-.41.93l.7 53.25a.244.233-88.699 0 0 .21.23l7.28.85a.132.124-88.317 0 0 .14-.14l-1.42-53.21a.642.638 73.013 0 1 .28-.53q3.66-2.38 7.02-6.33c1.56-1.82 3.74-3.59 5.8-5.53a1.455 1.448-45.448 0 1 1.97-.02l.71.65a1.206 1.204 43.408 0 1 .05 1.75l-11.76 11.76a1.103 1.092 67.091 0 0-.32.8l1.35 50.46a.564.554-88.323 0 0 .51.55c10.23.97 21.54 1.55 32.54.21q1.72-.21 12.57-1.27a1.451 1.445-3.233 0 0 1.31-1.46l-.7-53.36a4.07 4.056-69.443 0 0-1.33-2.94l-13.89-12.59a.621.62-24.248 0 1 .41-1.08l58.2-.77a.359.359 21.928 0 1 .26.61l-16.31 16.3a2.931 2.899 67.258 0 0-.85 2.11q.73 31.65 1.43 109.24c.05 5.55.45 13.99.83 19.11a2.326 2.3 14.457 0 0 1.07 1.79q3.95 2.49 7.69 6.66c1.66 1.85 4.05 3.28 5.58 5.27a.616.614 70.983 0 1-.48.99l-56.04.74a.627.627 23.49 0 1-.43-1.09l14.07-12.85a4.206 4.172 68.652 0 0 1.36-3.14q-.21-18.78-.45-36.7-.11-8.51.41-13.33a.544.542-85.483 0 0-.51-.6c-.78-.04-1.93.45-2.7.6q-1.76.34-11.02 1.37c-10.85 1.19-21.97.82-32.77.5a.621.612.013 0 0-.64.63l1.34 50.33a3.248 3.205-66.837 0 0 .79 2.01c4.03 4.59 10.05 9.79 14.12 15.17q2.23 2.94 5.79 6.81a.62.619 68.005 0 1-.44 1.04l-64.41 1.72a3.889 3.872 67.864 0 1-2.97-1.26l-1.05-1.15a.801.793-21.37 0 1 .59-1.33q21.73-.16 59.61-1.49.39-.01.48-.09a.699.697 51.674 0 0 .12-1.04l-15.49-16.96a4.36 4.36 23.373 0 1-1.15-2.9l-.72-54.6a.533.532 1.484 0 1 .57-.54c7.59.48 15 .25 21.96.41q7.95.18 13.95-.43 6.15-.63 14.02-1.85a.326.323-4.106 0 0 .28-.32v-6.11a.093.092-5.237 0 0-.11-.09"/><path fill="#21211f" d="M826.87 246.89q-8.28-9.99-9.68-11.26-4.68-4.23-6.45-6.56-.97-1.29-1.05-5.07c-.21-10.08.13-19.37-.21-29.66-.85-25.82-.97-64.49-2.09-95.58a1.818 1.816-23.525 0 1 .52-1.32l12.73-12.72a1.02 1.02 80.717 0 1 1.44 0l1.42 1.43a.998.992 46.355 0 1-.03 1.44l-11.13 10.16a3.038 3.012-21.895 0 0-.98 2.27q.76 61.78 2.26 125.22.04 1.69 2.06 3.84 8.41 8.93 16.6 18.03 1.29 1.44 1.21 2.83a.683.682-89.545 0 1-.66.65l-62.89 1.67a4.598 4.595-21.954 0 1-3.53-1.5l-.95-1.04a.85.848-21.477 0 1 .62-1.42l60.5-.8a.377.373-19.828 0 0 .29-.61M626.95 91.05q.18.58-.17 1.7-5.7 18.39-9.77 33.49-1.46 5.41-2.25 11.71a.978.977 11.263 0 1-1.23.82q-1.65-.46-2.54-2.25-4.33-8.63-6.42-11.72c-9.38-13.91-26.49-23.02-43.4-17.61-21.03 6.74-27.86 26.55-27.84 47.19q.04 32.55 13.2 62.31c6.66 15.04 16.28 26.81 32.11 32.6q3.06 1.12 10.37 1.25 17.93.32 30.58-10.53 4.88-4.19 7.52-9.59c5.77-11.78 4.97-23.26 4.26-35.72a1.349 1.332 75.398 0 1 .74-1.28l5.11-2.56a1.156 1.15 52.739 0 1 1.3.18q1.56 1.44 2.41 4.28 4.8 16.1-.63 32.58-6.99 21.23-28.09 29.61-24.21 9.63-48.93 3.64-15.39-3.72-28.21-15.2-10.85-9.71-18.61-26.24-13.98-29.77-9.07-62.09 3.24-21.29 17.28-38.78c15.66-19.51 39.41-27.78 64.09-24.44q4.1.56 12.01 2.07 2.25.43 9.65.29a1.878 1.699 31.925 0 0 .5-.09l8.25-2.63a2.898 2.736-73.216 0 0 1.01-.58q2.4-2.13 5.38-3.12a1.09 1.09 72.051 0 1 1.39.71"/><path fill="#21211f" d="M623.229 143.384a.95.95 0 0 1-1.182.639l-2.319-.691a.95.95 0 0 1-.639-1.182l14.022-47.034a.95.95 0 0 1 1.182-.639l2.319.691a.95.95 0 0 1 .639 1.182zM835.65 250.76l-.77-1.86a.544.543-5.572 0 1 .61-.74l62.05 12.42a.495.49 84.663 0 0 .55-.67c-4.6-11.6-11.74-21.94-7.22-35.53 3.1-9.33 6.92-15.5 12.36-24.4q2.6-4.26 4.91-6.58a1.738 1.726 54.276 0 0 .32-2l-3.21-6.41a.641.634-42.112 0 0-1.11-.05q-7.88 12.44-13.5 21.94c-4.65 7.88-8.39 17.3-7.58 26.58q.19 2.21 1.92 5.82 2.78 5.85 6.45 11.56.27.43.25.76a.392.389-81.978 0 1-.46.35l-59.32-11.88a.797.792-46.261 0 1-.03-1.55c4.33-1.1 7.87-2.02 11.65-4.16q12.82-7.27 19.78-14.07c6.32-6.18 11.86-13.85 17.44-22.4q7.92-12.13 10.78-16.61 1.5-2.36 3.03-5.62a.903.902 32.281 0 0-.24-1.06c-4.95-4.21-10.26-8-16.45-9.35a.565.564 26.416 0 1-.31-.92l14.21-16.46a1.295 1.295 45.269 0 1 1.97.01l10.49 12.41a1.464 1.461-52.84 0 0 2.45-.34l1.17-2.59a3.301 3.29 34.633 0 0-.68-3.68l-9.19-9.19a1.674 1.671 43.036 0 1-.08-2.27l.46-.53a1.57 1.57 45.222 0 1 2.39.01l9.58 11.33a.544.542 41.643 0 0 .87-.05q4.79-7.24 8.8-13.42c6.25-9.64 12.23-17.69 17.31-26.96a2.945 2.924 43.467 0 0-.09-2.96l-8.56-13.68a.631.628-10.318 0 1 .66-.95l56.74 11.35a.556.555 32.512 0 1 .22.99l-15.46 11.47a.817.798 67.363 0 0-.31.78l9.64 56.12a1.17 1.17-16.509 0 0 1.6.88l3.64-1.5a1.335 1.331 70.498 0 0 .76-1.6q-1.43-4.91-2.08-8.81-3.26-19.65-6.83-41.05a2.17 2.17 67.178 0 1 .86-2.11l13.87-10.29a1.035 1.035 47.192 0 1 1.3.05l1.81 1.55a.772.771-42.654 0 1-.05 1.2l-13.34 9.89a1.254 1.235-23.407 0 0-.49 1.21l8.01 46.6a1.406 1.403-11.159 0 0 1.69 1.13c3.59-.78 7.19-3.07 10.63-5.24a.48.476 72.216 0 1 .73.38q.82 12.68 4.12 26.18a.523.522 3.887 0 1-.7.61q-10.72-4.2-22.14-2.33a.849.844 81.177 0 0-.69.95c1.17 8.62 3.32 22.83 5.45 34.07q2.94 15.48 4.75 28.22c.29 2.03 1.5 4.15 2.94 5.78 3.72 4.23 10.86 11.39 11.06 14.78a.742.741 13.102 0 1-1.11.69c-2.78-1.61-5.76-1.48-8.61-2.23q-12.28-3.19-23.5-5.32c-8.85-1.68-15.37-3.49-24.12-5.34q-1.08-.23-2.44-.81a.636.635-46.565 0 1-.03-1.15l17.62-8.83a1.099 1.092-15.496 0 0 .61-1.07q-.35-4.26-1.13-8.82-2.9-17.01-5.27-28.82a.504.501 73.734 0 0-.67-.37q-1.1.44-2.5 1.45-13.22 9.58-23.28 18.51a2.9 2.9-59.114 0 1-3.06.77l-.2-.07a.919.913 33.433 0 1-.32-1.54q10.91-9.96 22.7-18.59 3.17-2.32 6.42-3.47a.618.617-14.302 0 0 .41-.69l-.89-5.21a.612.604-18.6 0 0-.88-.43q-16.95 8.85-30.49 22.74a.588.587 57.194 0 1-.97-.21q-6.02-16.18-14.48-31.91a.501.501 33.39 0 0-.88 0q-2.8 5.11-6.26 10.61-3.61 5.72-7.8 14.95-5.67 12.49.2 25.6 3.59 8 9.46 17.96a.517.512 80.306 0 1-.54.77l-68.11-13.63a1.761 1.73 84.071 0 1-1.27-1.05m108.59-125.2a.204.204-37.038 0 0-.36-.05l-31.26 45.85a1.801 1.797-46.441 0 0 .05 2.1c7.26 9.54 12.22 20.62 17.74 31.29a.699.693-31.649 0 0 1.03.24l3.65-2.71a1.253 1.241 61.427 0 0 .42-1.45q-5.48-14.38-15.03-26.61a1.427 1.412 43.231 0 1-.06-1.65q11.4-17.02 20.4-30.49 2.31-3.45 4.13-7.04a3.576 3.534-30.188 0 0 .39-1.44q.24-4.12-1.1-8.04m1.9 14.52q-.49.47-.86 1.2-2.98 5.91-5.72 10.04-9.72 14.71-13.93 20.76a1.608 1.595 45.231 0 0 0 1.81q8.35 12.17 13.58 24.25a.884.882-29.911 0 0 1.34.36l13.97-10.36a.589.577-22.902 0 0 .23-.55l-8.14-47.36a.28.278-27.126 0 0-.47-.15M590.5 246.54l.07.13a.435.434-8.932 0 1-.46.63c-20.72-3.55-33.24-23.1-39.19-41.44q-4.72-14.56-7.07-30.4c-2.12-14.27-2.93-25.17-.18-38.07 2.57-12.06 11.94-21.87 24.17-24.5q13.29-2.87 25.51 6.59a.894.885-56.229 0 1 .22 1.14l-.02.02a.727.726 30.505 0 1-1.01.26c-2.37-1.45-4.51-2.96-7.27-3.76q-12.89-3.76-24.67 2.43-2.75 1.44-6.5 5.74c-5.2 5.96-7.78 18.99-7.79 25.46q-.04 27.54 9.09 55.31 6.45 19.61 20.76 32.25 5.45 4.81 13.19 7.26a1.97 1.966-5.377 0 1 1.15.95m-213.01-77.42a1.4 1.39-24.068 0 0-1.77-.67c-11.41 4.6-19.5 7.43-27.37 15.14a5.378 5.292 82.831 0 0-.97 1.27c-3.5 6.28-4.94 12.81-3.43 19.92q.45 2.1 1.34 7.13a1.315 1.315-86.183 0 1-1.69 1.48q-.73-.23-1.64-1.45-8.48-11.34-14.31-16.83-6.41-6.03-13.97-12.43a1.077 1.077 54.057 0 1 .29-1.82l143.91-57.78a.626.624 83.976 0 1 .85.69q-.95 5.29-2.42 18-1.35 11.67.52 23.47a1.105 1.105 1.962 0 1-1.34 1.25q-2.4-.56-3.65-2.6c-4.87-7.96-12.93-14.91-22.25-15.09q-4.96-.09-11.97 2.83-10.61 4.43-15.93 6.57a.405.396-21.798 0 0-.23.52l49.83 124.09a2.758 2.712-1.932 0 0 1.73 1.59q5.53 1.69 13.41 4.96 2.32.96 3.73 2.25a.636.631 55.933 0 1-.2 1.06c-18.05 6.83-34.89 14.32-51.86 19.89a.819.818 3.262 0 1-1-1.12q4.01-8.66 9.23-15.15a1.729 1.643-16.962 0 0 .3-.53q.54-1.52-.34-3.78c-6.62-16.93-11.27-29.31-17.25-43.58q-15.11-36-27.75-70.09a1.288 1.28-28.408 0 0-1.97-.58l-2.17 1.61a1.936 1.701-69.254 0 1-.49.26q-2.7.99-5.4 1.82c-4.45 1.38-8.1 4.27-11.15 6.99a4.471 4.407 85.499 0 0-.85 1.01c-4.75 7.66-4.19 14.08-3.1 23a1.316 1.313-81.261 0 1-1.85 1.36l-.51-.24a3.764 3.739 9.307 0 1-2.17-3q-.35-3.13-.61-7.99-.64-12.08 8.52-19.24c4.99-3.9 11.17-5.93 18.84-8.91a1.443 1.442-24.127 0 0 .76-1.99zm89.431-20.877q-.612 8.306-.566 20.578a1.218 1.21-3.301 0 1-1.085 1.209q-1.32.14-2.21-.16-.64-.22-.672-2.019-.223-11.226.418-19.912.64-8.686 2.507-19.757.295-1.775.96-1.899.925-.166 2.21.166a1.218 1.21 11.734 0 1 .896 1.355q-1.845 12.133-2.458 20.439M1097.73 138.1a.393.389 88.621 0 1 .5-.53q11.85 4.89 38.56 16.14c11.33 4.77 22.46 10.12 31.76 16.37q14.33 9.63 22.77 24.84c11.12 20.06 8 43.49.04 64.11-6.41 16.62-14.24 29.76-27.31 41.54q-2.6 2.34-3.27 3.1a5.347 5.169-82.435 0 1-1.35 1.07c-3.72 2.06-7.06 4.87-11.36 6.67q-21.58 9.04-44.96 2.67-11.46-3.12-22.08-7.84-21.2-9.42-51.39-22.71a.607.607-41.014 0 1 .08-1.14l18.62-5.16a3.727 3.692-85.371 0 0 2.4-2.06q22.39-49.59 39.06-86.26c3.98-8.75 9.88-20.8 13.96-31.17q.58-1.48-.01-3.48-2.54-8.53-6.02-16.16m-15.42 157.02q9.9 4.97 20.37 7.01c9.53 1.85 19.95-.7 27.91-6.55q12.43-9.14 20.72-21.98c11.2-17.33 20.71-38.28 21.56-59.12q.74-18.19-10.86-31.4c-8.47-9.64-20.44-14.39-31.94-19.48a.32.32 27.535 0 0-.42.16l-56.57 125.36a1.652 1.643 24.315 0 0 .83 2.18l4.49 2.03a1.089 1.086 19.286 0 0 1.5-.72q.7-2.76 1.72-4.98c9.16-19.96 18.72-41.58 27.47-60.57q14.12-30.67 23.75-52.93a1.436 1.422-67.648 0 1 1.82-.77q9.38 3.59 18.19 9.07 4.03 2.5 6.95 6.07 2.31 2.83 5.24 7.97a.42.417-38.083 0 1-.06.48l-.24.26a.605.604-42.491 0 1-.93-.04q-5.96-7.76-14.6-12.66-3.63-2.06-13.25-6.62a.488.477 22.551 0 0-.65.26q-3.31 8.33-4.26 10.4-33.32 73.1-40.33 88.66c-3.54 7.86-5.9 13.55-8.6 17.07a.557.554-57.931 0 0 .19.84"/><path fill="#21211f" d="M481.08 295.24a.735.733-43.381 0 0 .04-1.34q-11.38-5.51-21.01-11.47-1.23-.77-2.98-4.81c-6.6-15.24-13.38-33.22-19.96-48.97q-6.85-16.42-7.59-18.34c-6.24-16.23-12.89-31.11-18.79-47a1.157 1.15 65.991 0 1 .54-1.42q8.17-4.31 15.88-6.42c4.53-1.23 13.8-1.39 16.45 3.12a.554.553 83.368 0 1-.64.81c-8.04-2.5-15.6-.6-23.3 2.81q-2.71 1.2-3.41 1.89a1.428 1.402 71.039 0 0-.42.88q-.12 1.42.66 3.25 9.26 21.89 19.23 47.1c8.51 21.48 15.17 37.1 25.89 62.97.82 1.97 3.58 3.26 5.52 4.39q10.45 6.11 23.07 11.11a.914.909 44.455 0 1 .02 1.69l-60.01 24.8a3.685 3.678-45.578 0 1-2.73.03l-1.67-.64a.867.867 44.29 0 1-.02-1.61zm537.51-9.18a.298.297 76.207 0 0 .29-.48q-7.72-9.42-16.99-22.71-1.38-1.98-1.86-4.64-5.54-31.14-10.1-58.02a.934.933-1.648 0 1 1.02-1.08c7.81.78 15.19 2.64 22.73 4.68a.402.399-89.171 0 0 .49-.48l-6.17-27.61a1.825 1.825 76.704 0 1 1.34-2.17l.35-.08a1.123 1.123 39.922 0 1 1.36.82l8.15 33.27a.603.599-.56 0 1-.72.73l-24.49-5.67a.323.32 1.248 0 0-.39.37q5.21 26.54 9.46 52.24c.63 3.84 1.6 6.12 4.05 9.23q4.98 6.34 14.31 19.11 2.54 3.47 4.07 7.1a.43.43-5.888 0 1-.48.59q-31.14-6.51-55.09-11.18-5.44-1.07-12.07-2.57c-3.29-.75-5.2-.72-5.22-4.35a.251.246 5.767 0 1 .3-.24zm-459.25-20.88q2.12.86 2.71 1.03c22.94 6.72 51.11 3.8 70-11.93 13.04-10.86 19.18-28.4 18.75-45.55q-.14-5.52-.89-11.16a1.309 1.3 5.648 0 1 1.72-1.4l.2.07a3.52 3.52 5.095 0 1 2.35 2.81c3.36 22.35-3.54 47.09-22.22 60.42-18.59 13.26-43.8 16.93-65.9 9.53q-2.52-.84-6.8-3.68a.082.08-16.003 0 1 .08-.14m642.45-61.77c2.27 1.25 4.41 7.31 5.23 10.32 7.44 26.99-5.16 58.01-20.21 80.09-8.6 12.62-21.58 23.79-35.59 29.35q-21.93 8.7-46.36 2.44-13.42-3.44-25.05-8.43-23.24-9.97-45.93-20.7a2.548 2.546 5.014 0 1-1.36-1.62l-.64-2.3a.638.635 5.11 0 1 .89-.74q7.37 3.55 37.19 17.2c29.53 13.52 60.9 23.19 90.65 4.62 11.56-7.22 22.19-19.73 28.81-31.46 13.36-23.67 22.38-52.18 12.16-78.58a.152.149-86.562 0 1 .21-.19"/><path fill="#f6c822" d="M982.16 343.57v359.26a.322.242 63.435 0 1-.02.11q-.81 2.08-3.13 3.26-9.27 4.76-19.77 5.98-12.03 1.39-20.49 1.44c-9.13.04-19.99-1.98-27.87-3.36q-4.37-.76-7.76-.87c-6.95-.24-13.56.98-20.28 2.31-10.55 2.09-21.82 2.73-30.85 1.87q-16.19-1.55-16.24-1.55-3.77-.36-6.8-1.93a4.288 4.278-85.916 0 1-2.11-2.44q-1.83-5.3-1.59-11.4.55-14 .03-22.47-.7-11.24-4.65-25.2-1.99-7.03-7.8-17.29-6.96-12.28-9.86-16.48-3.85-5.59-9.37-7.09-25.37-6.91-52.99-2.99c-3.92.56-6.47.83-9 2.38q-4.78 2.92-10.21 7.29c-4.71 3.78-7.4 5.29-13.03 8.71-6.36 3.87-14.29 10.74-16.36 18.4q-1.27 4.64-3.5 12.8c-2.72 9.94-2.67 18.7-1.06 28.42q.7 4.22 3.41 11.14c3.86 9.88 8.78 18.77 11.88 27.2 1.59 4.33 3.1 9.56.82 13.49q-2.46 4.23-5.34 7.67-8.37 9.99-16.99 17.99-15.71 14.58-22.52 20.48-14.46 12.51-19.03 17.24-19.87 20.57-38.21 38.53-17.7 17.34-36.94 30.54c-4.7 3.23-8.18 4.9-11.92 7.69-2.87 2.14-6.44 3.85-9.42 5.83q-24.16 16.05-44.12 31.27-1.12.86-3.45 2.44.29-32.97.32-64.99.17-198.12-.17-434.75-.04-24.55-.24-38.21a1.928 1.685 55.188 0 1 .06-.54l.64-2.5q13.75-5.45 18.62-7.16 7.9-2.78 28.97-9.5c45.74-14.58 92.85-24.08 140.12-30.32q65.24-8.61 131.81-5.97 27.36 1.09 60.93 4.54 12.98 1.34 22.61 2.89c16.66 2.69 29.73 4.38 45.85 7.47q20.2 3.87 23.2 4.67 6.47 1.73 13.82 3.7"/><path fill="#21211f" d="M1059.82 367.07q.42.82-1.35.36-8.49-2.21-16.09-5.64a.29.056 34.099 0 0-.07-.03l-17.47-5.5a.844.732 67.5 0 1-.28-.14q-1.04-.74-.43-1zm436.43 89.89-.08 2.56-.35 1.94a.399.399 47.144 0 1-.79-.03q-.83-8.26.19-15.85a.377.377-41.924 0 1 .75.04zM982.14 773.62q-10.76 1.11-22.63 2.89c-14.78 2.22-32.42 9.51-41.43 21.68q-4.1 5.55-5.78 12.67-3.03 12.91-1.86 23.9 3.6 33.68 4.12 40.67 2.62 35.12-3.38 72.65c-.9 5.57-2.68 13.95-4.93 18.43-3.47 6.91-7.73 12.94-3.95 19.69 3.77 6.74 7.86 13.42 13.13 20.35q6.66 8.76 8.31 11.28 11.92 18.22 12.26 39.2.41 25.69-8.15 52.09-.05.14-14.33 41.43-5.09 14.72-13.14 35.53-2.66 6.88-6.78 19.72-3.44 10.74-5.53 20.1c-2.81 12.6-5 23.59-8.36 34.96q-4.52 15.32-4.99 16.6-5.03 13.82-10.18 21.38-7.42 10.9-13.2 17.5-7.21 8.24-8.31 9.54-5.6 6.56-8.44 9.39c-4.15 4.14-7.18 8.82-11.41 13.35q-3.78 4.06-7.79 9.22-4.19 5.4-2.05 10.87 2.75 7.02 9.08 14.64c5.98 7.19 11.93 13.76 16.14 21.38q3.71 6.73 4.16 7.81c3.14 7.42 3.32 17.76-2.32 24.29q-2.08 2.42-6.24 4.15-5.8 2.42-7.09 2.64-19.11 3.23-38.32 2.42-20.11-.84-29.24-1.5-7.29-.53-10.67-2.14c-15.3-7.3-24.85-29.85-16.97-45.44q2.61-5.16 5.74-9.11c7.28-9.16 12.98-15.61 18.07-25.03 9.57-17.73 17.26-37.95 21.46-58.25q4.16-20.13 4.53-22.13.78-4.17 3.89-26.51 1.73-12.5 3.11-17.18c2.23-7.56 6.11-17.56 11.64-23.21 4.7-4.82 6.54-6.88 6.74-13.04.21-6.36-.05-12.65-1.44-18.9q-.36-1.59-1.64-8.82-3.03-17.06-13.35-29.58-2.46-2.97-8.13-5.05c-6.08-2.23-16.44 8.47-20.46 12.39q-15.92 15.53-28.11 28.27-2.52 2.64-4.13 4.58c-3.53 4.27-6.61 7.65-9.7 11.93q-6.86 9.5-18.68 24.33c-11.19 14.05-24.76 28.04-40.86 36.29-12.85 6.6-27.61 7.88-40.36.06q-5.84-3.59-7.15-4.64-3.29-2.64-10.9-11.05-10.63-11.74-12.46-27.72-1.84-16.09-2.07-43.58-.01-1.87.97-8.02.66-4.06.95-8.03 1.98-26.54 4.83-52.45.61-5.52-1.3-9.8-5.57-12.43-8.54-21.7c-3.21-10.02-6.96-17.07-12.59-26.15-2.8-4.52-6.37-11.58-4.77-16.93q1.43-4.76 4.64-10.16c6.29-10.58 11.97-21.32 25.79-21.16q6.91.09 16.29 4.7 7.41 3.65 14.25 9.36 4.35 3.62 10.63 2.88 2.72-.33 6.49-3.17c6.83-5.16 13.45-11.84 20.88-7.31 7.24 4.43 13.86 10.16 22.46 4.28 9.8-6.72 17.33-17.87 21.15-28.86 2.06-5.92 1.89-10.85-.53-16.98-3.68-9.34-7.99-18.4-13.71-30.76-4.67-10.11-10.62-20.58-16.77-29.95q-3.04-4.63-7.94-9.04-4.1-3.69-8.25-.49-4.58 3.54-10.2 7.05-10.7 6.68-21.79 12.61-11.6 6.21-14.93 8.48c-11.69 7.95-21.83 15.52-32.5 24.21q-16.05 13.07-35.24 22.25-22.19 10.62-52.48 20.77-17.27 5.09-22.08 6.66-9.53 3.11-14.58 4.45-7.36 1.95-10.54 3.12c-4.6 1.71-9.5 2.35-14.18 3.67-11.38 3.2-19.99 4.74-31.62 8.23q-11.09 3.32-29.93 7.44-3.26.72-9.3 1.08-7.32.45-9.27-.26-5.08-1.84-6.78-6.45-5.14-13.94-3.17-27.82.97-6.88 7.66-11.67c11.97-8.58 25.06-11.82 39.92-13.75q.7-.09 28.49-3.31 7.44-.86 21.82-4.44 13.83-3.45 23.49-12.52 15.26-14.33 30.29-26.83 2.33-1.58 3.45-2.44 19.96-15.22 44.12-31.27c2.98-1.98 6.55-3.69 9.42-5.83 3.74-2.79 7.22-4.46 11.92-7.69q19.24-13.2 36.94-30.54 18.34-17.96 38.21-38.53 4.57-4.73 19.03-17.24 6.81-5.9 22.52-20.48 8.62-8 16.99-17.99 2.88-3.44 5.34-7.67c2.28-3.93.77-9.16-.82-13.49-3.1-8.43-8.02-17.32-11.88-27.2q-2.71-6.92-3.41-11.14c-1.61-9.72-1.66-18.48 1.06-28.42q2.23-8.16 3.5-12.8c2.07-7.66 10-14.53 16.36-18.4 5.63-3.42 8.32-4.93 13.03-8.71q5.43-4.37 10.21-7.29c2.53-1.55 5.08-1.82 9-2.38q27.62-3.92 52.99 2.99 5.52 1.5 9.37 7.09 2.9 4.2 9.86 16.48 5.81 10.26 7.8 17.29 3.95 13.96 4.65 25.2.52 8.47-.03 22.47-.24 6.1 1.59 11.4a4.288 4.278-85.916 0 0 2.11 2.44q3.03 1.57 6.8 1.93.05 0 16.24 1.55c9.03.86 20.3.22 30.85-1.87 6.72-1.33 13.33-2.55 20.28-2.31q3.39.11 7.76.87c7.88 1.38 18.74 3.4 27.87 3.36q8.46-.05 20.49-1.44 10.5-1.22 19.77-5.98.42-.06.66.61c-8.39 6.28-16.32 7.58-27.24 8.65a8.686 8.438-55.291 0 0-1.73.34q-3.41 1.02-7.88 2.49c-4.79 1.57-13.96.1-19.5-1.25-6.61-1.62-11.13-2.25-18.66-3.78q-6.04-1.24-8.81-1.27-7.21-.08-14.54 2.37a4.464 4.263-68.123 0 0-.88.4q-3.76 2.24-7.63 3.8c-3.4 1.37-8.04 4.44-9.88 8.13a1.3 1.278 43.575 0 0 .04 1.19q1.45 2.49 2.41 3.15 10.22 7.04 12.94 9.17c2.22 1.74 4.3 4.79 2.63 7.49-2.36 3.82-14.92 14.9-20.49 14.01q-4.25-.69-4.86-5.54-.34-2.69.21-9.63c.38-4.82-1.52-14.46-5.58-18.63-4.93-5.06-15.91-5.35-22.28-3.75a1.733 1.725 76.713 0 0-1.26 2.05q3.72 16.68.6 34.14c-2.07 11.55-5.02 20.79-11.27 31.42-5.05 8.61-14.71 14.55-24.05 17.72q-17.54 5.94-35.19 1.23-3.54-.95-11.42-4.19c-9.98-4.11-18.4-7.11-24.06-13.08q-8.41-8.86-10.67-11.05c-5.26-5.1-10.44-9.72-17.14-10.85-3.7-.62-13.75-2-16.83 1.63a.859.85 27.256 0 0 .45 1.38c5 1.24 11.56 1.95 15.31 5.18a2.848 2.833-55.759 0 1 .65 3.47c-1.42 2.72-6.27 4.95-10.76 7.55a9.302 9.257-.471 0 0-3.43 3.47c-2.15 3.77-4.15 8.25-8.42 7.89-4.74-.4-14.94-1.19-17.61 1.51-3.19 3.23-4.72 7.57-4.47 12.56.31 5.78.71 13.24-5.71 16.18-5.46 2.5-11.31 2.73-17.29 1.4q-3.31-.73-5.75-.78a3.954 3.937-71.157 0 0-3.28 1.62c-1.87 2.57-3.7 3.91-6.82 4.9-5.27 1.66-6.85 2.92-7.84 8.65q-2.17 12.58-2.85 17.65-.67 5.03.05 6.89c1.5 3.84 7.56 5.16 11.14 5.81 10.98 1.97 21.72 4.03 31.01-1.27 5.95-3.4 13.57-9.46 15.56-16.75a3.148 2.996-40.209 0 0 .11-1.01c-.29-5.86-1.49-11.75 1.47-16.15a2.072 2.04 3.466 0 1 .78-.68q1.44-.73 3.3.18c4.86 2.39 12.85 6.45 17.69 5.44 3.13-.66 7.37-3.22 7.32-6.76-.07-5.36-3.68-8.95-6.95-12.79-2.35-2.76-1.28-7.06 2.59-6.94q11.56.35 22.29-4.6c6.09-2.81 19.34-9.24 24.75-6.17a2.385 2.38 19.442 0 1 1.18 2.46c-.69 4.15-1.83 7.11-1.49 12.1a3.131 3.046 28.505 0 0 .42 1.35c2.99 5.2 7.92 6.9 12.57 9.97a2.188 2.182 29.787 0 1 .76 2.78c-1.2 2.46-3.4 3.48-6.3 4.08q-13.06 2.72-15.19 3.37c-3.43 1.05-11.82 4.35-13.76 7.84-2.58 4.65 1.8 14.07 7.38 14.59q4.07.37 9.94-.38 12.97-1.67 26.86-6.11 19.08-6.11 21.06-6.67c3.04-.87 6.61-1.42 8.59 1.34a1.281 1.258 34.193 0 1 .2 1q-.69 3.1-3.13 5.32c-9.59 8.75-18.33 13.71-31.09 19.35q-12.93 5.72-26.65 3.79c-4.89-.69-12.2-1.71-15.54 3.08q-5.06 7.27-6.24 16.26a1.878 1.861 20.917 0 0 .81 1.79q3.58 2.38 7.47 3.41c15.7 4.15 32.91 11.1 48.97 3.36q5.29-2.55 8.24-4.58 12.07-8.29 22.14-15.6 2.15-1.57 4.43-1.94a.714.712 84.184 0 1 .82.67q.05.79-.66 1.4-2.05 1.75-3.98 3.82a9.068 8.967 80.433 0 0-1.35 1.92q-3.75 7.14-5.8 9.58c-4.16 4.99-8.34 8.48-15.15 11.49q-9.77 4.31-13.21 6.14-2.5 1.32-4 2.95a1.015 1.015-63.647 0 0 .57 1.69q3.93.69 8.42.01 10.23-1.54 19.72-3.49a.713.712 83.7 0 1 .86.69c.04 4.89-1.72 7.99-5.43 11.64-2.12 2.08-5.92 6.5-5.55 9.09 1.43 10.04 13.08 20.04 23.41 14.44q17.5-9.48 24.56-27.92 2.16-5.63 3.24-8.54c1.28-3.44 6.8-8.53 11.15-6.02 5.22 3.01 6.27 8.7 4.18 14.14q-1.85 4.82-6.58 9.41-11.52 11.22-20.92 23.99c-4.9 6.66-5.35 14.25-6.75 23.5-.88 5.88-6.82 6.98-11.87 5.95-6.61-1.34-20.48-4.17-25.17.5a1.283 1.276 54.045 0 0-.23 1.47c3.28 6.38.14 12.67-3.62 18.15-4.24 6.16-4.69 12.45 1.92 17.48 6.15 4.68 11.53 9.86 19.08 6.62 4.78-2.05 9.09-10.34 11.04-14.94q3.22-7.59 6.04-16.8c.5-1.63 1.39-3.26 2.93-4.04 2.95-1.5 5.51 2.55 6.56 4.76q1.31 2.78 6.28 11.95 2.44 4.5 7.33 5.11a1.383 1.382-77.869 0 0 1.5-.97q1.16-3.81 1.44-5.74 1.77-12.33 3.49-23.47c.61-4 3.67-9.55 8.4-9.07q4.05.41 5.64.53a3.54 3.471-52.145 0 0 1.33-.18c4.67-1.63 7.97-5.68 9.82-10.37 1.93-4.89 1.5-12.67 3.31-17.77a10.908 9.891-23.765 0 1 .66-1.48c3.38-6.32 7.31-15.38 5.88-22.1q-2.52-11.8-3.58-22.79a1.173 1.167-13.352 0 1 .75-1.21c6.31-2.41 12.97 12.03 14.57 16.91 1.88 5.77 7.96 1.21 9.29-1.92q5.26-12.44 5.5-25.38.23-12.28-.18-18.5-1.41-21.36-3.65-37.32-.34-2.45-1.26-14.94-.22-2.95-1.13-5.11a2.347 2.141 60.446 0 0-3.37-1.1q-1.81 1.39-2.61 4.17-2.03 7.1-2.06 7.21-1.12 4.3-5.87 3.61c-12.31-1.82-25.5-8.85-28.86-21.44-1.7-6.38-2.93-15.22-.65-21.79q.25-.7.71-.95a1.378 1.315 55.029 0 1 1.64.33q2.27 2.59 3.1 6.36c1.12 5.03 1.85 11.85 7.25 12.76a1.922 1.91 31.146 0 0 1.48-.36q4.7-3.51 5.99-9.44c1.36-6.26 2.86-12.71 6.8-16.54 3.68-3.57 12.17.27 15.79 2.32 4.59 2.59 9.5 1.99 13.86-1.13q6.78-4.87 12.93-11.32 8.37-8.77 11.42-12.84 10.34-13.76 16.42-21.07 5.86-7.06 13.22-11.58c8.68-5.33 16.4-1.56 24.1-.03q18.47 3.67 32.43-7.77c3.45-2.83 7.12-7.96 10.7-10.92q3.17-2.63 6.88-1.86c4.43.91 8.9 2.31 13.38 2.24 8.21-.13 14.7-2.97 22.2-7.92 5.73-3.78 12.1-7.42 18.19-8.06 5.91-.61 12.34-1.46 16.98-4.06q2.16-1.21 8.11-6.12c2.65-2.2 12.4-9.18 6.21-12.64-2.95-1.64-7.99-1.32-12.07-.29-5.16 1.28-9.67 2.87-13.68 1.74a2.505 2.505-79.338 0 1-1.81-2.65l.75-7.61.23-1.33a.76.76 45 0 1 .62-.62q3.52-.56 7.01-1.86 9.2-3.42 16.93-8.04 3.24-1.93 5.77-4.55a5.377 4.588.13 0 1 .73-.62q6.99-4.91 9.62-9.74c2.65-4.84 4.38-9.09 7.77-13.36 4.56-5.74 8.11-9.57 10.6-15.29 3.07-7 4.57-15.12 6.42-22.25 1.82-6.99 4.31-11.98 12.36-12.21q5.43-.15 7.36 5.39 2.33 6.72 3.38 9.26c2.72 6.57 9.08 3.13 13.55.15q6.07-4.05 10.14-6.57 10.95-6.79 22.71-1.71 4.43 1.91 5.88 6.29a1.858 1.754 39.983 0 1 .09.77l-.77 6.84a1.21 1.206 20.391 0 0 .52 1.13q4.06 2.81 3.61 8.37-.67 8.24-2.59 15.76c-1.22 4.77-3.23 7.3-6.64 12.25-7.31 10.61-18.3 17.42-29.69 22.51q-4.43 1.98-8.95 4.52c-8.28 4.64-13.53 7.63-19.88 13.52-9.71 8.99-16.2 15.81-25.14 23.2q-11.88 9.83-22.48 16.77-6.71 4.4-12.72 8.74-9.15 6.6-12.72 8.75-7.73 4.63-23.11 13.88-12.42 7.48-24.6 12.2c-3.11 1.2-6.83 1.63-9.39 2.88a2.936 2.84 27.52 0 1-.91.27q-1.9.23-6.89 1.61-12.58 3.46-37.43 6.57m-92.38 239.53q-.37-.57-.5-.67-5.39-4.03-10.04-7.92c-2.82-2.36-5.39-3.59-8.71-4.83-4.87-1.81-8.12.35-12.02 4.01q-7.37 6.92-11.09 12.89c-1.01 1.61-1.97 3.11-.86 4.83 3.02 4.67 7.99 7.04 13.55 8.26q8.48 1.87 16.07-3.64 6.11-4.43 13.1-9.95a2.256 2.246-35.61 0 0 .5-2.98m-252.1 206.15c1.46-.14 3.27-1.14 4.46-2.26q4.86-4.61 9.94-10.48 6.96-8.05 14.6-16.19 2.18-2.33 4.84-4.74c8.7-7.88 10.43-18.12 14.15-32.35a1.183 1.167 83.267 0 1 .56-.72q4.65-2.55 8.25-7.54a6.541 6.527-23.997 0 0 1.19-3.09c.78-6.92.67-13.08 4.13-19.35a2.441 2.422 16.133 0 1 2.27-1.24q8.26.49 9.21.46c4.47-.14 5.96-6.34 5.13-9.68-.9-3.56-4.33-6.37-2.7-10.58a2.018 2.003-7.304 0 1 .74-.95q3.16-2.17 3.38-2.3c10.52-6.02 20.47-12.52 31.29-17.67 8.34-3.97 19.4-1.11 28.1.58q10.07 1.95 17.62-4.87 5.36-4.83 11.05-9.33 4.08-3.23 6.12-4.12c4.79-2.08 11.11 2.04 16.2 4.65 4.98 2.57 11.78 2.44 16.81-.91q5.05-3.35 6.89-5.77c2.53-3.32 6.68-7.97 11.04-8.45 2.21-.24 5.87-.1 8.43.24 11.71 1.59 23.12 1.51 33.62-2.08q4.87-1.67 2.51-6.32c-2.02-3.96-5.8-8.59-10.87-7.11a2.107 2.077 14.089 0 0-.9.53q-3.35 3.29-3.86 3.69c-3.29 2.55-10.78 1.29-14.81-.02q-6.39-2.09-13.48-2.29c-10.22-.28-17.4-3.28-27.56-7.15-7.87-3-11 1.34-16.56 4.05-5.16 2.51-15.38 5.9-21.86 11.17q-2.29 1.87-4.53 6.22-2.23 4.32-4.3 6.93c-3.7 4.68-9.87 8.97-15.87 7.84-4.94-.94-8.64-4.72-9.13-9.8-.21-2.13-.54-7.06-2.39-8.14-3.1-1.8-6.65-3-11.03-3.5q-27.58-3.15-53.32-3.94c-3.92-.13-9.42-.09-11.12 3.2q-2.62 5.08 1.23 9.43.22.25 10.19 10.32c2.13 2.15 5.11 5.92 4.64 8.39a2.7 2.7 88.496 0 1-2.02 2.13c-7.89 1.91-15.7 3.96-18.71 12.34q-5.82 16.19-4.41 36.57c.1 1.41.81 4.78 1.21 6.31 2.37 9.09-3.94 12.66-11.11 17.76-9.22 6.54-18.23 15.32-23.81 23.68q-5.21 7.79-6.75 12.04-1.06 2.9-1.48 10.19-.74 12.66 1.51 23.3a1.174 1.171-9.011 0 0 1.27.92m-16.35-143.9c-1.28 1.01-2.26 2.91-2.67 4.44q-3.74 13.78-8.84 26.12c-1.15 2.77-2.12 6.79-2.48 9.34q-2.16 15.51-3.46 39.2c-.22 4-.33 9.66 2.58 11.83 2.74 2.04 5.78 1.55 8.51-.7q2.88-2.37 3.19-3.04 4.29-9.35 10.73-17.68c6.32-8.18 10.83-18.74 7.51-28.65-1.4-4.19-4.51-8.77-5.65-13-.94-3.44 1.15-6.94 2.92-10.96 3.47-7.85-3.32-14.97-10.18-17.28a2.271 2.25-54.72 0 0-2.16.38m200.21 75.07c4.9 1.4 10.1 1.04 14.63-2.03q6.13-4.17 8.79-9.42 3.35-6.59 5.33-15.9c1.25-5.86 4.06-13.35 9.12-16.98 6.49-4.65 11.3-8.62 11.24-16.91q-.02-2.16-1.85-5.47c-2.07-3.76-5.9-8.62-10.37-5.25a2.129 2.12-13.272 0 0-.82 1.32q-.67 3.73-1.22 7.58c-.56 3.95-4.7 7.41-8.09 9.63-9.39 6.12-26.39 13.59-29.03 26.13q-.53 2.49-.73 9.69c-.14 5.33-.52 11.78 1.66 16.47a2.112 2.098 85.188 0 0 1.34 1.14m-11.5-40.32c1.41 1.63 3.75 2.6 5.66 1.28q4.51-3.12 8.73-7.1c4.82-4.53 4.6-10.86 2.5-16.77-3.13-8.82-12.39-3.15-17.02.4-3.75 2.88-7.3 5.41-6.52 9.82q1.05 5.86 6.65 12.37m-3.63 134.15q1.35 1.78 4.12 1.88 9.67.37 22.24.78 4.91.16 10.92-.75 5.45-.84 7-5.3 1.13-3.28 2.62-12.4.84-5.13.18-9c-1.2-7.01-18.77-7.35-24.01-7.15q-6.5.24-9.82 2.24c-5.37 3.22-6.13 8.04-8.06 14.49a16.667 16.448-22.101 0 1-1.51 3.51c-1.93 3.35-3.99 6.82-4.01 10.72a1.659 1.609 27.266 0 0 .33.98m31.86 18.21c-.61-5.49-4.46-6.24-9.32-6.62-6.64-.53-16.83-1.24-22.35 1.38-6.95 3.3-11.22 9.33-12.27 17.4q-.99 7.69-.83 11.33.13 2.86 1.85 19.74.27 2.66-1.01 4.82c-8.12 13.68-12.89 20.88-17.31 32.45q-1.73 4.55-2.29 8.74c-.88 6.59 5 8.3 10.32 7.46 6.28-.99 13.28-8.39 16.38-13.3q9.32-14.75 19.1-32.63c7.55-13.81 13.84-26.5 17.02-40.99q1.2-5.47.71-9.78"/><path fill="#fff" d="m1080.75 670.14-.75 7.61a2.505 2.505-79.338 0 0 1.81 2.65c4.01 1.13 8.52-.46 13.68-1.74 4.08-1.03 9.12-1.35 12.07.29 6.19 3.46-3.56 10.44-6.21 12.64q-5.95 4.91-8.11 6.12c-4.64 2.6-11.07 3.45-16.98 4.06-6.09.64-12.46 4.28-18.19 8.06-7.5 4.95-13.99 7.79-22.2 7.92-4.48.07-8.95-1.33-13.38-2.24q-3.71-.77-6.88 1.86c-3.58 2.96-7.25 8.09-10.7 10.92q-13.96 11.44-32.43 7.77c-7.7-1.53-15.42-5.3-24.1.03q-7.36 4.52-13.22 11.58-6.08 7.31-16.42 21.07-3.05 4.07-11.42 12.84-6.15 6.45-12.93 11.32c-4.36 3.12-9.27 3.72-13.86 1.13-3.62-2.05-12.11-5.89-15.79-2.32-3.94 3.83-5.44 10.28-6.8 16.54q-1.29 5.93-5.99 9.44a1.922 1.91 31.146 0 1-1.48.36c-5.4-.91-6.13-7.73-7.25-12.76q-.83-3.77-3.1-6.36a1.378 1.315 55.029 0 0-1.64-.33q-.46.25-.71.95c-2.28 6.57-1.05 15.41.65 21.79 3.36 12.59 16.55 19.62 28.86 21.44q4.75.69 5.87-3.61.03-.11 2.06-7.21.8-2.78 2.61-4.17a2.347 2.141 60.446 0 1 3.37 1.1q.91 2.16 1.13 5.11.92 12.49 1.26 14.94 2.24 15.96 3.65 37.32.41 6.22.18 18.5-.24 12.94-5.5 25.38c-1.33 3.13-7.41 7.69-9.29 1.92-1.6-4.88-8.26-19.32-14.57-16.91a1.173 1.167-13.352 0 0-.75 1.21q1.06 10.99 3.58 22.79c1.43 6.72-2.5 15.78-5.88 22.1a10.908 9.891-23.765 0 0-.66 1.48c-1.81 5.1-1.38 12.88-3.31 17.77-1.85 4.69-5.15 8.74-9.82 10.37a3.54 3.471-52.145 0 1-1.33.18q-1.59-.12-5.64-.53c-4.73-.48-7.79 5.07-8.4 9.07q-1.72 11.14-3.49 23.47-.28 1.93-1.44 5.74a1.383 1.382-77.869 0 1-1.5.97q-4.89-.61-7.33-5.11-4.97-9.17-6.28-11.95c-1.05-2.21-3.61-6.26-6.56-4.76-1.54.78-2.43 2.41-2.93 4.04q-2.82 9.21-6.04 16.8c-1.95 4.6-6.26 12.89-11.04 14.94-7.55 3.24-12.93-1.94-19.08-6.62-6.61-5.03-6.16-11.32-1.92-17.48 3.76-5.48 6.9-11.77 3.62-18.15a1.283 1.276 54.045 0 1 .23-1.47c4.69-4.67 18.56-1.84 25.17-.5 5.05 1.03 10.99-.07 11.87-5.95 1.4-9.25 1.85-16.84 6.75-23.5q9.4-12.77 20.92-23.99 4.73-4.59 6.58-9.41c2.09-5.44 1.04-11.13-4.18-14.14-4.35-2.51-9.87 2.58-11.15 6.02q-1.08 2.91-3.24 8.54-7.06 18.44-24.56 27.92c-10.33 5.6-21.98-4.4-23.41-14.44-.37-2.59 3.43-7.01 5.55-9.09 3.71-3.65 5.47-6.75 5.43-11.64a.713.712 83.7 0 0-.86-.69q-9.49 1.95-19.72 3.49-4.49.68-8.42-.01a1.015 1.015-63.647 0 1-.57-1.69q1.5-1.63 4-2.95 3.44-1.83 13.21-6.14c6.81-3.01 10.99-6.5 15.15-11.49q2.05-2.44 5.8-9.58a9.068 8.967 80.433 0 1 1.35-1.92q1.93-2.07 3.98-3.82.71-.61.66-1.4a.714.712 84.184 0 0-.82-.67q-2.28.37-4.43 1.94-10.07 7.31-22.14 15.6-2.95 2.03-8.24 4.58c-16.06 7.74-33.27.79-48.97-3.36q-3.89-1.03-7.47-3.41a1.878 1.861 20.917 0 1-.81-1.79q1.18-8.99 6.24-16.26c3.34-4.79 10.65-3.77 15.54-3.08q13.72 1.93 26.65-3.79c12.76-5.64 21.5-10.6 31.09-19.35q2.44-2.22 3.13-5.32a1.281 1.258 34.193 0 0-.2-1c-1.98-2.76-5.55-2.21-8.59-1.34q-1.98.56-21.06 6.67-13.89 4.44-26.86 6.11-5.87.75-9.94.38c-5.58-.52-9.96-9.94-7.38-14.59 1.94-3.49 10.33-6.79 13.76-7.84q2.13-.65 15.19-3.37c2.9-.6 5.1-1.62 6.3-4.08a2.188 2.182 29.787 0 0-.76-2.78c-4.65-3.07-9.58-4.77-12.57-9.97a3.131 3.046 28.505 0 1-.42-1.35c-.34-4.99.8-7.95 1.49-12.1a2.385 2.38 19.442 0 0-1.18-2.46c-5.41-3.07-18.66 3.36-24.75 6.17q-10.73 4.95-22.29 4.6c-3.87-.12-4.94 4.18-2.59 6.94 3.27 3.84 6.88 7.43 6.95 12.79.05 3.54-4.19 6.1-7.32 6.76-4.84 1.01-12.83-3.05-17.69-5.44q-1.86-.91-3.3-.18a2.072 2.04 3.466 0 0-.78.68c-2.96 4.4-1.76 10.29-1.47 16.15a3.148 2.996-40.209 0 1-.11 1.01c-1.99 7.29-9.61 13.35-15.56 16.75-9.29 5.3-20.03 3.24-31.01 1.27-3.58-.65-9.64-1.97-11.14-5.81q-.72-1.86-.05-6.89.68-5.07 2.85-17.65c.99-5.73 2.57-6.99 7.84-8.65 3.12-.99 4.95-2.33 6.82-4.9a3.954 3.937-71.157 0 1 3.28-1.62q2.44.05 5.75.78c5.98 1.33 11.83 1.1 17.29-1.4 6.42-2.94 6.02-10.4 5.71-16.18-.25-4.99 1.28-9.33 4.47-12.56 2.67-2.7 12.87-1.91 17.61-1.51 4.27.36 6.27-4.12 8.42-7.89a9.302 9.257-.471 0 1 3.43-3.47c4.49-2.6 9.34-4.83 10.76-7.55a2.848 2.833-55.759 0 0-.65-3.47c-3.75-3.23-10.31-3.94-15.31-5.18a.859.85 27.256 0 1-.45-1.38c3.08-3.63 13.13-2.25 16.83-1.63 6.7 1.13 11.88 5.75 17.14 10.85q2.26 2.19 10.67 11.05c5.66 5.97 14.08 8.97 24.06 13.08q7.88 3.24 11.42 4.19 17.65 4.71 35.19-1.23c9.34-3.17 19-9.11 24.05-17.72 6.25-10.63 9.2-19.87 11.27-31.42q3.12-17.46-.6-34.14a1.733 1.725 76.713 0 1 1.26-2.05c6.37-1.6 17.35-1.31 22.28 3.75 4.06 4.17 5.96 13.81 5.58 18.63q-.55 6.94-.21 9.63.61 4.85 4.86 5.54c5.57.89 18.13-10.19 20.49-14.01 1.67-2.7-.41-5.75-2.63-7.49q-2.72-2.13-12.94-9.17-.96-.66-2.41-3.15a1.3 1.278 43.575 0 1-.04-1.19c1.84-3.69 6.48-6.76 9.88-8.13q3.87-1.56 7.63-3.8a4.464 4.263-68.123 0 1 .88-.4q7.33-2.45 14.54-2.37 2.77.03 8.81 1.27c7.53 1.53 12.05 2.16 18.66 3.78 5.54 1.35 14.71 2.82 19.5 1.25q4.47-1.47 7.88-2.49a8.686 8.438-55.291 0 1 1.73-.34c10.92-1.07 18.85-2.37 27.24-8.65l18.41-14.85q6.66-3.84 13.57-3.9c10.36-.09 19.36-.41 25.16-9.59q1.9-2.17 6.06-3.83 12.06-4.8 21.28-5.73c5.52-.55 11.06-.02 15.95 0q.45 0 .62.4.14.36.03.83"/><path fill="#21211f" d="M1036.81 678.47c-5.8 9.18-14.8 9.5-25.16 9.59q-6.91.06-13.57 3.9.23-2.09 3.56-3.26 5.29-1.85 10.02-1.86a5.301 5.111-52.889 0 0 1.59-.25q5.97-1.85 18.21-6.3 2.55-.92 4.69-3.02a.492.49 74.155 0 1 .82.46z"/><path fill="#f6c822" d="m982.14 773.62.3 850.68-26.81-.51a.687.687-20.685 0 0-.52 1.15l11.71 12.83a2.081 2.061-55.865 0 1 .4 2.14l-18.23 47.25a.76.758 33.158 0 1-1.25.26q-5.3-5.38-11.5-9.05a1.097 1.097 17.18 0 0-1.65.87q-.11 1.51 1.4 2.79 4.89 4.15 9.63 7.95a2.654 2.648 25.788 0 1 .93 2.66l-.83 3.55a1.106 1.105-63.148 0 1-1.8.59l-13.72-11.84a.441.438 32.505 0 0-.69.15l-9.32 20.66a.411.406-78.604 0 0 .38.58q6.23-.17 12.81 2.6c3.61 1.51 6.1 1.89 4.83 6.07q-.98 3.2-6.04 17.19c-4.89 13.52-11.81 28.26-21.22 40.51q-4.8 6.24-11.36 10.88-7.83 5.54-10.04 7.15a.594.592-60.738 0 0 .3 1.07c4.94.4 11.11.6 16.57.3q18.06-.99 41.08-.11 1.62.06 3-.12a.652.652 72.046 0 0 .49-.96q-.86-1.54-2.33-2.97c-6.56-6.37-11.01-12.6-11.01-21.43q.01-9.37 1.15-13.7 3.75-14.24 10.3-30.79a1.438 1.438-52.534 0 1 2.49-.33l2.42 3.26a4.539 4.523 37.975 0 1 .55 4.4c-4.73 11.58-8.82 21.98-9.67 32.5-.91 11.14 2.2 21.78 9.85 30.05q2.44 2.65 4.5 6.27a.581.579 75 0 1-.5.87h-63.47a1.046 1.035 76.658 0 0-.92 1.51l.28.55a3.519 3.516-13.21 0 0 3.15 1.95h66.99a1.167 1.165-17.358 0 0 .96-1.83q-4.49-6.51-7.56-10.44-5.45-6.98-6.87-10.7c-2.62-6.88-3.74-12.77-2.36-20.5 1.79-10.02 5.09-18.84 8.14-26.26q.46-1.11.6-2.9a.378.378-24.312 0 1 .66-.22c7.63 8.73 13.92 18.55 19.96 28.81a.62.609 61.851 0 0 .8.25q.89-.42 1.91-1.81.96 4.2 1.02 9.05.3 22.8.12 42.98-.2 22.18-.1 37.04.12 18.49.03 37.04-20.27 13.79-33.65 22.36-67.61 43.29-129.43 83.53c-19.31 12.56-37.56 23.98-58.44 37.71-5.5 3.61-11.9 7.15-17.43 11.2a2.042 2.038-47.744 0 1-2.25.11c-11.94-7.18-21.11-13-31.5-19.26-20.08-12.08-35.15-21.02-55.81-33.9q-20.87-12.99-30.61-18.67-33.5-19.53-36.3-21.32c-14.26-9.11-29.31-17.64-46.1-27.37q-14.6-8.46-44.32-28.8-.05-1.2-.2-2.14-.21-1.33-.21-2.09.25-41.31.01-82.78l24.5.29a.867.865-7.946 0 0 .84-1.11q-.21-.74-1.02-1.72-12.74-15.45-17.65-21.11-3.33-3.82-3.19-8.71.66-24.65.13-51.14a.731.73 89.236 0 1 .73-.75h24.67a.133.129-13.512 0 0 .12-.19q-1.79-3.36-4.97-3.32-11.98.16-23.96-.28l-.37-6.99 22.35.05a1.717 1.694 68.581 0 1 1.26.56c3.71 4.15 8.24 7.53 11.89 11.45q6.77 7.28 6.99 7.53a.612.607-65.931 0 0 1.06-.41l.19-49.56a.905.904 77.927 0 0-1.28-.83q-1.26.57-2.94 2.31-14.79 15.36-16.16 16.87a1.244 1.242-69.152 0 1-.89.4l-17.61.22a1.11 1.11-.507 0 1-1.13-1.11v-48.1a.981.98.851 0 1 1.01-.98q12.41.32 19.3.14 9.37-.25 13.05.94 7.37 2.39 11.75 5.67.59.44 1.51.36a.667.666 66.646 0 0 .44-1.11c-5.66-6.31-15.48-9.58-23.71-9.81q-10.17-.28-27.36.43l-.14-7.02q14.28-.78 28.87.41 6.38.52 10.68 1.93c10.97 3.59 17.63 14.26 20.99 25q.08.27.34.55.33.37.47.46a.592.592-63.605 0 0 .89-.3q3.65-10.36 9.6-20.85 6.69-11.8 10.18-16.47a.102.1 47.744 0 1 .17.01l4.1 7.39a.327.314-41.306 0 1-.03.35q-9.51 12.84-15.18 26.22-2.27 5.34-3.19 10.04a1.516 1.503-84.513 0 0 1.48 1.81q1-.01 1.44-.87c3.05-6.04 6.47-14.88 10.33-21.48q1.96-3.34 6.77-12.49a.244.241-44.651 0 1 .43 0q5.94 11.76 10.16 25.14.25.8 1.08 2.08a1.143 1.138-49.741 0 0 2-.17q.32-.75.38-1.91c.54-12.15 7.62-22.3 19.52-25.24 7.58-1.87 15.17-1.68 24.73-1.69a.79.78 0 0 1 .79.78v5.61a.85.85.333 0 1-.86.85q-10.58-.11-14.6.27-18.13 1.75-22.37 18.87-.25 1.03-1.05 7.52a1.767 1.757-81.657 0 0 1.45 1.96l.18.03a1.617 1.614 8.274 0 0 1.88-1.4c1.27-11.04 5.05-20.45 17.16-22.7q8.39-1.56 17.66-1.2a.38.38.774 0 1 .37.38q.16 44.65.19 126.35c.01 3.87-.47 5.38-3.27 7.64q-5.66 4.58-12.55 9.07a1.485 1.393-37.951 0 0-.34 2.18q.12.13.71.2 4.07.47 10.7.34 22.69-.44 42.49-.04 1.95.04 2.86-.31a.788.788 57.25 0 0 .28-1.29l-1.95-1.97a.914.739 77.612 0 0-.15-.12q-3.21-2.15-8.78-6.54-4.94-3.91-4.94-10 .14-110.09-.07-129.22-.02-1.29.16-5.99a1.108 1.106-1.149 0 1 1.03-1.07c10.53-.72 21.25-.47 30.92 4.41 5.41 2.72 7.95 7.24 10.9 12.56 2.07 3.71 2.95 7.11 4.54 11.15a.543.54 43.16 0 0 1.02-.03c2.55-7.96 5.42-15.82 10.03-24.04q5.81-10.36 8.24-14.51a.545.539-74.648 0 0-.46-.82q-121.47-.51-154.35-.19-2.1.02-4.25.05-18.44.31-28.03.35c-6.02.02-13.21-.52-20-.45q-15.65.16-31.29-.06.22-1.76.22-2.9.08-311.63-.09-623.25-.01-2.25-.44-10.86 30.29-10.15 52.48-20.77 19.19-9.18 35.24-22.25c10.67-8.69 20.81-16.26 32.5-24.21q3.33-2.27 14.93-8.48 11.09-5.93 21.79-12.61 5.62-3.51 10.2-7.05 4.15-3.2 8.25.49 4.9 4.41 7.94 9.04c6.15 9.37 12.1 19.84 16.77 29.95 5.72 12.36 10.03 21.42 13.71 30.76 2.42 6.13 2.59 11.06.53 16.98-3.82 10.99-11.35 22.14-21.15 28.86-8.6 5.88-15.22.15-22.46-4.28-7.43-4.53-14.05 2.15-20.88 7.31q-3.77 2.84-6.49 3.17-6.28.74-10.63-2.88-6.84-5.71-14.25-9.36-9.38-4.61-16.29-4.7c-13.82-.16-19.5 10.58-25.79 21.16q-3.21 5.4-4.64 10.16c-1.6 5.35 1.97 12.41 4.77 16.93 5.63 9.08 9.38 16.13 12.59 26.15q2.97 9.27 8.54 21.7 1.91 4.28 1.3 9.8-2.85 25.91-4.83 52.45-.29 3.97-.95 8.03-.98 6.15-.97 8.02.23 27.49 2.07 43.58 1.83 15.98 12.46 27.72 7.61 8.41 10.9 11.05 1.31 1.05 7.15 4.64c12.75 7.82 27.51 6.54 40.36-.06 16.1-8.25 29.67-22.24 40.86-36.29q11.82-14.83 18.68-24.33c3.09-4.28 6.17-7.66 9.7-11.93q1.61-1.94 4.13-4.58 12.19-12.74 28.11-28.27c4.02-3.92 14.38-14.62 20.46-12.39q5.67 2.08 8.13 5.05 10.32 12.52 13.35 29.58 1.28 7.23 1.64 8.82c1.39 6.25 1.65 12.54 1.44 18.9-.2 6.16-2.04 8.22-6.74 13.04-5.53 5.65-9.41 15.65-11.64 23.21q-1.38 4.68-3.11 17.18-3.11 22.34-3.89 26.51-.37 2-4.53 22.13c-4.2 20.3-11.89 40.52-21.46 58.25-5.09 9.42-10.79 15.87-18.07 25.03q-3.13 3.95-5.74 9.11c-7.88 15.59 1.67 38.14 16.97 45.44q3.38 1.61 10.67 2.14 9.13.66 29.24 1.5 19.21.81 38.32-2.42 1.29-.22 7.09-2.64 4.16-1.73 6.24-4.15c5.64-6.53 5.46-16.87 2.32-24.29q-.45-1.08-4.16-7.81c-4.21-7.62-10.16-14.19-16.14-21.38q-6.33-7.62-9.08-14.64-2.14-5.47 2.05-10.87 4.01-5.16 7.79-9.22c4.23-4.53 7.26-9.21 11.41-13.35q2.84-2.83 8.44-9.39 1.1-1.3 8.31-9.54 5.78-6.6 13.2-17.5 5.15-7.56 10.18-21.38.47-1.28 4.99-16.6c3.36-11.37 5.55-22.36 8.36-34.96q2.09-9.36 5.53-20.1 4.12-12.84 6.78-19.72 8.05-20.81 13.14-35.53 14.28-41.29 14.33-41.43 8.56-26.4 8.15-52.09-.34-20.98-12.26-39.2-1.65-2.52-8.31-11.28c-5.27-6.93-9.36-13.61-13.13-20.35-3.78-6.75.48-12.78 3.95-19.69 2.25-4.48 4.03-12.86 4.93-18.43q6-37.53 3.38-72.65-.52-6.99-4.12-40.67-1.17-10.99 1.86-23.9 1.68-7.12 5.78-12.67c9.01-12.17 26.65-19.46 41.43-21.68q11.87-1.78 22.63-2.89M698.87 1384.7a86.42 86.42 0 0 0-86.42-86.42 86.42 86.42 0 0 0-86.42 86.42 86.42 86.42 0 0 0 86.42 86.42 86.42 86.42 0 0 0 86.42-86.42m152.17 267.12q-11.19-10.35-26.53-10.07-7.21.14-24.91.11a.57.56-90 0 0-.56.57v52.17a1.2 1.2-57.951 0 1-1.2 1.2h-5.88a1.14 1.14 25.166 0 1-1.14-1.14v-58.09a1.322 1.313 88.635 0 1 1.25-1.32q13.71-.64 28.93-.39 7.62.12 16.57 2.55c13.6 3.69 17.31 14.18 22.98 25.39a.432.43 48.764 0 0 .74.05q1-1.49 1.74-3.32 4.77-11.77 8.51-18.19c3.28-5.62 6.56-9.85 10.72-15.83a1 .999-72.601 0 0-.82-1.57H748.87a.838.837 66.001 0 0-.56 1.46l15.67 14.2a1.785 1.776-69.694 0 1 .58 1.27q.31 11.35-.43 21.88-.2 2.88.42 26.25.14 5.24.02 6.26a.891.883 88.725 0 1-.73.77c-11.79 1.87-21.09 6.22-24.06 18.66a.522.518 81.26 0 0 .77.57q3.12-1.86 5.55-3.46c5.33-3.53 11.67-4.73 17.96-4.41a.926.925 86.446 0 1 .86.76q.39 2.09-.03 4.72a.826.814.409 0 1-.71.69c-5.73.78-18.91 1.96-18.53 10.44a.622.62 66.02 0 0 1.06.41q6.86-6.93 17.14-6.67a.58.58.503 0 1 .57.58q.29 46.21.4 51.43.05 2.44-1.86 4.46c-5.44 5.76-11.72 9.94-18.08 15.19a.255.253 25.651 0 0 .16.45l62.19.11a.561.555-85.807 0 0 .55-.48q0-.06-.22-.41-1.61-2.57-5.43-5.45c-3.95-2.99-11.38-9.1-11.31-13.61q.27-19.64-.08-43.01-.16-10.72.14-18.93a.826.813-1.174 0 1 .77-.79q14.05-.86 29.72-.02a2.334 2.321-20.568 0 1 1.53.69l19.09 19.08a.709.708 22.52 0 0 1.21-.5v-50.04a.946.943-2.249 0 0-1.02-.94q-1.61.13-3.21 1.95-9.12 10.34-15.94 17.14a2.998 2.965 22.277 0 1-2.11.87h-17.71a.7.69 0 0 1-.7-.69v-48.41a.82.82-.354 0 1 .81-.82q10.79-.13 26.42.26 7.42.18 12.95 2.97 4.97 2.51 7.69 3.93a.576.574-9.757 0 0 .66-.93m16.91 19.95q2.03-1.22 3.25-4.1 3.7-8.8 7.7-16.02 2.46-4.42 12.32-18.4a1.454 1.454-58.977 0 0-.53-2.13l-.08-.04a2.236 2.22-55.731 0 0-2.69.52c-7.01 8.02-12.41 17.88-17.1 27.71q-2.85 5.98-4.13 11.55a.845.842-9.067 0 0 1.26.91m-139.319-21.912q-3.996 8.218-6.451 15.138-.96 2.694-.53 4.904a1.498 1.496 56.203 0 0 2.72.54q.01-.01.45-1.158c2.716-7.014 4.991-13.052 7.271-17.742s5.624-10.208 9.463-16.676q.632-1.055.633-1.069a1.498 1.496-4.345 0 0-2.104-1.806q-2.004 1.027-3.53 3.445-3.926 6.205-7.922 14.424M690.84 1798.5a.246.241 78.56 0 1-.22.34h-58.7a.951.948-11.176 0 0-.88 1.31l.64 1.55a1.95 1.95 5.026 0 0 1.8 1.2h63.04a1.089 1.084 85.47 0 0 1.07-1.26q-.17-1.06-.79-1.94-.9-1.27-11.87-14.83-3.94-4.87-4.86-7.24a10.651 10.454-55.934 0 1-.69-3.76v-127.52a.63.63 17.608 0 1 .63-.63c8.63.05 17.13.88 24.14 5.97a.519.514 14.952 0 0 .82-.47q-.18-1.52-1.47-2.94c-6.68-7.35-18.02-6.65-27.52-5.95a.534.523 89.427 0 0-.49.51c-1 25.58.1 54.29-.21 80.85q-.39 33.69-.04 40.37c.25 4.83-.39 10.35 1.09 14.1q1.18 3 7.48 12.06a3.02 2.936 88.828 0 0 .78.77q4.36 2.97 6.25 7.51m160.078-65.078 2.02-.004a.76.76 89.952 0 0 .759-.761l-.084-48.02a6.22 1.4 89.9 0 0-1.411-6.218l-.74.002a6.22 1.4 89.9 0 0-1.389 6.222l.084 48.02a.76.76 11.222 0 0 .761.759m-301.199-53.078a1.64 1.64 0 0 0-1.646-1.634h-.04a1.64 1.64 0 0 0-1.634 1.646l.182 52.3a1.64 1.64 0 0 0 1.646 1.634h.04a1.64 1.64 0 0 0 1.634-1.646zM816.96 1797.52a.677.676 73.774 0 1-.57 1.04h-65.75a.961.961-22.491 0 0-.68 1.64l1.14 1.14a3.484 3.475 67.45 0 0 2.46 1.02h70.14a1.06 1.057 81.46 0 0 1.01-1.37q-.22-.74-.92-1.47-4.93-5.17-5.43-5.83-5.43-7.23-10.67-13.41-3.09-3.64-4.66-7.26a5.495 5.42 33.534 0 1-.46-2.19v-52a.76.76 33.746 0 1 .76-.76h24.02a.508.506-19.123 0 0 .4-.82c-2.84-3.57-5.78-3.25-10.67-3.19q-5.51.07-17.54.4a.94.94 89.361 0 0-.92.96l.74 56.07a6.515 6.423 34.287 0 0 .46 2.34q3.56 8.86 9.22 14.26 4.84 4.62 7.92 9.43"/><path fill="#fff" d="M889.76 1013.15a2.256 2.246-35.61 0 1-.5 2.98q-6.99 5.52-13.1 9.95-7.59 5.51-16.07 3.64c-5.56-1.22-10.53-3.59-13.55-8.26-1.11-1.72-.15-3.22.86-4.83q3.72-5.97 11.09-12.89c3.9-3.66 7.15-5.82 12.02-4.01 3.32 1.24 5.89 2.47 8.71 4.83q4.65 3.89 10.04 7.92.13.1.5.67m-252.1 206.15a1.174 1.171-9.011 0 1-1.27-.92q-2.25-10.64-1.51-23.3.42-7.29 1.48-10.19 1.54-4.25 6.75-12.04c5.58-8.36 14.59-17.14 23.81-23.68 7.17-5.1 13.48-8.67 11.11-17.76-.4-1.53-1.11-4.9-1.21-6.31q-1.41-20.38 4.41-36.57c3.01-8.38 10.82-10.43 18.71-12.34a2.7 2.7 88.496 0 0 2.02-2.13c.47-2.47-2.51-6.24-4.64-8.39q-9.97-10.07-10.19-10.32-3.85-4.35-1.23-9.43c1.7-3.29 7.2-3.33 11.12-3.2q25.74.79 53.32 3.94c4.38.5 7.93 1.7 11.03 3.5 1.85 1.08 2.18 6.01 2.39 8.14.49 5.08 4.19 8.86 9.13 9.8 6 1.13 12.17-3.16 15.87-7.84q2.07-2.61 4.3-6.93 2.24-4.35 4.53-6.22c6.48-5.27 16.7-8.66 21.86-11.17 5.56-2.71 8.69-7.05 16.56-4.05 10.16 3.87 17.34 6.87 27.56 7.15q7.09.2 13.48 2.29c4.03 1.31 11.52 2.57 14.81.02q.51-.4 3.86-3.69a2.107 2.077 14.089 0 1 .9-.53c5.07-1.48 8.85 3.15 10.87 7.11q2.36 4.65-2.51 6.32c-10.5 3.59-21.91 3.67-33.62 2.08-2.56-.34-6.22-.48-8.43-.24-4.36.48-8.51 5.13-11.04 8.45q-1.84 2.42-6.89 5.77c-5.03 3.35-11.83 3.48-16.81.91-5.09-2.61-11.41-6.73-16.2-4.65q-2.04.89-6.12 4.12-5.69 4.5-11.05 9.33-7.55 6.82-17.62 4.87c-8.7-1.69-19.76-4.55-28.1-.58-10.82 5.15-20.77 11.65-31.29 17.67q-.22.13-3.38 2.3a2.018 2.003-7.304 0 0-.74.95c-1.63 4.21 1.8 7.02 2.7 10.58.83 3.34-.66 9.54-5.13 9.68q-.95.03-9.21-.46a2.441 2.422 16.133 0 0-2.27 1.24c-3.46 6.27-3.35 12.43-4.13 19.35a6.541 6.527-23.997 0 1-1.19 3.09q-3.6 4.99-8.25 7.54a1.183 1.167 83.267 0 0-.56.72c-3.72 14.23-5.45 24.47-14.15 32.35q-2.66 2.41-4.84 4.74-7.64 8.14-14.6 16.19-5.08 5.87-9.94 10.48c-1.19 1.12-3 2.12-4.46 2.26m-16.35-143.9a2.271 2.25-54.72 0 1 2.16-.38c6.86 2.31 13.65 9.43 10.18 17.28-1.77 4.02-3.86 7.52-2.92 10.96 1.14 4.23 4.25 8.81 5.65 13 3.32 9.91-1.19 20.47-7.51 28.65q-6.44 8.33-10.73 17.68-.31.67-3.19 3.04c-2.73 2.25-5.77 2.74-8.51.7-2.91-2.17-2.8-7.83-2.58-11.83q1.3-23.69 3.46-39.2c.36-2.55 1.33-6.57 2.48-9.34q5.1-12.34 8.84-26.12c.41-1.53 1.39-3.43 2.67-4.44"/><path fill="#fff" d="M821.52 1150.47a2.112 2.098 85.188 0 1-1.34-1.14c-2.18-4.69-1.8-11.14-1.66-16.47q.2-7.2.73-9.69c2.64-12.54 19.64-20.01 29.03-26.13 3.39-2.22 7.53-5.68 8.09-9.63q.55-3.85 1.22-7.58a2.129 2.12-13.272 0 1 .82-1.32c4.47-3.37 8.3 1.49 10.37 5.25q1.83 3.31 1.85 5.47c.06 8.29-4.75 12.26-11.24 16.91-5.06 3.63-7.87 11.12-9.12 16.98q-1.98 9.31-5.33 15.9-2.66 5.25-8.79 9.42c-4.53 3.07-9.73 3.43-14.63 2.03m-5.84-39.04c-1.91 1.32-4.25.35-5.66-1.28q-5.6-6.51-6.65-12.37c-.78-4.41 2.77-6.94 6.52-9.82 4.63-3.55 13.89-9.22 17.02-.4 2.1 5.91 2.32 12.24-2.5 16.77q-4.22 3.98-8.73 7.1m-9.62 131.89c.02-3.9 2.08-7.37 4.01-10.72a16.667 16.448-22.101 0 0 1.51-3.51c1.93-6.45 2.69-11.27 8.06-14.49q3.32-2 9.82-2.24c5.24-.2 22.81.14 24.01 7.15q.66 3.87-.18 9-1.49 9.12-2.62 12.4-1.55 4.46-7 5.3-6.01.91-10.92.75-12.57-.41-22.24-.78-2.77-.1-4.12-1.88a1.659 1.609 27.266 0 1-.33-.98m22.87 12.57c4.86.38 8.71 1.13 9.32 6.62q.49 4.31-.71 9.78c-3.18 14.49-9.47 27.18-17.02 40.99q-9.78 17.88-19.1 32.63c-3.1 4.91-10.1 12.31-16.38 13.3-5.32.84-11.2-.87-10.32-7.46q.56-4.19 2.29-8.74c4.42-11.57 9.19-18.77 17.31-32.45q1.28-2.16 1.01-4.82-1.72-16.88-1.85-19.74-.16-3.64.83-11.33c1.05-8.07 5.32-14.1 12.27-17.4 5.52-2.62 15.71-1.91 22.35-1.38"/><path fill="#21211f" d="M698.87 1384.7a86.42 86.42 0 0 1-86.42 86.42 86.42 86.42 0 0 1-86.42-86.42 86.42 86.42 0 0 1 86.42-86.42 86.42 86.42 0 0 1 86.42 86.42m-61.22-80.38-2.67 10.31a2.492 2.489 36.373 0 0 .3 1.97l12.13 19.39a1.74 1.72-8.674 0 0 1.06.77l19.73 5.12a3.091 3.089-57.059 0 0 2.71-.58q3.76-2.99 9.82-5.64a.83.827 60.991 0 0 .35-1.23c-10.38-15.03-25.26-24.7-42.1-30.81a1.017 1.017 17.217 0 0-1.33.7m-93.62 29.99a.489.485-53.889 0 0 .1.66l9.89 7.83a1.337 1.312-33.515 0 0 1.19.23l17.96-5.25a5.94 5.798 33.602 0 1 1.27-.24l2.62-.24a1.173 1.164-79.425 0 0 .94-.65q4.24-8.6 11.25-18.3a3.215 3.209-34.789 0 0 .5-2.76l-3.01-10.87a1.069 1.067 73.01 0 0-1.37-.73q-16.54 5.61-28.83 16.52-7.78 6.91-12.51 13.8m35.81 4.65 11.56 15.81a.868.854 71.401 0 0 .69.35h39.8a.871.866 18.602 0 0 .69-.34l13.09-16.55a1.612 1.61 52.827 0 0 .22-1.61q-1.38-3.33-4.42-7.8-4.14-6.08-7.32-11.08a1.552 1.545 71.43 0 0-1.42-.71q-20.67 1.7-39.84.49a2.682 2.675-71.959 0 0-2.43 1.24q-6 9.43-9.69 15.77-1.08 1.86-1.27 3a1.926 1.888 32.2 0 0 .34 1.43m67.42-.56-13 16.43a1.681 1.677 54.71 0 0-.27 1.59l12.99 37.72a1.552 1.544 89.558 0 0 .98.97l19.06 6.37a1.881 1.872-61.542 0 0 2.07-.62l13.25-16.74a2.448 2.439 52.747 0 0 .33-2.46c-4.9-11.49-10.04-24.35-12.6-36.93a1.333 1.324-87.877 0 0-.94-1.02l-20.28-5.82a1.498 1.489 27.052 0 0-1.59.51m-70.45-.1-20.87 5.78a2.289 2.271 88.342 0 0-1.61 1.72q-1.1 5.12-2.96 10.83-3.38 10.39-9.13 26.24a1.293 1.29 38.261 0 0 .14 1.17q5.94 8.91 12.4 15.97a3.117 3.113 61.013 0 0 3.13.9l18.23-5.05a1.619 1.615-88.606 0 0 1.11-1.06l12.75-38.13a2.338 2.334-54.079 0 0-.34-2.14l-11.76-15.85a1.011 1.005-25.611 0 0-1.09-.38m120.54 46.04a.633.631 88.056 0 0-.63-.59h-11.97a.87.87-70.877 0 0-.68.33l-14.51 18.35a1.014.966 62.643 0 0-.21.72l2.02 22.14a1.484 1.478-71.447 0 0 .48.97l8.67 7.86a1.176 1.167-51.917 0 0 1.76-.22q11.51-17.23 14.48-38.16.95-6.64.59-11.4m-170.29.73q.4 6.4 1.16 12.48c1.49 11.89 5.98 22.93 12.61 32.89q2.06 3.08 3.25 4.17a.893.892 43.567 0 0 1.23-.03l8.07-8.07a1.896 1.841 69.718 0 0 .54-1.22l1.12-22.7a.95.936-65.344 0 0-.25-.69q-6.54-7.04-12.93-16.55a2.353 2.341 72.816 0 0-1.94-1.03h-12.15a.712.711 88.471 0 0-.71.75m140.77 17.97-20.02-6.69a1.281 1.265-51.055 0 0-1.07.12q-5.46 3.41-11.06 7.94-4.02 3.26-21.47 15.81-1.08.78-1.07 3.27.01 12.42.08 18.69a.751.745 12.312 0 0 .44.68l20.57 9.28a.88.878-53.321 0 0 .95-.14q16.17-13.97 34.28-25.77a1.247 1.244 70.838 0 0 .56-1.16l-1.98-21.76a.319.3-84.649 0 0-.21-.27m-110.83-.55a.982.975-6.553 0 0-.72.9l-1.09 21.95a1.059 1.029 18.035 0 0 .49.93q17.52 10.88 34.38 25.26a.837.833-35.698 0 0 .87.14l20.58-8.51a.741.736 78.5 0 0 .46-.7l-.26-20.1a2.989 2.974 17.716 0 0-1.23-2.37l-30.67-22.24a4.06 4.036 54.962 0 0-3.47-.62zm55.799 67.175q13.098-.002 25.621-3.88a.601.596-18.199 0 0 .39-.765l-3.46-10.03a3.289 3.272 3.665 0 0-1.68-1.9q-9.44-4.55-20.677-8.846-.088-.034-.198-.034-.109 0-.197.034-11.236 4.3-20.674 8.853a3.289 3.272-3.684 0 0-1.68 1.9l-3.457 10.031a.601.596 18.181 0 0 .39.765q12.525 3.874 25.622 3.872"/><path fill="#fff" d="M637.65 1304.32a1.017 1.017 17.217 0 1 1.33-.7c16.84 6.11 31.72 15.78 42.1 30.81a.83.827 60.991 0 1-.35 1.23q-6.06 2.65-9.82 5.64a3.091 3.089-57.059 0 1-2.71.58l-19.73-5.12a1.74 1.72-8.674 0 1-1.06-.77l-12.13-19.39a2.492 2.489 36.373 0 1-.3-1.97zm-93.62 29.99q4.73-6.89 12.51-13.8 12.29-10.91 28.83-16.52a1.069 1.067 73.01 0 1 1.37.73l3.01 10.87a3.215 3.209-34.789 0 1-.5 2.76q-7.01 9.7-11.25 18.3a1.173 1.164-79.425 0 1-.94.65l-2.62.24a5.94 5.798 33.602 0 0-1.27.24l-17.96 5.25a1.337 1.312-33.515 0 1-1.19-.23l-9.89-7.83a.489.485-53.889 0 1-.1-.66m35.47 3.22q.19-1.14 1.27-3 3.69-6.34 9.69-15.77a2.682 2.675-71.959 0 1 2.43-1.24q19.17 1.21 39.84-.49a1.552 1.545 71.43 0 1 1.42.71q3.18 5 7.32 11.08 3.04 4.47 4.42 7.8a1.612 1.61 52.827 0 1-.22 1.61l-13.09 16.55a.871.866 18.602 0 1-.69.34h-39.8a.868.854 71.401 0 1-.69-.35l-11.56-15.81a1.926 1.888 32.2 0 1-.34-1.43m67.76.87a1.498 1.489 27.052 0 1 1.59-.51l20.28 5.82a1.333 1.324-87.877 0 1 .94 1.02c2.56 12.58 7.7 25.44 12.6 36.93a2.448 2.439 52.747 0 1-.33 2.46l-13.25 16.74a1.881 1.872-61.542 0 1-2.07.62l-19.06-6.37a1.552 1.544 89.558 0 1-.98-.97l-12.99-37.72a1.681 1.677 54.71 0 1 .27-1.59zm-70.45-.1a1.011 1.005-25.611 0 1 1.09.38l11.76 15.85a2.338 2.334-54.079 0 1 .34 2.14l-12.75 38.13a1.619 1.615-88.606 0 1-1.11 1.06l-18.23 5.05a3.117 3.113 61.013 0 1-3.13-.9q-6.46-7.06-12.4-15.97a1.293 1.29 38.261 0 1-.14-1.17q5.75-15.85 9.13-26.24 1.86-5.71 2.96-10.83a2.289 2.271 88.342 0 1 1.61-1.72zm120.54 46.04q.36 4.76-.59 11.4-2.97 20.93-14.48 38.16a1.176 1.167-51.917 0 1-1.76.22l-8.67-7.86a1.484 1.478-71.447 0 1-.48-.97l-2.02-22.14a1.014.966 62.643 0 1 .21-.72l14.51-18.35a.87.87-70.877 0 1 .68-.33h11.97a.633.631 88.056 0 1 .63.59m-170.29.73a.712.711 88.471 0 1 .71-.75h12.15a2.353 2.341 72.816 0 1 1.94 1.03q6.39 9.51 12.93 16.55a.95.936-65.344 0 1 .25.69l-1.12 22.7a1.896 1.841 69.718 0 1-.54 1.22l-8.07 8.07a.893.892 43.567 0 1-1.23.03q-1.19-1.09-3.25-4.17c-6.63-9.96-11.12-21-12.61-32.89q-.76-6.08-1.16-12.48m140.98 18.24 1.98 21.76a1.247 1.244 70.838 0 1-.56 1.16q-18.11 11.8-34.28 25.77a.88.878-53.321 0 1-.95.14l-20.57-9.28a.751.745 12.312 0 1-.44-.68q-.07-6.27-.08-18.69-.01-2.49 1.07-3.27 17.45-12.55 21.47-15.81 5.6-4.53 11.06-7.94a1.281 1.265-51.055 0 1 1.07-.12l20.02 6.69a.319.3-84.649 0 1 .21.27m-111.04-.82 19.34-5.36a4.06 4.036 54.962 0 1 3.47.62l30.67 22.24a2.989 2.974 17.716 0 1 1.23 2.37l.26 20.1a.741.736 78.5 0 1-.46.7l-20.58 8.51a.837.833-35.698 0 1-.87-.14q-16.86-14.38-34.38-25.26a1.059 1.029 18.035 0 1-.49-.93l1.09-21.95a.982.975-6.553 0 1 .72-.9m55.795 41.72q.11 0 .198.034 11.237 4.296 20.677 8.846a3.289 3.272 3.665 0 1 1.68 1.9l3.46 10.03a.601.596-18.199 0 1-.39.765q-12.523 3.878-25.621 3.88t-25.622-3.872a.601.596 18.181 0 1-.39-.765l3.457-10.031a3.289 3.272-3.684 0 1 1.68-1.9q9.438-4.553 20.674-8.853.088-.034.197-.034"/><path fill="#21211f" d="M495.71 1623.65q15.64.22 31.29.06c6.79-.07 13.98.47 20 .45q9.59-.04 28.03-.35 2.15-.03 4.25-.05 32.88-.32 154.35.19a.545.539-74.648 0 1 .46.82q-2.43 4.15-8.24 14.51c-4.61 8.22-7.48 16.08-10.03 24.04a.543.54 43.16 0 1-1.02.03c-1.59-4.04-2.47-7.44-4.54-11.15-2.95-5.32-5.49-9.84-10.9-12.56-9.67-4.88-20.39-5.13-30.92-4.41a1.108 1.106-1.149 0 0-1.03 1.07q-.18 4.7-.16 5.99.21 19.13.07 129.22 0 6.09 4.94 10 5.57 4.39 8.78 6.54a.914.739 77.612 0 1 .15.12l1.95 1.97a.788.788 57.25 0 1-.28 1.29q-.91.35-2.86.31-19.8-.4-42.49.04-6.63.13-10.7-.34-.59-.07-.71-.2a1.485 1.393-37.951 0 1 .34-2.18q6.89-4.49 12.55-9.07c2.8-2.26 3.28-3.77 3.27-7.64q-.03-81.7-.19-126.35a.38.38.774 0 0-.37-.38q-9.27-.36-17.66 1.2c-12.11 2.25-15.89 11.66-17.16 22.7a1.617 1.614 8.274 0 1-1.88 1.4l-.18-.03a1.767 1.757-81.657 0 1-1.45-1.96q.8-6.49 1.05-7.52 4.24-17.12 22.37-18.87 4.02-.38 14.6-.27a.85.85.333 0 0 .86-.85v-5.61a.79.78 0 0 0-.79-.78c-9.56.01-17.15-.18-24.73 1.69-11.9 2.94-18.98 13.09-19.52 25.24q-.06 1.16-.38 1.91a1.143 1.138-49.741 0 1-2 .17q-.83-1.28-1.08-2.08-4.22-13.38-10.16-25.14a.244.241-44.651 0 0-.43 0q-4.81 9.15-6.77 12.49c-3.86 6.6-7.28 15.44-10.33 21.48q-.44.86-1.44.87a1.516 1.503-84.513 0 1-1.48-1.81q.92-4.7 3.19-10.04 5.67-13.38 15.18-26.22a.327.314-41.306 0 0 .03-.35l-4.1-7.39a.102.1 47.744 0 0-.17-.01q-3.49 4.67-10.18 16.47-5.95 10.49-9.6 20.85a.592.592-63.605 0 1-.89.3q-.14-.09-.47-.46-.26-.28-.34-.55c-3.36-10.74-10.02-21.41-20.99-25q-4.3-1.41-10.68-1.93-14.59-1.19-28.87-.41-3.82-.5-7.39.22a.939.931-1.387 0 0-.74.77q-.61 3.99-.58 6.42.42 35.89.37 52.31a.832.822-88.549 0 0 .78.83l6.66.33a.731.721 1.543 0 0 .76-.71c.12-6.77-.58-13.47-.43-20.7q.35-16.09.71-32.45 17.19-.71 27.36-.43c8.23.23 18.05 3.5 23.71 9.81a.667.666 66.646 0 1-.44 1.11q-.92.08-1.51-.36-4.38-3.28-11.75-5.67-3.68-1.19-13.05-.94-6.89.18-19.3-.14a.981.98.851 0 0-1.01.98v48.1a1.11 1.11-.507 0 0 1.13 1.11l17.61-.22a1.244 1.242-69.152 0 0 .89-.4q1.37-1.51 16.16-16.87 1.68-1.74 2.94-2.31a.905.904 77.927 0 1 1.28.83l-.19 49.56a.612.607-65.931 0 1-1.06.41q-.22-.25-6.99-7.53c-3.65-3.92-8.18-7.3-11.89-11.45a1.717 1.694 68.581 0 0-1.26-.56l-22.35-.05q-4-1.31-8.02-.18a1.09 1.09 82.315 0 0-.8 1.05v62.57a5.17 5.145-67.693 0 0 1.52 3.66l4.43 4.43a2.534 2.383-9.882 0 0 .82.54q1.23.5 1.82 1.11l7.94 8.31a.639.638-20.68 0 1-.49 1.08q-2.83-.12-5.97.25-.48.06-.77.36-.27.29-.43.73.45-.89-.21-.89-31.13-.08-34.38-.06c-6.22.05-13.4.6-20.47.2a.499.494 15.982 0 1-.41-.73q.47-.86 1.34-1.47 12.42-8.9 17.65-13.83 2-1.88 1.94-4.99-.49-27.16-.03-51.34a.504.499 87.034 0 0-.56-.51q-7.22.82-12.61 3.56c-1.76.89-3.12 3.06-4.95 4.11a.913.913-16.624 0 1-1.37-.74c-.18-3.56 1.5-4.72 4.29-6.58q6.62-4.42 14.32-4.11a.962.961 1.146 0 0 1-.96v-4.4a1.15 1.15-.247 0 0-1.16-1.15q-12.63.05-22.97 8.7-.43.36-.91-.04-.19-.15-.1-.54c2.72-12.32 13.08-17.12 24.36-19.41a.765.764-5.49 0 0 .62-.75l-.02-53.7a1.776 1.757-56.782 0 0-.14-.69q-.43-1.05-2.56-2.97c-2.79-2.51-9.56-7.11-13.87-12.05a.966.965-20.813 0 1 .72-1.6zm355.33 28.17a.576.574-9.757 0 1-.66.93q-2.72-1.42-7.69-3.93-5.53-2.79-12.95-2.97-15.63-.39-26.42-.26a.82.82-.354 0 0-.81.82v48.41a.7.69 0 0 0 .7.69h17.71a2.998 2.965 22.277 0 0 2.11-.87q6.82-6.8 15.94-17.14 1.6-1.82 3.21-1.95a.946.943-2.249 0 1 1.02.94v50.04a.709.708 22.52 0 1-1.21.5l-19.09-19.08a2.334 2.321-20.568 0 0-1.53-.69q-15.67-.84-29.72.02a.826.813-1.174 0 0-.77.79q-.3 8.21-.14 18.93.35 23.37.08 43.01c-.07 4.51 7.36 10.62 11.31 13.61q3.82 2.88 5.43 5.45.22.35.22.41a.561.555-85.807 0 1-.55.48l-62.19-.11a.255.253 25.651 0 1-.16-.45c6.36-5.25 12.64-9.43 18.08-15.19q1.91-2.02 1.86-4.46-.11-5.22-.4-51.43a.58.58.503 0 0-.57-.58q-10.28-.26-17.14 6.67a.622.62 66.02 0 1-1.06-.41c-.38-8.48 12.8-9.66 18.53-10.44a.826.814.409 0 0 .71-.69q.42-2.63.03-4.72a.926.925 86.446 0 0-.86-.76c-6.29-.32-12.63.88-17.96 4.41q-2.43 1.6-5.55 3.46a.522.518 81.26 0 1-.77-.57c2.97-12.44 12.27-16.79 24.06-18.66a.891.883 88.725 0 0 .73-.77q.12-1.02-.02-6.26-.62-23.37-.42-26.25.74-10.53.43-21.88a1.785 1.776-69.694 0 0-.58-1.27l-15.67-14.2a.838.837 66.001 0 1 .56-1.46h132.57a1 .999-72.601 0 1 .82 1.57c-4.16 5.98-7.44 10.21-10.72 15.83q-3.74 6.42-8.51 18.19-.74 1.83-1.74 3.32a.432.43 48.764 0 1-.74-.05c-5.67-11.21-9.38-21.7-22.98-25.39q-8.95-2.43-16.57-2.55-15.22-.25-28.93.39a1.322 1.313 88.635 0 0-1.25 1.32v58.09a1.14 1.14-8.156 0 0 1.14 1.14h5.88a1.2 1.2 84.624 0 0 1.2-1.2v-52.17a.57.56-90 0 1 .56-.57q17.7.03 24.91-.11 15.34-.28 26.53 10.07m131.4-27.52 29.33-.46a.789.786-69.214 0 1 .59 1.32l-11.33 12.51a2.757 2.75 56.034 0 0-.54 2.79l20.11 54.95a2.008 2.004-28.309 0 0 3.08.92l.56-.42a4.087 4.075-28.675 0 0 1.39-4.72q-9.4-25-16.97-47.81c-.62-1.87-.34-2.9 1.09-4.3q5.47-5.37 10.35-12.27a1.354 1.35 36.711 0 1 1.94-.28l.3.24a1.367 1.367-54.72 0 1 .22 1.92l-10.47 13.24a1.209 1.184-33.892 0 0-.22 1.06q1.27 4.65 2.22 7.14 6.05 15.9 11.77 31.51 1.56 4.23 3.68 9.15a.573.571 59.725 0 0 .87.23l8.99-6.66a1.253 1.248-27.174 0 1 1.94.62q1.8 5.65 2.66 8.55c1.41 4.72 3.15 8.14 5.5 13.01a.859.858 78.722 0 1-.82 1.23q-10.37-.58-19.84 3.34a1.11 1.11-18.622 0 0-.65 1.31c2.7 10.19 5.33 15.79 10.89 30.16 3.97 10.23 7.55 21.9 11.77 31.34 1.18 2.63 3.03 4.86 5.68 6.65q5.52 3.74 12.84 9.94.5.43.16.96-.2.3-.78.25-1.4-.12-60.48.06-.25 0-.67-.09a.838.836 28.458 0 1-.42-1.41q6.09-6.05 13.56-10.89a3.176 3.174-25.165 0 0 1.3-3.6q-5.55-17.94-12.35-35.73-.28-.75-.52-.98a.998.993-49.199 0 0-1.45.11q-9.27 11.49-19.33 23.43-2 2.38-3.94 3.02a.47.467 78.033 0 1-.61-.4q-.13-1.38 1.11-3.29 4.17-6.38 15.68-19.07.81-.89 6.8-8.95a1.58 1.58 54.083 0 0 .23-1.44q-.7-2.13-2.3-3.09a1.169 1.167-49.203 0 0-1.35.1q-3.38 2.78-7.4 7.33-7.14 8.06-11.34 13.69-2.21 2.96-4.26 6.93-1.02 1.39-1.91 1.81a.62.609 61.851 0 1-.8-.25c-6.04-10.26-12.33-20.08-19.96-28.81a.378.378-30.812 0 0-.66.22q-.14 1.79-.6 2.9c-3.05 7.42-6.35 16.24-8.14 26.26-1.38 7.73-.26 13.62 2.36 20.5q1.42 3.72 6.87 10.7 3.07 3.93 7.56 10.44a1.167 1.165-17.358 0 1-.96 1.83h-66.99a3.519 3.516-13.21 0 1-3.15-1.95l-.28-.55a1.046 1.035 76.658 0 1 .92-1.51h63.47a.581.579 75 0 0 .5-.87q-2.06-3.62-4.5-6.27c-7.65-8.27-10.76-18.91-9.85-30.05.85-10.52 4.94-20.92 9.67-32.5a4.539 4.523 37.975 0 0-.55-4.4l-2.42-3.26a1.438 1.438-52.534 0 0-2.49.33q-6.55 16.55-10.3 30.79-1.14 4.33-1.15 13.7c0 8.83 4.45 15.06 11.01 21.43q1.47 1.43 2.33 2.97a.652.652 72.046 0 1-.49.96q-1.38.18-3 .12-23.02-.88-41.08.11c-5.46.3-11.63.1-16.57-.3a.594.592-60.738 0 1-.3-1.07q2.21-1.61 10.04-7.15 6.56-4.64 11.36-10.88c9.41-12.25 16.33-26.99 21.22-40.51q5.06-13.99 6.04-17.19c1.27-4.18-1.22-4.56-4.83-6.07q-6.58-2.77-12.81-2.6a.411.406-78.604 0 1-.38-.58l9.32-20.66a.441.438 32.505 0 1 .69-.15l13.72 11.84a1.106 1.105-63.148 0 0 1.8-.59l.83-3.55a2.654 2.648 25.788 0 0-.93-2.66q-4.74-3.8-9.63-7.95-1.51-1.28-1.4-2.79a1.097 1.097 17.18 0 1 1.65-.87q6.2 3.67 11.5 9.05a.76.758 33.158 0 0 1.25-.26l18.23-47.25a2.081 2.061-55.865 0 0-.4-2.14l-11.71-12.83a.687.687-20.685 0 1 .52-1.15zm-7.49 27.22-19.38 52.49a2.81 2.804-55.025 0 0 .49 2.79q9.72 11.36 18.48 22.91 1.73 2.28 4 5.94a.632.624 46.845 0 0 1.04.04l2.7-3.73a1.153 1.144-36.643 0 0 .16-1.06q-.57-1.69-1.93-3.62-7.6-10.76-15.93-20.06c-3.13-3.49-.28-6.45.83-9.26q5.21-13.24 13.15-36.64c.84-2.49-2.04-7.78-3.09-9.83a.286.284-48.119 0 0-.52.03m7.25 71.49 2.4 5.56a.684.677-33.906 0 0 1.1.21q2.06-2 11.61-12.49 2.07-2.28 1.07-4.93-7.89-20.82-14.19-40.63a.999.968 89.105 0 0-.63-.63q-1.1-.33-1.21-.85.06-2.01-.6-3.66a.285.283-41.41 0 0-.51-.03q-.49.86-1.25 3.15-4.21 12.67-10.45 28.85-1.21 3.16-1.47 6.38a3.73 3.69 28.181 0 0 .82 2.66zm-114.25-51.24a.845.842-9.067 0 1-1.26-.91q1.28-5.57 4.13-11.55c4.69-9.83 10.09-19.69 17.1-27.71a2.236 2.22-55.731 0 1 2.69-.52l.08.04a1.454 1.454-58.977 0 1 .53 2.13q-9.86 13.98-12.32 18.4-4 7.22-7.7 16.02-1.22 2.88-3.25 4.1m-135.859-20.23c-2.28 4.69-4.555 10.728-7.271 17.742q-.44 1.148-.45 1.158a1.498 1.496 56.203 0 1-2.72-.54q-.43-2.21.53-4.904 2.455-6.92 6.451-15.138t7.922-14.424q1.526-2.418 3.53-3.445a1.498 1.496-4.345 0 1 2.104 1.806q-.001.014-.633 1.069c-3.839 6.468-7.182 11.986-9.463 16.676"/><path fill="#0178b0" d="m495.25 1635.11.14 7.02q-.36 16.36-.71 32.45c-.15 7.23.55 13.93.43 20.7a.731.721 1.543 0 1-.76.71l-6.66-.33a.832.822-88.549 0 1-.78-.83q.05-16.42-.37-52.31-.03-2.43.58-6.42a.939.931-1.387 0 1 .74-.77q3.57-.72 7.39-.22"/><path fill="#21211f" d="M690.84 1798.5q-1.89-4.54-6.25-7.51a3.02 2.936 88.828 0 1-.78-.77q-6.3-9.06-7.48-12.06c-1.48-3.75-.84-9.27-1.09-14.1q-.35-6.68.04-40.37c.31-26.56-.79-55.27.21-80.85a.534.523 89.427 0 1 .49-.51c9.5-.7 20.84-1.4 27.52 5.95q1.29 1.42 1.47 2.94a.519.514 14.952 0 1-.82.47c-7.01-5.09-15.51-5.92-24.14-5.97a.63.63-19.213 0 0-.63.63v127.52a10.651 10.454-55.934 0 0 .69 3.76q.92 2.37 4.86 7.24 10.97 13.56 11.87 14.83.62.88.79 1.94a1.089 1.084 85.47 0 1-1.07 1.26h-63.04a1.95 1.95 25.467 0 1-1.8-1.2l-.64-1.55a.951.948-11.176 0 1 .88-1.31h58.7a.246.241 78.56 0 0 .22-.34"/><path fill="#f6c822" d="M974.95 1651.52a.286.284-48.119 0 1 .52-.03c1.05 2.05 3.93 7.34 3.09 9.83q-7.94 23.4-13.15 36.64c-1.11 2.81-3.96 5.77-.83 9.26q8.33 9.3 15.93 20.06 1.36 1.93 1.93 3.62a1.153 1.144-36.643 0 1-.16 1.06l-2.7 3.73a.632.624 46.845 0 1-1.04-.04q-2.27-3.66-4-5.94-8.76-11.55-18.48-22.91a2.81 2.804-55.025 0 1-.49-2.79z"/><path fill="#f6c822" d="m982.35 1669.25-.15 53.76-13.31-16.41a3.73 3.69 28.181 0 1-.82-2.66q.26-3.22 1.47-6.38 6.24-16.18 10.45-28.85.76-2.29 1.25-3.15a.285.283-41.41 0 1 .51.03q.66 1.65.6 3.66"/><path fill="#d3242b" d="m982.2 1723.01.15-53.76q.11.52 1.21.85a.999.968 89.105 0 1 .63.63q6.3 19.81 14.19 40.63 1 2.65-1.07 4.93-9.55 10.49-11.61 12.49a.684.677-33.906 0 1-1.1-.21z"/><path fill="#21211f" d="M850.918 1733.422a.76.76 36.739 0 1-.761-.759l-.084-48.02a6.22 1.4 89.9 0 1 1.389-6.222l.74-.002a6.22 1.4 89.9 0 1 1.411 6.218l.084 48.02a.76.76 89.893 0 1-.759.761zm-301.017-.778a1.64 1.64 0 0 1-1.634 1.646h-.04a1.64 1.64 0 0 1-1.646-1.634l-.182-52.3a1.64 1.64 0 0 1 1.634-1.646h.04a1.64 1.64 0 0 1 1.646 1.634zm530.709 65.756q-2.06-2.74-3.11-3.72-11.15-10.42-16.37-16.26c-2.09-2.33-3.74-5.25-5.02-8.53q-10.7-27.36-19.26-51.25-.59-1.64-.59-3.17a.54.53 90 0 1 .53-.54q12.32-.02 20.05-.32 2.11-.08 3.1-.46a.552.55 64.396 0 0 .28-.8c-1.19-1.98-2.16-3.3-3.3-5.99q-3.21-7.58-6.95-14.53-.79-1.46-1.17-3.54a1.306 1.304-78.573 0 1 2-1.33q.93.62 1.51 2 4.33 10.31 7.75 17.21 2.1 4.24 5.91 8.61a1.406 1.406 69.466 0 1-1.06 2.33h-23.66a.823.82 83.772 0 0-.8 1c.5 2.27 1.61 6.3 2.72 8.73q5.39 11.86 14.93 38.9c2.22 6.31 6.5 11.61 12.05 16.83q7.77 7.32 17.39 17.58a.633.631-25.347 0 1-.38 1.06q-5.64.75-10.91.75-32.11.04-60.14.18a3.279 3.268-11.606 0 1-3.03-1.99l-.09-.21a1.362 1.357 78.091 0 1 1.24-1.91l66.12-.11a.325.325-53.566 0 0 .26-.52"/><path fill="#0178b0" d="m495.67 1707.11.37 6.99q-.94 9.81-1.12 15.89-.56 19.59.71 42.96l-.19 7.34q-.59-.61-1.82-1.11a2.534 2.383-9.882 0 1-.82-.54l-4.43-4.43a5.17 5.145-67.693 0 1-1.52-3.66v-62.57a1.09 1.09 82.315 0 1 .8-1.05q4.02-1.13 8.02.18"/><path fill="#21211f" d="M496.04 1714.1q11.98.44 23.96.28 3.18-.04 4.97 3.32a.133.129-13.512 0 1-.12.19h-24.67a.731.73 89.236 0 0-.73.75q.53 26.49-.13 51.14-.14 4.89 3.19 8.71 4.91 5.66 17.65 21.11.81.98 1.02 1.72a.867.865-7.946 0 1-.84 1.11l-24.5-.29-47.25.38a3.791 3.641 76.46 0 1-3.36-2.15l-.03-.07a1.495 1.485 77.241 0 1 1.34-2.14l49.27.23 17.32-.04a.333.328 74.711 0 0 .28-.5c-3.28-5.58-7.66-9.81-13.53-16.48q-1.95-2.21-4.25-8.42-1.27-23.37-.71-42.96.18-6.08 1.12-15.89m320.92 83.42q-3.08-4.81-7.92-9.43-5.66-5.4-9.22-14.26a6.515 6.423 34.287 0 1-.46-2.34l-.74-56.07a.94.94 89.605 0 1 .92-.96q12.03-.33 17.54-.4c4.89-.06 7.83-.38 10.67 3.19a.508.506-19.123 0 1-.4.82h-24.02a.76.76-15.217 0 0-.76.76v52a5.495 5.42 33.534 0 0 .46 2.19q1.57 3.62 4.66 7.26 5.24 6.18 10.67 13.41.5.66 5.43 5.83.7.73.92 1.47a1.06 1.057 81.46 0 1-1.01 1.37h-70.14a3.484 3.475 67.45 0 1-2.46-1.02l-1.14-1.14a.961.961-22.491 0 1 .68-1.64h65.75a.677.676 73.774 0 0 .57-1.04"/><path fill="#f6c822" d="M495.63 1772.95q2.3 6.21 4.25 8.42c5.87 6.67 10.25 10.9 13.53 16.48a.333.328 74.711 0 1-.28.5l-17.32.04-.09-7.37q.16-.44.43-.73.29-.3.77-.36 3.14-.37 5.97-.25a.639.638-20.68 0 0 .49-1.08l-7.94-8.31z"/></g></svg>